SplineFontDB: 3.2
FontName: GROBOLD
FullName: GROBOLD
FamilyName: GROBOLD
Weight: Medium
Version: 001.000
ItalicAngle: 0
UnderlinePosition: -146
UnderlineWidth: 20
Ascent: 819
Descent: 205
InvalidEm: 0
sfntRevision: 0x00010000
LayerCount: 2
Layer: 0 1 "Back" 1
Layer: 1 1 "Fore" 0
XUID: [1021 90 403621177 8231]
StyleMap: 0x0040
FSType: 0
OS2Version: 3
OS2_WeightWidthSlopeOnly: 0
OS2_UseTypoMetrics: 0
CreationTime: 1141733518
ModificationTime: 1631103066
PfmFamily: 17
TTFWeight: 500
TTFWidth: 5
LineGap: 0
VLineGap: 0
Panose: 2 0 6 3 3 0 0 2 0 4
OS2TypoAscent: 819
OS2TypoAOffset: 0
OS2TypoDescent: -205
OS2TypoDOffset: 0
OS2TypoLinegap: 0
OS2WinAscent: 1014
OS2WinAOffset: 0
OS2WinDescent: 207
OS2WinDOffset: 0
HheadAscent: 819
HheadAOffset: 0
HheadDescent: -205
HheadDOffset: 0
OS2SubXSize: 209
OS2SubYSize: 209
OS2SubXOff: 0
OS2SubYOff: 293
OS2SupXSize: 209
OS2SupYSize: 209
OS2SupXOff: 0
OS2SupYOff: 293
OS2StrikeYSize: 51
OS2StrikeYPos: 256
OS2CapHeight: 885
OS2XHeight: 622
OS2Vendor: 'pyrs'
OS2CodePages: 00000001.00000000
OS2UnicodeRanges: 00000003.00000000.00000000.00000000
Lookup: 6 0 0 "SoupofJustice-'locl' Localized Forms in Latin lookup 0" { "SoupofJustice-'locl' Localized Forms in Latin lookup 0 contextual 0"  "SoupofJustice-'locl' Localized Forms in Latin lookup 0 contextual 1"  } ['locl' ('latn' <'CAT ' > ) ]
Lookup: 6 0 0 "SoupofJustice-'frac' Diagonal Fractions lookup 1" { "SoupofJustice-'frac' Diagonal Fractions lookup 1 contextual 0"  "SoupofJustice-'frac' Diagonal Fractions lookup 1 contextual 1"  } ['frac' ('DFLT' <'dflt' > 'cyrl' <'BGR ' 'dflt' > 'latn' <'CAT ' 'MOL ' 'ROM ' 'TRK ' 'dflt' > ) ]
Lookup: 257 0 0 "SoupofJustice-'cpsp' Capital Spacing lookup 0" { "SoupofJustice-'cpsp' Capital Spacing lookup 0 subtable"  } ['cpsp' ('DFLT' <'dflt' > 'cyrl' <'BGR ' 'dflt' > 'latn' <'CAT ' 'MOL ' 'ROM ' 'TRK ' 'dflt' > ) ]

StartChar: exclam
Encoding: 33 33 4
Width: 792
GlyphClass: 2
Flags: W
LayerCount: 2
Fore
SplineSet
430 -32 m 256,0,1
 398 -21 398 -21 373 -3 c 128,-1,2
 348 15 348 15 332 36.5 c 128,-1,3
 316 58 316 58 310.5 81.5 c 128,-1,4
 305 105 305 105 313 127 c 0,5,6
 320 149 320 149 338.5 164 c 128,-1,7
 357 179 357 179 383.5 186.5 c 128,-1,8
 410 194 410 194 440.5 192 c 128,-1,9
 471 190 471 190 503 180 c 0,10,11
 535 169 535 169 560 151 c 128,-1,12
 585 133 585 133 600.5 111.5 c 128,-1,13
 616 90 616 90 621.5 66.5 c 128,-1,14
 627 43 627 43 620 22 c 0,15,16
 613 0 613 0 594 -15 c 128,-1,17
 575 -30 575 -30 549 -37.5 c 128,-1,18
 523 -45 523 -45 492.5 -44 c 128,-1,19
 462 -43 462 -43 430 -32 c 256,0,1
627 208 m 1,20,21
 600 226 600 226 565.5 238 c 128,-1,22
 531 250 531 250 493 253 c 128,-1,23
 455 256 455 256 420.5 250.5 c 128,-1,24
 386 245 386 245 357 231 c 1,25,-1
 412 940 l 1,26,-1
 715 952 l 1,27,-1
 627 208 l 1,20,21
EndSplineSet
Validated: 33
EndChar

StartChar: dollar
Encoding: 36 36 5
Width: 656
GlyphClass: 2
Flags: W
LayerCount: 2
Fore
SplineSet
651 293 m 0,0,1
 653 235 653 235 635.5 186.5 c 128,-1,2
 618 138 618 138 585 102 c 128,-1,3
 552 66 552 66 504.5 40.5 c 128,-1,4
 457 15 457 15 400 2 c 1,5,-1
 400 -100 l 1,6,-1
 205 -108 l 1,7,-1
 231 -11 l 1,8,9
 172 -6 172 -6 112.5 12.5 c 128,-1,10
 53 31 53 31 5 54 c 1,11,-1
 83 272 l 1,12,13
 98 266 98 266 119.5 256.5 c 128,-1,14
 141 247 141 247 165.5 238.5 c 128,-1,15
 190 230 190 230 216.5 224 c 128,-1,16
 243 218 243 218 268 219 c 0,17,18
 306 221 306 221 332 232.5 c 128,-1,19
 358 244 358 244 357 270 c 0,20,21
 356 287 356 287 340 296.5 c 128,-1,22
 324 306 324 306 299 315 c 0,23,24
 284 319 284 319 259 326.5 c 128,-1,25
 234 334 234 334 205.5 346 c 128,-1,26
 177 358 177 358 147.5 375.5 c 128,-1,27
 118 393 118 393 94 417.5 c 128,-1,28
 70 442 70 442 54.5 475 c 128,-1,29
 39 508 39 508 38 549 c 0,30,31
 36 607 36 607 54 656 c 128,-1,32
 72 705 72 705 103.5 741.5 c 128,-1,33
 135 778 135 778 179.5 803.5 c 128,-1,34
 224 829 224 829 276 843 c 1,35,-1
 276 943 l 1,36,-1
 472 950 l 1,37,-1
 446 855 l 1,38,39
 492 852 492 852 536.5 843 c 128,-1,40
 581 834 581 834 620 817 c 1,41,-1
 559 581 l 1,42,43
 518 598 518 598 484.5 610 c 128,-1,44
 451 622 451 622 406 628 c 0,45,46
 393 630 393 630 371 630 c 256,47,48
 349 630 349 630 327.5 626 c 128,-1,49
 306 622 306 622 290.5 611.5 c 128,-1,50
 275 601 275 601 274 583 c 0,51,52
 274 575 274 575 282 570 c 128,-1,53
 290 565 290 565 300.5 562 c 128,-1,54
 311 559 311 559 323 557.5 c 128,-1,55
 335 556 335 556 341 555 c 0,56,57
 371 549 371 549 388 545 c 2,58,-1
 404 541 l 2,59,60
 433 535 433 535 460 523 c 0,61,62
 492 510 492 510 525 491.5 c 128,-1,63
 558 473 558 473 585 446 c 128,-1,64
 612 419 612 419 630.5 381.5 c 128,-1,65
 649 344 649 344 651 293 c 0,0,1
EndSplineSet
Validated: 33
EndChar

StartChar: percent
Encoding: 37 37 6
Width: 765
GlyphClass: 2
Flags: W
LayerCount: 2
Fore
SplineSet
466 562 m 0,0,1
 489 594 489 594 499 627 c 128,-1,2
 509 660 509 660 510 692.5 c 128,-1,3
 511 725 511 725 504.5 753.5 c 128,-1,4
 498 782 498 782 485 806 c 0,5,6
 479 818 479 818 467 830 c 128,-1,7
 455 842 455 842 438 849 c 128,-1,8
 421 856 421 856 401 857 c 128,-1,9
 381 858 381 858 358 850 c 0,10,11
 323 837 323 837 295.5 809 c 128,-1,12
 268 781 268 781 253 744.5 c 128,-1,13
 238 708 238 708 237.5 665 c 128,-1,14
 237 622 237 622 256 579 c 0,15,16
 273 540 273 540 302.5 524.5 c 128,-1,17
 332 509 332 509 362.5 510 c 128,-1,18
 393 511 393 511 421.5 525 c 128,-1,19
 450 539 450 539 466 562 c 0,0,1
409 729 m 0,20,21
 415 715 415 715 416 693.5 c 128,-1,22
 417 672 417 672 404 640 c 0,23,24
 398 625 398 625 386.5 614.5 c 128,-1,25
 375 604 375 604 362 604 c 0,26,27
 351 604 351 604 341.5 616.5 c 128,-1,28
 332 629 332 629 331 656 c 0,29,30
 329 687 329 687 338 709 c 128,-1,31
 347 731 347 731 360 742 c 128,-1,32
 373 753 373 753 387 750 c 128,-1,33
 401 747 401 747 409 729 c 0,20,21
710 47 m 0,34,35
 733 78 733 78 743 111 c 128,-1,36
 753 144 753 144 753.5 176.5 c 128,-1,37
 754 209 754 209 747 237.5 c 128,-1,38
 740 266 740 266 728 290 c 0,39,40
 722 302 722 302 709.5 314 c 128,-1,41
 697 326 697 326 681 333.5 c 128,-1,42
 665 341 665 341 645 342 c 128,-1,43
 625 343 625 343 602 335 c 0,44,45
 567 322 567 322 539 294 c 128,-1,46
 511 266 511 266 495.5 229.5 c 128,-1,47
 480 193 480 193 479.5 149.5 c 128,-1,48
 479 106 479 106 500 63 c 0,49,50
 517 24 517 24 546 9 c 128,-1,51
 575 -6 575 -6 606 -5 c 128,-1,52
 637 -4 637 -4 665.5 10 c 128,-1,53
 694 24 694 24 710 47 c 0,34,35
652 214 m 0,54,55
 657 200 657 200 658.5 178.5 c 128,-1,56
 660 157 660 157 648 124 c 0,57,58
 642 109 642 109 630 98.5 c 128,-1,59
 618 88 618 88 606 88 c 0,60,61
 595 88 595 88 585 100.5 c 128,-1,62
 575 113 575 113 574 141 c 0,63,64
 572 172 572 172 581.5 193.5 c 128,-1,65
 591 215 591 215 603.5 226 c 128,-1,66
 616 237 616 237 630 234.5 c 128,-1,67
 644 232 644 232 652 214 c 0,54,55
656 859 m 1,68,-1
 751 835 l 1,69,-1
 340 -5 l 1,70,-1
 262 29 l 1,71,-1
 656 859 l 1,68,-1
EndSplineSet
Validated: 41
EndChar

StartChar: ampersand
Encoding: 38 38 7
Width: 865
GlyphClass: 2
Flags: W
LayerCount: 2
Fore
SplineSet
579 86 m 1,0,1
 521 40 521 40 460.5 18 c 128,-1,2
 400 -4 400 -4 327 -9 c 0,3,4
 267 -14 267 -14 208.5 -6.5 c 128,-1,5
 150 1 150 1 102.5 26 c 128,-1,6
 55 51 55 51 24.5 96 c 128,-1,7
 -6 141 -6 141 -11 211 c 0,8,9
 -14 256 -14 256 -2 294 c 128,-1,10
 10 332 10 332 34.5 361 c 128,-1,11
 59 390 59 390 93 410.5 c 128,-1,12
 127 431 127 431 167 442 c 1,13,14
 129 472 129 472 106 508 c 128,-1,15
 83 544 83 544 79 593 c 0,16,17
 74 653 74 653 97.5 698 c 128,-1,18
 121 743 121 743 161.5 773.5 c 128,-1,19
 202 804 202 804 253.5 821 c 128,-1,20
 305 838 305 838 357 842 c 0,21,22
 406 846 406 846 460 838 c 128,-1,23
 514 830 514 830 559.5 808 c 128,-1,24
 605 786 605 786 636.5 747.5 c 128,-1,25
 668 709 668 709 673 651 c 0,26,27
 676 615 676 615 666.5 580 c 128,-1,28
 657 545 657 545 638.5 514 c 128,-1,29
 620 483 620 483 592.5 459 c 128,-1,30
 565 435 565 435 532 423 c 1,31,-1
 612 353 l 1,32,33
 648 381 648 381 674.5 416.5 c 128,-1,34
 701 452 701 452 728 487 c 1,35,-1
 897 325 l 1,36,-1
 777 217 l 1,37,-1
 865 148 l 1,38,-1
 647 -5 l 1,39,-1
 579 86 l 1,0,1
343 608 m 0,40,41
 344 591 344 591 358.5 573 c 128,-1,42
 373 555 373 555 388 548 c 1,43,44
 397 554 397 554 406.5 561.5 c 128,-1,45
 416 569 416 569 423.5 579 c 128,-1,46
 431 589 431 589 435 599.5 c 128,-1,47
 439 610 439 610 438 622 c 0,48,49
 437 639 437 639 423 653.5 c 128,-1,50
 409 668 409 668 390 666 c 0,51,52
 367 664 367 664 354 647.5 c 128,-1,53
 341 631 341 631 343 608 c 0,40,41
299 318 m 1,54,55
 283 306 283 306 268.5 290.5 c 128,-1,56
 254 275 254 275 256 252 c 0,57,58
 258 220 258 220 281 207 c 128,-1,59
 304 194 304 194 334 197 c 0,60,61
 358 199 358 199 374.5 206.5 c 128,-1,62
 391 214 391 214 411 224 c 1,63,-1
 299 318 l 1,54,55
EndSplineSet
Validated: 33
EndChar

StartChar: quotesingle
Encoding: 39 39 8
Width: 261
GlyphClass: 2
Flags: W
LayerCount: 2
Fore
SplineSet
230 744 m 1,0,-1
 108 587 l 1,1,-1
 65 602 l 1,2,-1
 151 809 l 1,3,-1
 230 744 l 1,0,-1
EndSplineSet
Validated: 1
EndChar

StartChar: parenleft
Encoding: 40 40 9
Width: 413
GlyphClass: 2
Flags: W
LayerCount: 2
Fore
SplineSet
365 890 m 1,0,1
 291 777 291 777 253.5 681 c 128,-1,2
 216 585 216 585 200.5 515 c 128,-1,3
 185 445 185 445 184 406 c 2,4,-1
 183 367 l 1,5,6
 183 367 183 367 188 330 c 0,7,8
 194 292 194 292 212.5 232.5 c 128,-1,9
 231 173 231 173 269 101 c 128,-1,10
 307 29 307 29 373 -41 c 1,11,-1
 323 -77 l 1,12,13
 256 -20 256 -20 211.5 43 c 128,-1,14
 167 106 167 106 142 162 c 128,-1,15
 117 218 117 218 103.5 265.5 c 128,-1,16
 90 313 90 313 87 339 c 128,-1,17
 84 365 84 365 84 367 c 2,18,-1
 86 411 l 2,19,20
 87 455 87 455 107 531.5 c 128,-1,21
 127 608 127 608 174.5 711 c 128,-1,22
 222 814 222 814 313 933 c 1,23,-1
 365 890 l 1,0,1
EndSplineSet
Validated: 1
EndChar

StartChar: parenright
Encoding: 41 41 10
Width: 395
GlyphClass: 2
Flags: W
LayerCount: 2
Fore
SplineSet
48 -34 m 1,0,1
 122 80 122 80 159.5 175.5 c 128,-1,2
 197 271 197 271 212 341 c 128,-1,3
 227 411 227 411 228 450 c 2,4,-1
 229 489 l 1,5,6
 229 489 229 489 224 526 c 0,7,8
 219 564 219 564 200 623.5 c 128,-1,9
 181 683 181 683 143 755 c 128,-1,10
 105 827 105 827 40 897 c 1,11,-1
 90 933 l 1,12,13
 157 876 157 876 201.5 813 c 128,-1,14
 246 750 246 750 271 694 c 128,-1,15
 296 638 296 638 309.5 590.5 c 128,-1,16
 323 543 323 543 326 517.5 c 128,-1,17
 329 492 329 492 329 489 c 2,18,-1
 328 445 l 2,19,20
 326 401 326 401 306 325 c 128,-1,21
 286 249 286 249 238 145.5 c 128,-1,22
 190 42 190 42 99 -77 c 1,23,-1
 48 -34 l 1,0,1
EndSplineSet
Validated: 1
EndChar

StartChar: plus
Encoding: 43 43 11
Width: 790
GlyphClass: 2
Flags: W
LayerCount: 2
Fore
SplineSet
730 488 m 1,0,-1
 711 275 l 1,1,-1
 473 273 l 1,2,-1
 462 79 l 1,3,-1
 268 59 l 1,4,-1
 270 272 l 1,5,-1
 52 271 l 1,6,-1
 72 465 l 1,7,-1
 271 472 l 1,8,-1
 273 718 l 1,9,-1
 501 751 l 1,10,-1
 485 479 l 1,11,-1
 730 488 l 1,0,-1
EndSplineSet
Validated: 1
EndChar

StartChar: comma
Encoding: 44 44 12
Width: 242
GlyphClass: 2
Flags: W
LayerCount: 2
Fore
SplineSet
195 54 m 1,0,-1
 73 -103 l 1,1,-1
 30 -89 l 1,2,-1
 116 119 l 1,3,-1
 195 54 l 1,0,-1
EndSplineSet
Validated: 1
EndChar

StartChar: hyphen
Encoding: 45 45 13
Width: 466
GlyphClass: 2
Flags: W
LayerCount: 2
Fore
SplineSet
77 413 m 1,0,-1
 401 427 l 1,1,-1
 391 290 l 1,2,-1
 68 295 l 1,3,-1
 77 413 l 1,0,-1
EndSplineSet
Validated: 1
EndChar

StartChar: period
Encoding: 46 46 14
Width: 224
GlyphClass: 2
Flags: W
LayerCount: 2
Fore
SplineSet
41 32 m 1,0,-1
 48 119 l 1,1,-1
 156 113 l 1,2,-1
 135 5 l 1,3,-1
 41 32 l 1,0,-1
EndSplineSet
Validated: 1
EndChar

StartChar: slash
Encoding: 47 47 15
Width: 528
GlyphClass: 2
Flags: W
LayerCount: 2
Fore
SplineSet
418 859 m 1,0,-1
 511 835 l 1,1,-1
 100 -5 l 1,2,-1
 24 29 l 1,3,-1
 418 859 l 1,0,-1
EndSplineSet
Validated: 1
EndChar

StartChar: zero
Encoding: 48 48 16
Width: 692
GlyphClass: 2
Flags: W
LayerCount: 2
Fore
SplineSet
581 104 m 0,0,1
 553 67 553 67 512 37.5 c 128,-1,2
 471 8 471 8 422.5 -9 c 128,-1,3
 374 -26 374 -26 321.5 -28 c 128,-1,4
 269 -30 269 -30 219.5 -13 c 128,-1,5
 170 4 170 4 127.5 42.5 c 128,-1,6
 85 81 85 81 55 145 c 0,7,8
 22 217 22 217 12 289 c 128,-1,9
 2 361 2 361 11 429.5 c 128,-1,10
 20 498 20 498 46.5 560 c 128,-1,11
 73 622 73 622 112.5 673 c 128,-1,12
 152 724 152 724 202.5 763 c 128,-1,13
 253 802 253 802 311 823 c 0,14,15
 366 845 366 845 417 841.5 c 128,-1,16
 468 838 468 838 509 819.5 c 128,-1,17
 550 801 550 801 580.5 771.5 c 128,-1,18
 611 742 611 742 627 712 c 0,19,20
 657 655 657 655 674.5 581.5 c 128,-1,21
 692 508 692 508 690 428 c 128,-1,22
 688 348 688 348 662.5 265 c 128,-1,23
 637 182 637 182 581 104 c 0,0,1
436 521 m 0,24,25
 417 566 417 566 382.5 572 c 128,-1,26
 348 578 348 578 315.5 551.5 c 128,-1,27
 283 525 283 525 260 470.5 c 128,-1,28
 237 416 237 416 242 340 c 0,29,30
 246 269 246 269 269.5 239 c 128,-1,31
 293 209 293 209 323 209 c 0,32,33
 354 209 354 209 383 233.5 c 128,-1,34
 412 258 412 258 427 297 c 0,35,36
 442 337 442 337 448.5 370 c 128,-1,37
 455 403 455 403 454.5 431 c 128,-1,38
 454 459 454 459 448.5 481.5 c 128,-1,39
 443 504 443 504 436 521 c 0,24,25
EndSplineSet
Validated: 33
EndChar

StartChar: one
Encoding: 49 49 17
Width: 530
GlyphClass: 2
Flags: W
LayerCount: 2
Fore
SplineSet
97 500 m 1,0,-1
 -3 629 l 1,1,-1
 199 820 l 1,2,-1
 481 849 l 1,3,-1
 442 -13 l 1,4,-1
 191 19 l 1,5,-1
 188 577 l 1,6,-1
 97 500 l 1,0,-1
EndSplineSet
Validated: 1
EndChar

StartChar: two
Encoding: 50 50 18
Width: 690
GlyphClass: 2
Flags: W
LayerCount: 2
Fore
SplineSet
654 711 m 0,0,1
 696 636 696 636 684 571 c 128,-1,2
 672 506 672 506 626 449.5 c 128,-1,3
 580 393 580 393 512 344.5 c 128,-1,4
 444 296 444 296 376 253 c 1,5,-1
 653 285 l 1,6,-1
 647 26 l 1,7,-1
 40 -5 l 1,8,-1
 39 152 l 1,9,10
 32 178 32 178 46 208.5 c 128,-1,11
 60 239 60 239 88 272 c 128,-1,12
 116 305 116 305 152.5 339.5 c 128,-1,13
 189 374 189 374 228 407.5 c 128,-1,14
 267 441 267 441 303.5 472.5 c 128,-1,15
 340 504 340 504 366.5 530 c 128,-1,16
 393 556 393 556 406 576.5 c 128,-1,17
 419 597 419 597 411 608 c 0,18,19
 399 624 399 624 364 615 c 128,-1,20
 329 606 329 606 286.5 583 c 128,-1,21
 244 560 244 560 200.5 529.5 c 128,-1,22
 157 499 157 499 127 472 c 1,23,-1
 -10 670 l 1,24,25
 85 760 85 760 168 805.5 c 128,-1,26
 251 851 251 851 318 863.5 c 128,-1,27
 385 876 385 876 440 864.5 c 128,-1,28
 495 853 495 853 534 828.5 c 128,-1,29
 573 804 573 804 601 777 c 128,-1,30
 629 750 629 750 641 731 c 128,-1,31
 653 712 653 712 654 711 c 0,0,1
EndSplineSet
Validated: 33
EndChar

StartChar: three
Encoding: 51 51 19
Width: 653
GlyphClass: 2
Flags: W
LayerCount: 2
Fore
SplineSet
514 467 m 1,0,1
 582 427 582 427 612.5 377.5 c 128,-1,2
 643 328 643 328 649 280 c 128,-1,3
 655 232 655 232 647 190 c 128,-1,4
 639 148 639 148 628.5 125 c 128,-1,5
 618 102 618 102 617 100 c 2,6,7
 617 100 617 100 604 80 c 0,8,9
 590 60 590 60 559.5 36 c 128,-1,10
 529 12 529 12 480.5 -7 c 128,-1,11
 432 -26 432 -26 363 -23 c 128,-1,12
 294 -20 294 -20 202.5 12 c 128,-1,13
 111 44 111 44 -5 122 c 1,14,-1
 145 337 l 1,15,16
 219 284 219 284 265 267 c 128,-1,17
 311 250 311 250 336.5 251.5 c 128,-1,18
 362 253 362 253 372 262 c 2,19,-1
 381 272 l 2,20,21
 381 273 381 273 385 284 c 128,-1,22
 389 295 389 295 387 311.5 c 128,-1,23
 385 328 385 328 370 342 c 128,-1,24
 355 356 355 356 318.5 364 c 128,-1,25
 282 372 282 372 216 366 c 1,26,-1
 227 541 l 1,27,28
 297 535 297 535 326 544.5 c 128,-1,29
 355 554 355 554 362 569 c 128,-1,30
 369 584 369 584 362 596 c 2,31,-1
 356 609 l 1,32,-1
 346 620 l 2,33,34
 335 630 335 630 309 632.5 c 128,-1,35
 283 635 283 635 238.5 622 c 128,-1,36
 194 609 194 609 127 563 c 1,37,-1
 27 750 l 1,38,39
 127 821 127 821 213 844.5 c 128,-1,40
 299 868 299 868 363.5 863.5 c 128,-1,41
 428 859 428 859 474.5 839 c 128,-1,42
 521 819 521 819 543 801 c 128,-1,43
 565 783 565 783 567 781 c 0,44,45
 568 780 568 780 582.5 762 c 128,-1,46
 597 744 597 744 612 711.5 c 128,-1,47
 627 679 627 679 628.5 639 c 128,-1,48
 630 599 630 599 605 554 c 128,-1,49
 580 509 580 509 514 467 c 1,0,1
EndSplineSet
Validated: 33
EndChar

StartChar: four
Encoding: 52 52 20
Width: 617
GlyphClass: 2
Flags: W
LayerCount: 2
Fore
SplineSet
338 857 m 1,0,-1
 589 779 l 1,1,-1
 206 419 l 1,2,-1
 310 419 l 1,3,-1
 313 478 l 1,4,-1
 549 478 l 1,5,-1
 539 418 l 1,6,-1
 630 434 l 1,7,-1
 615 197 l 1,8,-1
 524 196 l 1,9,-1
 513 8 l 1,10,-1
 252 -3 l 1,11,-1
 270 194 l 1,12,-1
 16 174 l 1,13,-1
 -5 515 l 1,14,-1
 338 857 l 1,0,-1
EndSplineSet
Validated: 1
EndChar

StartChar: five
Encoding: 53 53 21
Width: 584
GlyphClass: 2
Flags: W
LayerCount: 2
Fore
SplineSet
224 552 m 1,0,1
 279 567 279 567 340.5 562 c 128,-1,2
 402 557 402 557 454.5 532.5 c 128,-1,3
 507 508 507 508 543 465 c 128,-1,4
 579 422 579 422 583 360 c 0,5,6
 583 359 583 359 583 338 c 0,7,8
 583 318 583 318 575 282 c 128,-1,9
 567 246 567 246 548.5 205 c 128,-1,10
 530 164 530 164 494 123.5 c 128,-1,11
 458 83 458 83 400 52.5 c 128,-1,12
 342 22 342 22 255 6.5 c 128,-1,13
 168 -9 168 -9 49 0 c 1,14,-1
 3 240 l 1,15,16
 83 223 83 223 138 227 c 128,-1,17
 193 231 193 231 225 248 c 128,-1,18
 257 265 257 265 275 286.5 c 128,-1,19
 293 308 293 308 298 323 c 128,-1,20
 303 338 303 338 303 339 c 0,21,22
 307 358 307 358 295.5 370 c 128,-1,23
 284 382 284 382 262 387.5 c 128,-1,24
 240 393 240 393 210.5 393.5 c 128,-1,25
 181 394 181 394 150.5 390.5 c 128,-1,26
 120 387 120 387 89 379 c 128,-1,27
 58 371 58 371 35 360 c 1,28,-1
 70 802 l 1,29,-1
 556 825 l 1,30,-1
 561 622 l 1,31,-1
 250 625 l 1,32,-1
 224 552 l 1,33,-1
 224 552 l 1,0,1
EndSplineSet
Validated: 37
EndChar

StartChar: six
Encoding: 54 54 22
Width: 574
GlyphClass: 2
Flags: W
LayerCount: 2
Fore
SplineSet
521 488 m 0,0,1
 583 420 583 420 591.5 350 c 128,-1,2
 600 280 600 280 571.5 216 c 128,-1,3
 543 152 543 152 486.5 100 c 128,-1,4
 430 48 430 48 363 18.5 c 128,-1,5
 296 -11 296 -11 227.5 -12.5 c 128,-1,6
 159 -14 159 -14 106 22 c 0,7,8
 105 23 105 23 86.5 39 c 128,-1,9
 68 55 68 55 42.5 90 c 128,-1,10
 17 125 17 125 -0.5 176 c 128,-1,11
 -18 227 -18 227 -16.5 297.5 c 128,-1,12
 -15 368 -15 368 18.5 454.5 c 128,-1,13
 52 541 52 541 130 647 c 128,-1,14
 208 753 208 753 343 874 c 1,15,-1
 500 723 l 1,16,17
 460 691 460 691 425.5 658 c 128,-1,18
 391 625 391 625 366 597 c 128,-1,19
 341 569 341 569 326 552 c 2,20,-1
 312 535 l 1,21,22
 345 552 345 552 376.5 552.5 c 128,-1,23
 408 553 408 553 433.5 544.5 c 128,-1,24
 459 536 459 536 479.5 522.5 c 128,-1,25
 500 509 500 509 510 499 c 128,-1,26
 520 489 520 489 521 488 c 0,0,1
321 217 m 0,27,28
 355 237 355 237 369.5 271 c 128,-1,29
 384 305 384 305 372 335 c 256,30,31
 360 365 360 365 326.5 371 c 128,-1,32
 293 377 293 377 259 357 c 128,-1,33
 225 337 225 337 210.5 303 c 128,-1,34
 196 269 196 269 208 240 c 0,35,36
 220 210 220 210 253 204 c 128,-1,37
 286 198 286 198 321 217 c 0,27,28
EndSplineSet
Validated: 33
EndChar

StartChar: seven
Encoding: 55 55 23
Width: 551
GlyphClass: 2
Flags: W
LayerCount: 2
Fore
SplineSet
573 845 m 1,0,-1
 482 531 l 1,1,-1
 549 534 l 1,2,-1
 516 347 l 1,3,-1
 443 344 l 1,4,-1
 359 -4 l 1,5,-1
 78 29 l 1,6,-1
 174 336 l 1,7,-1
 92 333 l 1,8,-1
 103 515 l 1,9,-1
 231 522 l 1,10,-1
 271 620 l 1,11,-1
 6 588 l 1,12,-1
 -8 813 l 1,13,-1
 573 845 l 1,0,-1
EndSplineSet
Validated: 1
EndChar

StartChar: eight
Encoding: 56 56 24
Width: 618
GlyphClass: 2
Flags: W
LayerCount: 2
Fore
SplineSet
567 431 m 0,0,1
 590 394 590 394 601.5 348 c 128,-1,2
 613 302 613 302 607 252 c 128,-1,3
 601 202 601 202 573.5 151 c 128,-1,4
 546 100 546 100 490 54 c 0,5,6
 463 31 463 31 425 15 c 128,-1,7
 387 -1 387 -1 343 -9.5 c 128,-1,8
 299 -18 299 -18 252.5 -17 c 128,-1,9
 206 -16 206 -16 163 -3.5 c 128,-1,10
 120 9 120 9 84 34.5 c 128,-1,11
 48 60 48 60 26 101 c 0,12,13
 1 147 1 147 -4 192.5 c 128,-1,14
 -9 238 -9 238 2.5 280 c 128,-1,15
 14 322 14 322 40.5 359 c 128,-1,16
 67 396 67 396 104 427 c 1,17,18
 82 446 82 446 70 472 c 0,19,20
 36 534 36 534 42 594.5 c 128,-1,21
 48 655 48 655 84 705.5 c 128,-1,22
 120 756 120 756 179.5 792.5 c 128,-1,23
 239 829 239 829 311 845 c 0,24,25
 357 854 357 854 397 850.5 c 128,-1,26
 437 847 437 847 469.5 835 c 128,-1,27
 502 823 502 823 525 805.5 c 128,-1,28
 548 788 548 788 559 770 c 0,29,30
 577 740 577 740 588 704.5 c 128,-1,31
 599 669 599 669 597.5 629.5 c 128,-1,32
 596 590 596 590 580 549 c 128,-1,33
 564 508 564 508 530 469 c 1,34,35
 554 453 554 453 567 431 c 0,0,1
365 646 m 0,36,37
 356 664 356 664 336.5 667.5 c 128,-1,38
 317 671 317 671 298.5 661 c 128,-1,39
 280 651 280 651 265 630 c 128,-1,40
 250 609 250 609 250 579 c 0,41,42
 250 550 250 550 262 537 c 128,-1,43
 274 524 274 524 290.5 523.5 c 128,-1,44
 307 523 307 523 324 532.5 c 128,-1,45
 341 542 341 542 351 557 c 0,46,47
 370 588 370 588 371 609 c 0,48,49
 371 632 371 632 365 646 c 0,36,37
349 189 m 0,50,51
 376 230 376 230 376 259 c 256,52,53
 376 288 376 288 367 307 c 0,54,55
 355 332 355 332 329.5 336.5 c 128,-1,56
 304 341 304 341 279 328 c 128,-1,57
 254 315 254 315 234.5 286.5 c 128,-1,58
 215 258 215 258 215 218 c 0,59,60
 215 180 215 180 231 163 c 128,-1,61
 247 146 247 146 269 145 c 128,-1,62
 291 144 291 144 313.5 156.5 c 128,-1,63
 336 169 336 169 349 189 c 0,50,51
EndSplineSet
Validated: 33
EndChar

StartChar: nine
Encoding: 57 57 25
Width: 581
GlyphClass: 2
Flags: W
LayerCount: 2
Fore
SplineSet
58 351 m 0,0,1
 11 401 11 401 -4 454.5 c 128,-1,2
 -19 508 -19 508 -11.5 558.5 c 128,-1,3
 -4 609 -4 609 24 655.5 c 128,-1,4
 52 702 52 702 92.5 740 c 128,-1,5
 133 778 133 778 182.5 805.5 c 128,-1,6
 232 833 232 833 283.5 845 c 128,-1,7
 335 857 335 857 384 851.5 c 128,-1,8
 433 846 433 846 472 818 c 0,9,10
 473 817 473 817 492 800.5 c 128,-1,11
 511 784 511 784 536 749.5 c 128,-1,12
 561 715 561 715 579 663.5 c 128,-1,13
 597 612 597 612 596 542 c 128,-1,14
 595 472 595 472 561 385.5 c 128,-1,15
 527 299 527 299 449.5 193 c 128,-1,16
 372 87 372 87 237 -35 c 1,17,-1
 79 118 l 1,18,19
 119 150 119 150 153.5 183 c 128,-1,20
 188 216 188 216 213.5 243 c 128,-1,21
 239 270 239 270 253 288 c 2,22,-1
 267 305 l 1,23,24
 234 288 234 288 203 287.5 c 128,-1,25
 172 287 172 287 146.5 295.5 c 128,-1,26
 121 304 121 304 100.5 317.5 c 128,-1,27
 80 331 80 331 69.5 340.5 c 128,-1,28
 59 350 59 350 58 351 c 0,0,1
259 623 m 0,29,30
 225 603 225 603 210 569 c 128,-1,31
 195 535 195 535 208 505 c 0,32,33
 220 476 220 476 253 469.5 c 128,-1,34
 286 463 286 463 319 483 c 0,35,36
 353 502 353 502 368.5 536.5 c 128,-1,37
 384 571 384 571 372 600 c 0,38,39
 359 630 359 630 326 636 c 128,-1,40
 293 642 293 642 259 623 c 0,29,30
EndSplineSet
Validated: 33
EndChar

StartChar: colon
Encoding: 58 58 26
Width: 182
GlyphClass: 2
Flags: W
LayerCount: 2
Fore
SplineSet
7 32 m 1,0,-1
 13 119 l 1,1,-1
 121 113 l 1,2,-1
 100 5 l 1,3,-1
 7 32 l 1,0,-1
47 384 m 1,4,-1
 54 480 l 1,5,-1
 173 473 l 1,6,-1
 151 354 l 1,7,-1
 47 384 l 1,4,-1
EndSplineSet
Validated: 1
EndChar

StartChar: semicolon
Encoding: 59 59 27
Width: 214
GlyphClass: 2
Flags: W
LayerCount: 2
Fore
SplineSet
153 54 m 1,0,-1
 31 -103 l 1,1,-1
 -12 -89 l 1,2,-1
 74 119 l 1,3,-1
 153 54 l 1,0,-1
87 199 m 1,4,-1
 93 286 l 1,5,-1
 201 280 l 1,6,-1
 181 172 l 1,7,-1
 87 199 l 1,4,-1
EndSplineSet
Validated: 1
EndChar

StartChar: equal
Encoding: 61 61 28
Width: 709
GlyphClass: 2
Flags: W
LayerCount: 2
Fore
SplineSet
23 218 m 1,0,-1
 681 242 l 1,1,-1
 662 29 l 1,2,-1
 3 25 l 1,3,-1
 23 218 l 1,0,-1
46 532 m 1,4,-1
 705 556 l 1,5,-1
 685 344 l 1,6,-1
 28 339 l 1,7,-1
 46 532 l 1,4,-1
EndSplineSet
Validated: 1
EndChar

StartChar: question
Encoding: 63 63 29
Width: 742
GlyphClass: 2
Flags: W
LayerCount: 2
Fore
SplineSet
367 -27 m 0,0,1
 335 -38 335 -38 304 -39 c 128,-1,2
 273 -40 273 -40 247.5 -33 c 128,-1,3
 222 -26 222 -26 203 -10.5 c 128,-1,4
 184 5 184 5 177 27 c 256,5,6
 170 49 170 49 175.5 72 c 128,-1,7
 181 95 181 95 197 116.5 c 128,-1,8
 213 138 213 138 238 155.5 c 128,-1,9
 263 173 263 173 295 184 c 256,10,11
 327 195 327 195 357.5 196.5 c 128,-1,12
 388 198 388 198 413.5 190.5 c 128,-1,13
 439 183 439 183 457.5 168 c 128,-1,14
 476 153 476 153 484 131 c 0,15,16
 491 109 491 109 485.5 85.5 c 128,-1,17
 480 62 480 62 464.5 40.5 c 128,-1,18
 449 19 449 19 424 1 c 128,-1,19
 399 -17 399 -17 367 -27 c 0,0,1
1 753 m 1,20,21
 104 851 104 851 193 902 c 128,-1,22
 282 953 282 953 353 969 c 128,-1,23
 424 985 424 985 481.5 976 c 128,-1,24
 539 967 539 967 580 944 c 128,-1,25
 621 921 621 921 648.5 894 c 128,-1,26
 676 867 676 867 688.5 848 c 128,-1,27
 701 829 701 829 702 828 c 0,28,29
 738 765 738 765 733.5 708.5 c 128,-1,30
 729 652 729 652 698 602 c 128,-1,31
 667 552 667 552 615.5 508 c 128,-1,32
 564 464 564 464 505.5 424 c 128,-1,33
 447 384 447 384 389.5 348.5 c 128,-1,34
 332 313 332 313 287 281 c 128,-1,35
 242 249 242 249 217.5 219 c 128,-1,36
 193 189 193 189 201 162 c 1,37,-1
 33 292 l 1,38,39
 24 318 24 318 39.5 347.5 c 128,-1,40
 55 377 55 377 86 408.5 c 128,-1,41
 117 440 117 440 159 472.5 c 128,-1,42
 201 505 201 505 245.5 536.5 c 128,-1,43
 290 568 290 568 332 597.5 c 128,-1,44
 374 627 374 627 405 651.5 c 128,-1,45
 436 676 436 676 451.5 695.5 c 128,-1,46
 467 715 467 715 459 726 c 256,47,48
 451 737 451 737 432.5 736 c 128,-1,49
 414 735 414 735 389 726 c 128,-1,50
 364 717 364 717 334.5 701.5 c 128,-1,51
 305 686 305 686 276.5 667 c 128,-1,52
 248 648 248 648 221.5 627.5 c 128,-1,53
 195 607 195 607 175 590 c 1,54,-1
 1 753 l 1,20,21
EndSplineSet
Validated: 33
EndChar

StartChar: at
Encoding: 64 64 30
Width: 800
GlyphClass: 2
Flags: W
LayerCount: 2
Fore
SplineSet
587 345 m 2,0,1
 585 336 585 336 582.5 323 c 128,-1,2
 580 310 580 310 580 299 c 0,3,4
 580 289 580 289 584 281.5 c 128,-1,5
 588 274 588 274 600 275 c 0,6,7
 614 276 614 276 631 292.5 c 128,-1,8
 648 309 648 309 663 335 c 128,-1,9
 678 361 678 361 688 394 c 128,-1,10
 698 427 698 427 700 462 c 0,11,12
 703 530 703 530 683 581 c 128,-1,13
 663 632 663 632 624 665.5 c 128,-1,14
 585 699 585 699 531 716.5 c 128,-1,15
 477 734 477 734 415 734 c 0,16,17
 346 734 346 734 290 711 c 128,-1,18
 234 688 234 688 194.5 646 c 128,-1,19
 155 604 155 604 133.5 545.5 c 128,-1,20
 112 487 112 487 112 417 c 0,21,22
 112 343 112 343 136 284 c 128,-1,23
 160 225 160 225 203 184.5 c 128,-1,24
 246 144 246 144 305 122.5 c 128,-1,25
 364 101 364 101 433 101 c 128,-1,26
 502 101 502 101 552 110.5 c 128,-1,27
 602 120 602 120 629 136 c 1,28,-1
 612 34 l 1,29,30
 583 19 583 19 567 10.5 c 128,-1,31
 551 2 551 2 534 -1.5 c 128,-1,32
 517 -5 517 -5 493 -6 c 128,-1,33
 469 -7 469 -7 425 -7 c 0,34,35
 337 -7 337 -7 260 24.5 c 128,-1,36
 183 56 183 56 126 113 c 128,-1,37
 69 170 69 170 36 247.5 c 128,-1,38
 3 325 3 325 3 417 c 0,39,40
 3 508 3 508 35.5 586 c 128,-1,41
 68 664 68 664 124 721 c 128,-1,42
 180 778 180 778 256 810.5 c 128,-1,43
 332 843 332 843 419 843 c 0,44,45
 491 843 491 843 555.5 820.5 c 128,-1,46
 620 798 620 798 674 749 c 0,47,48
 729 700 729 700 762.5 637.5 c 128,-1,49
 796 575 796 575 796 499 c 0,50,51
 796 431 796 431 778.5 372.5 c 128,-1,52
 761 314 761 314 728 271 c 0,53,54
 689 219 689 219 644.5 197 c 128,-1,55
 600 175 600 175 561 177 c 0,56,57
 537 178 537 178 518.5 195.5 c 128,-1,58
 500 213 500 213 494 239 c 1,59,60
 472 215 472 215 437.5 196 c 128,-1,61
 403 177 403 177 354 177 c 0,62,63
 318 177 318 177 285 193 c 128,-1,64
 252 209 252 209 226.5 235.5 c 128,-1,65
 201 262 201 262 186 298.5 c 128,-1,66
 171 335 171 335 171 376 c 0,67,68
 171 425 171 425 187 471.5 c 128,-1,69
 203 518 203 518 231.5 554.5 c 128,-1,70
 260 591 260 591 301 612.5 c 128,-1,71
 342 634 342 634 393 634 c 0,72,73
 435 634 435 634 468 622 c 128,-1,74
 501 610 501 610 525 575 c 1,75,-1
 534 610 l 1,76,-1
 641 610 l 1,77,-1
 587 345 l 2,0,1
381 292 m 0,78,79
 406 292 406 292 424 302.5 c 128,-1,80
 442 313 442 313 454.5 330.5 c 128,-1,81
 467 348 467 348 473.5 368.5 c 128,-1,82
 480 389 480 389 482 410 c 0,83,84
 488 457 488 457 466 485.5 c 128,-1,85
 444 514 444 514 404 514 c 0,86,87
 380 514 380 514 361 503.5 c 128,-1,88
 342 493 342 493 327.5 475 c 128,-1,89
 313 457 313 457 305.5 435 c 128,-1,90
 298 413 298 413 298 391 c 0,91,92
 298 372 298 372 303.5 354 c 128,-1,93
 309 336 309 336 319.5 322 c 128,-1,94
 330 308 330 308 345.5 300 c 128,-1,95
 361 292 361 292 381 292 c 0,78,79
EndSplineSet
Validated: 33
EndChar

StartChar: A
Encoding: 65 65 31
Width: 870
GlyphClass: 2
Flags: W
LayerCount: 2
Fore
SplineSet
404 894 m 1,0,-1
 922 108 l 1,1,-1
 600 -14 l 1,2,-1
 514 129 l 1,3,-1
 299 122 l 1,4,-1
 257 -32 l 1,5,-1
 -51 69 l 1,6,-1
 404 894 l 1,0,-1
352 285 m 1,7,-1
 474 306 l 1,8,-1
 423 445 l 1,9,-1
 352 285 l 1,7,-1
EndSplineSet
Validated: 1
EndChar

StartChar: B
Encoding: 66 66 32
Width: 705
GlyphClass: 2
Flags: W
LayerCount: 2
Fore
SplineSet
33 800 m 1,0,1
 177 828 177 828 271 837 c 128,-1,2
 365 846 365 846 419 845.5 c 128,-1,3
 473 845 473 845 494 840 c 2,4,-1
 516 836 l 1,5,6
 516 836 516 836 537 826 c 256,7,8
 558 816 558 816 584.5 797 c 128,-1,9
 611 778 611 778 635 749 c 128,-1,10
 659 720 659 720 665 681.5 c 128,-1,11
 671 643 671 643 650 595 c 128,-1,12
 629 547 629 547 566 488 c 1,13,14
 652 443 652 443 688.5 391.5 c 128,-1,15
 725 340 725 340 728.5 290 c 128,-1,16
 732 240 732 240 713 193.5 c 128,-1,17
 694 147 694 147 669 112.5 c 128,-1,18
 644 78 644 78 623 57 c 2,19,-1
 602 36 l 2,20,21
 601 35 601 35 588 27 c 128,-1,22
 575 19 575 19 538 8.5 c 128,-1,23
 501 -2 501 -2 438.5 -9 c 128,-1,24
 376 -16 376 -16 276.5 -15.5 c 128,-1,25
 177 -15 177 -15 40 0 c 1,26,-1
 33 800 l 1,0,1
401 570 m 1,27,-1
 402 582 l 2,28,29
 402 594 402 594 394.5 604.5 c 128,-1,30
 387 615 387 615 366.5 619 c 128,-1,31
 346 623 346 623 305 606 c 1,32,-1
 301 499 l 1,33,34
 333 494 333 494 353 504.5 c 128,-1,35
 373 515 373 515 383.5 530 c 128,-1,36
 394 545 394 545 396 552 c 2,37,-1
 401 570 l 1,27,-1
456 282 m 2,38,39
 456 283 456 283 454.5 293 c 128,-1,40
 453 303 453 303 445 317 c 128,-1,41
 437 331 437 331 419.5 339 c 128,-1,42
 402 347 402 347 371 344 c 128,-1,43
 340 341 340 341 291 317 c 1,44,-1
 304 210 l 1,45,46
 360 205 360 205 391.5 215 c 128,-1,47
 423 225 423 225 437 240 c 128,-1,48
 451 255 451 255 452 262 c 2,49,-1
 456 282 l 2,38,39
EndSplineSet
Validated: 33
EndChar

StartChar: C
Encoding: 67 67 33
Width: 765
GlyphClass: 2
Flags: W
LayerCount: 2
Fore
SplineSet
735 690 m 1,0,-1
 556 470 l 1,1,2
 501 528 501 528 459.5 544.5 c 128,-1,3
 418 561 418 561 387.5 552.5 c 128,-1,4
 357 544 357 544 336.5 516.5 c 128,-1,5
 316 489 316 489 304 461 c 128,-1,6
 292 433 292 433 287 410 c 2,7,-1
 282 388 l 2,8,9
 282 386 282 386 286.5 361.5 c 128,-1,10
 291 337 291 337 308 306.5 c 128,-1,11
 325 276 325 276 356 262 c 128,-1,12
 387 248 387 248 441 266.5 c 128,-1,13
 495 285 495 285 573 357 c 1,14,-1
 773 144 l 1,15,16
 758 114 758 114 720 83.5 c 128,-1,17
 682 53 682 53 630 27.5 c 128,-1,18
 578 2 578 2 515.5 -15 c 128,-1,19
 453 -32 453 -32 388 -34.5 c 128,-1,20
 323 -37 323 -37 260 -20.5 c 128,-1,21
 197 -4 197 -4 143 37 c 0,22,23
 66 96 66 96 29.5 168 c 128,-1,24
 -7 240 -7 240 -14.5 315.5 c 128,-1,25
 -22 391 -22 391 -3 467 c 128,-1,26
 16 543 16 543 50.5 609.5 c 128,-1,27
 85 676 85 676 131.5 729 c 128,-1,28
 178 782 178 782 226 814 c 2,29,30
 226 814 226 814 246 826 c 0,31,32
 267 837 267 837 303 847.5 c 128,-1,33
 339 858 339 858 387.5 862.5 c 128,-1,34
 436 867 436 867 493 853.5 c 128,-1,35
 550 840 550 840 612 802 c 128,-1,36
 674 764 674 764 735 690 c 1,0,-1
EndSplineSet
Validated: 33
EndChar

StartChar: D
Encoding: 68 68 34
Width: 737
GlyphClass: 2
Flags: W
LayerCount: 2
Fore
SplineSet
43 801 m 1,0,1
 228 837 228 837 317 848 c 2,2,-1
 406 858 l 2,3,4
 492 871 492 871 558.5 851 c 128,-1,5
 625 831 625 831 671 787 c 128,-1,6
 717 743 717 743 741.5 679.5 c 128,-1,7
 766 616 766 616 769 543.5 c 128,-1,8
 772 471 772 471 753 393.5 c 128,-1,9
 734 316 734 316 691.5 244 c 128,-1,10
 649 172 649 172 583 110 c 128,-1,11
 517 48 517 48 427 6 c 1,12,13
 427 6 427 6 409 0 c 0,14,15
 391 -5 391 -5 348.5 -9.5 c 128,-1,16
 306 -14 306 -14 235.5 -13 c 128,-1,17
 165 -12 165 -12 59 1 c 1,18,-1
 43 801 l 1,0,1
307 233 m 1,19,20
 365 246 365 246 401.5 273.5 c 128,-1,21
 438 301 438 301 456.5 330 c 128,-1,22
 475 359 475 359 482.5 388 c 128,-1,23
 490 417 490 417 490 433 c 0,24,25
 490 450 490 450 490 452 c 128,-1,26
 490 454 490 454 487 471.5 c 128,-1,27
 484 489 484 489 474 514 c 128,-1,28
 464 539 464 539 445.5 554.5 c 128,-1,29
 427 570 427 570 395.5 567 c 128,-1,30
 364 564 364 564 317 527 c 1,31,-1
 307 233 l 1,19,20
EndSplineSet
Validated: 33
EndChar

StartChar: E
Encoding: 69 69 35
Width: 606
GlyphClass: 2
Flags: W
LayerCount: 2
Fore
SplineSet
36 793 m 1,0,-1
 601 835 l 1,1,-1
 569 575 l 1,2,-1
 312 564 l 1,3,-1
 311 515 l 1,4,-1
 498 528 l 1,5,-1
 476 349 l 1,6,-1
 305 336 l 1,7,-1
 303 280 l 1,8,-1
 596 307 l 1,9,-1
 591 25 l 1,10,-1
 43 -5 l 1,11,-1
 36 793 l 1,0,-1
EndSplineSet
Validated: 1
EndChar

StartChar: F
Encoding: 70 70 36
Width: 559
GlyphClass: 2
Flags: W
LayerCount: 2
Fore
SplineSet
38 794 m 1,0,-1
 604 835 l 1,1,-1
 572 568 l 1,2,-1
 314 558 l 1,3,-1
 303 478 l 1,4,-1
 518 492 l 1,5,-1
 532 276 l 1,6,-1
 316 263 l 1,7,-1
 306 1 l 1,8,-1
 45 -5 l 1,9,-1
 38 794 l 1,0,-1
EndSplineSet
Validated: 1
EndChar

StartChar: G
Encoding: 71 71 37
Width: 834
GlyphClass: 2
Flags: W
LayerCount: 2
Fore
SplineSet
601 508 m 1,0,1
 587 543 587 543 555.5 558.5 c 128,-1,2
 524 574 524 574 485 574 c 0,3,4
 447 574 447 574 406.5 558 c 128,-1,5
 366 542 366 542 332 512 c 128,-1,6
 298 482 298 482 276 439 c 128,-1,7
 254 396 254 396 254 342 c 0,8,9
 253 292 253 292 270 261.5 c 128,-1,10
 287 231 287 231 313 218 c 128,-1,11
 339 205 339 205 370.5 206.5 c 128,-1,12
 402 208 402 208 433 222 c 128,-1,13
 464 236 464 236 489 259 c 128,-1,14
 514 282 514 282 526 311 c 1,15,-1
 381 284 l 1,16,-1
 397 449 l 1,17,-1
 844 505 l 1,18,19
 853 440 853 440 838 377 c 128,-1,20
 823 314 823 314 797 262 c 128,-1,21
 771 210 771 210 742.5 168.5 c 128,-1,22
 714 127 714 127 695 105.5 c 128,-1,23
 676 84 676 84 674 82 c 0,24,25
 637 45 637 45 584 17.5 c 128,-1,26
 531 -10 531 -10 471 -24.5 c 128,-1,27
 411 -39 411 -39 346.5 -37.5 c 128,-1,28
 282 -36 282 -36 223.5 -15 c 128,-1,29
 165 6 165 6 115.5 49 c 128,-1,30
 66 92 66 92 35 161 c 0,31,32
 0 238 0 238 -5 314 c 128,-1,33
 -10 390 -10 390 7.5 461 c 128,-1,34
 25 532 25 532 63 595.5 c 128,-1,35
 101 659 101 659 155 710 c 128,-1,36
 209 761 209 761 275.5 797 c 128,-1,37
 342 833 342 833 416 848 c 0,38,39
 418 848 418 848 438 850.5 c 128,-1,40
 458 853 458 853 496 851 c 128,-1,41
 534 849 534 849 581 836 c 128,-1,42
 628 823 628 823 683 793 c 128,-1,43
 738 763 738 763 793 710 c 1,44,-1
 601 508 l 1,0,1
EndSplineSet
Validated: 33
EndChar

StartChar: H
Encoding: 72 72 38
Width: 738
GlyphClass: 2
Flags: W
LayerCount: 2
Fore
SplineSet
13 806 m 1,0,-1
 312 835 l 1,1,-1
 276 459 l 1,2,-1
 428 470 l 1,3,-1
 440 827 l 1,4,-1
 732 842 l 1,5,-1
 649 51 l 1,6,-1
 412 23 l 1,7,-1
 425 248 l 1,8,-1
 317 232 l 1,9,-1
 307 -3 l 1,10,-1
 52 -8 l 1,11,-1
 13 806 l 1,0,-1
EndSplineSet
Validated: 1
EndChar

StartChar: I
Encoding: 73 73 39
Width: 379
GlyphClass: 2
Flags: W
LayerCount: 2
Fore
SplineSet
350 842 m 1,0,-1
 308 13 l 1,1,-1
 39 -17 l 1,2,-1
 49 806 l 1,3,-1
 350 842 l 1,0,-1
EndSplineSet
Validated: 1
EndChar

StartChar: J
Encoding: 74 74 40
Width: 594
GlyphClass: 2
Flags: W
LayerCount: 2
Fore
SplineSet
549 846 m 1,0,1
 555 682 555 682 557.5 569 c 128,-1,2
 560 456 560 456 560.5 389 c 128,-1,3
 561 322 561 322 559.5 285.5 c 128,-1,4
 558 249 558 249 557 238 c 2,5,-1
 556 227 l 2,6,7
 550 201 550 201 535 167.5 c 128,-1,8
 520 134 520 134 495 100.5 c 128,-1,9
 470 67 470 67 434 37 c 128,-1,10
 398 7 398 7 350 -9.5 c 128,-1,11
 302 -26 302 -26 241.5 -25 c 128,-1,12
 181 -24 181 -24 108 4 c 1,13,14
 108 4 108 4 86 16 c 0,15,16
 65 28 65 28 41 59 c 128,-1,17
 17 90 17 90 2 144.5 c 128,-1,18
 -13 199 -13 199 -2 284 c 1,19,-1
 223 355 l 1,20,21
 213 302 213 302 213.5 271 c 128,-1,22
 214 240 214 240 219.5 226 c 128,-1,23
 225 212 225 212 233.5 209 c 128,-1,24
 242 206 242 206 247.5 208 c 128,-1,25
 253 210 253 210 254 210 c 0,26,27
 255 211 255 211 264 219 c 128,-1,28
 273 227 273 227 282.5 248.5 c 128,-1,29
 292 270 292 270 290 304 c 2,30,-1
 256 795 l 1,31,-1
 549 846 l 1,0,1
EndSplineSet
Validated: 33
EndChar

StartChar: K
Encoding: 75 75 41
Width: 651
GlyphClass: 2
Flags: W
LayerCount: 2
Fore
SplineSet
694 648 m 1,0,-1
 409 383 l 1,1,-1
 660 171 l 1,2,-1
 517 -44 l 1,3,-1
 318 143 l 1,4,-1
 316 13 l 1,5,-1
 48 -17 l 1,6,-1
 32 806 l 1,7,-1
 332 842 l 1,8,-1
 329 656 l 1,9,-1
 494 885 l 1,10,-1
 694 648 l 1,0,-1
EndSplineSet
Validated: 1
EndChar

StartChar: L
Encoding: 76 76 42
Width: 573
GlyphClass: 2
Flags: W
LayerCount: 2
Fore
SplineSet
41 801 m 1,0,-1
 349 844 l 1,1,-1
 323 267 l 1,2,-1
 573 319 l 1,3,-1
 586 32 l 1,4,-1
 48 -23 l 1,5,-1
 41 801 l 1,0,-1
EndSplineSet
Validated: 1
EndChar

StartChar: M
Encoding: 77 77 43
Width: 904
GlyphClass: 2
Flags: W
LayerCount: 2
Fore
SplineSet
216 886 m 1,0,-1
 467 569 l 1,1,-1
 709 819 l 1,2,-1
 959 129 l 1,3,-1
 713 -73 l 1,4,-1
 601 260 l 1,5,-1
 462 16 l 1,6,-1
 294 274 l 1,7,-1
 195 -29 l 1,8,-1
 -44 126 l 1,9,-1
 216 886 l 1,0,-1
EndSplineSet
Validated: 1
EndChar

StartChar: N
Encoding: 78 78 44
Width: 780
GlyphClass: 2
Flags: W
LayerCount: 2
Fore
SplineSet
52 835 m 1,0,-1
 443 510 l 1,1,-1
 453 849 l 1,2,-1
 758 828 l 1,3,-1
 711 47 l 1,4,-1
 318 243 l 1,5,-1
 333 1 l 1,6,-1
 39 -17 l 1,7,-1
 52 835 l 1,0,-1
EndSplineSet
Validated: 1
EndChar

StartChar: O
Encoding: 79 79 45
Width: 782
GlyphClass: 2
Flags: W
LayerCount: 2
Fore
SplineSet
654 84 m 0,0,1
 617 47 617 47 564.5 19.5 c 128,-1,2
 512 -8 512 -8 451.5 -22.5 c 128,-1,3
 391 -37 391 -37 327 -36 c 128,-1,4
 263 -35 263 -35 204 -14 c 128,-1,5
 145 7 145 7 96 50 c 128,-1,6
 47 93 47 93 16 162 c 0,7,8
 -19 239 -19 239 -25.5 314.5 c 128,-1,9
 -32 390 -32 390 -15.5 460 c 128,-1,10
 1 530 1 530 38 592.5 c 128,-1,11
 75 655 75 655 127 706 c 128,-1,12
 179 757 179 757 244 793.5 c 128,-1,13
 309 830 309 830 383 850 c 0,14,15
 453 867 453 867 513.5 860.5 c 128,-1,16
 574 854 574 854 623.5 831.5 c 128,-1,17
 673 809 673 809 707 776.5 c 128,-1,18
 741 744 741 744 759 712 c 0,19,20
 791 651 791 651 806.5 573.5 c 128,-1,21
 822 496 822 496 813.5 413 c 128,-1,22
 805 330 805 330 767 245.5 c 128,-1,23
 729 161 729 161 654 84 c 0,0,1
518 520 m 0,24,25
 503 553 503 553 474.5 567.5 c 128,-1,26
 446 582 446 582 413.5 580 c 128,-1,27
 381 578 381 578 347 561 c 128,-1,28
 313 544 313 544 285.5 513.5 c 128,-1,29
 258 483 258 483 240 440 c 128,-1,30
 222 397 222 397 222 345 c 0,31,32
 221 296 221 296 236 265 c 128,-1,33
 251 234 251 234 274 219.5 c 128,-1,34
 297 205 297 205 326.5 203.5 c 128,-1,35
 356 202 356 202 385.5 212 c 128,-1,36
 415 222 415 222 440.5 242 c 128,-1,37
 466 262 466 262 483 289 c 0,38,39
 509 329 509 329 520.5 363 c 128,-1,40
 532 397 532 397 535 426 c 128,-1,41
 538 455 538 455 532.5 478.5 c 128,-1,42
 527 502 527 502 518 520 c 0,24,25
EndSplineSet
Validated: 33
EndChar

StartChar: P
Encoding: 80 80 46
Width: 655
GlyphClass: 2
Flags: W
LayerCount: 2
Fore
SplineSet
416 841 m 2,0,1
 502 850 502 850 562 829 c 128,-1,2
 622 808 622 808 657 767 c 128,-1,3
 692 726 692 726 704.5 669 c 128,-1,4
 717 612 717 612 706.5 550 c 128,-1,5
 696 488 696 488 665.5 425 c 128,-1,6
 635 362 635 362 584.5 308.5 c 128,-1,7
 534 255 534 255 464.5 215.5 c 128,-1,8
 395 176 395 176 309 160 c 1,9,-1
 305 -25 l 1,10,-1
 57 1 l 1,11,-1
 41 801 l 1,12,13
 236 824 236 824 281 828 c 2,14,-1
 416 841 l 2,0,1
432 522 m 0,15,16
 432 523 432 523 433 533.5 c 128,-1,17
 434 544 434 544 430 558 c 128,-1,18
 426 572 426 572 412.5 582 c 128,-1,19
 399 592 399 592 370 591.5 c 128,-1,20
 341 591 341 591 292 571 c 1,21,-1
 282 408 l 1,22,23
 319 416 319 416 346 431 c 128,-1,24
 373 446 373 446 391.5 463.5 c 128,-1,25
 410 481 410 481 420 497 c 128,-1,26
 430 513 430 513 432 522 c 0,15,16
EndSplineSet
Validated: 33
EndChar

StartChar: Q
Encoding: 81 81 47
Width: 792
GlyphClass: 2
Flags: W
LayerCount: 2
Fore
SplineSet
756 712 m 0,0,1
 786 655 786 655 801.5 584 c 128,-1,2
 817 513 817 513 812.5 436.5 c 128,-1,3
 808 360 808 360 779.5 281.5 c 128,-1,4
 751 203 751 203 691 129 c 1,5,-1
 738 83 l 1,6,-1
 587 -68 l 1,7,-1
 534 5 l 1,8,9
 469 -24 469 -24 393 -33 c 128,-1,10
 317 -42 317 -42 245 -26 c 128,-1,11
 173 -10 173 -10 111 35.5 c 128,-1,12
 49 81 49 81 12 162 c 0,13,14
 -39 278 -39 278 -29 389 c 128,-1,15
 -19 500 -19 500 35 593 c 128,-1,16
 89 686 89 686 179.5 753.5 c 128,-1,17
 270 821 270 821 380 850 c 0,18,19
 450 867 450 867 510.5 860.5 c 128,-1,20
 571 854 571 854 620.5 831.5 c 128,-1,21
 670 809 670 809 704.5 777 c 128,-1,22
 739 745 739 745 756 712 c 0,0,1
219 345 m 0,23,24
 219 296 219 296 233.5 265 c 128,-1,25
 248 234 248 234 271 219 c 128,-1,26
 294 204 294 204 323 203 c 128,-1,27
 352 202 352 202 382 212 c 1,28,-1
 358 244 l 1,29,-1
 444 370 l 1,30,-1
 498 317 l 1,31,32
 516 351 516 351 524 381 c 128,-1,33
 532 411 532 411 533 436.5 c 128,-1,34
 534 462 534 462 528.5 482.5 c 128,-1,35
 523 503 523 503 515 520 c 0,36,37
 500 553 500 553 471.5 567.5 c 128,-1,38
 443 582 443 582 410.5 580 c 128,-1,39
 378 578 378 578 344 561 c 128,-1,40
 310 544 310 544 282.5 513.5 c 128,-1,41
 255 483 255 483 237 440 c 128,-1,42
 219 397 219 397 219 345 c 0,23,24
EndSplineSet
Validated: 33
EndChar

StartChar: R
Encoding: 82 82 48
Width: 686
GlyphClass: 2
Flags: W
LayerCount: 2
Fore
SplineSet
709 146 m 1,0,-1
 550 -33 l 1,1,-1
 301 151 l 1,2,-1
 298 -25 l 1,3,-1
 50 1 l 1,4,-1
 34 801 l 1,5,6
 229 824 229 824 319 832 c 2,7,-1
 409 841 l 2,8,9
 505 851 505 851 569 826.5 c 128,-1,10
 633 802 633 802 666 755.5 c 128,-1,11
 699 709 699 709 704 647 c 128,-1,12
 709 585 709 585 686.5 520 c 128,-1,13
 664 455 664 455 615 393.5 c 128,-1,14
 566 332 566 332 495 287 c 1,15,-1
 709 146 l 1,0,-1
286 571 m 1,16,-1
 275 408 l 1,17,18
 312 416 312 416 339.5 431 c 128,-1,19
 367 446 367 446 385 463.5 c 128,-1,20
 403 481 403 481 413 497 c 128,-1,21
 423 513 423 513 425 522 c 0,22,23
 425 523 425 523 426 533.5 c 128,-1,24
 427 544 427 544 423.5 558 c 128,-1,25
 420 572 420 572 406 582 c 128,-1,26
 392 592 392 592 363.5 591 c 128,-1,27
 335 590 335 590 286 571 c 1,16,-1
EndSplineSet
Validated: 33
EndChar

StartChar: S
Encoding: 83 83 49
Width: 605
GlyphClass: 2
Flags: W
LayerCount: 2
Fore
SplineSet
432 514 m 0,0,1
 464 500 464 500 497 481.5 c 128,-1,2
 530 463 530 463 557.5 436.5 c 128,-1,3
 585 410 585 410 603 372.5 c 128,-1,4
 621 335 621 335 623 284 c 0,5,6
 626 211 626 211 599 155 c 128,-1,7
 572 99 572 99 523.5 61 c 128,-1,8
 475 23 475 23 407.5 2 c 128,-1,9
 340 -19 340 -19 262 -23 c 0,10,11
 226 -24 226 -24 188.5 -19 c 128,-1,12
 151 -14 151 -14 114 -5 c 128,-1,13
 77 4 77 4 42 17 c 128,-1,14
 7 30 7 30 -24 44 c 1,15,-1
 54 263 l 1,16,17
 69 257 69 257 91 247.5 c 128,-1,18
 113 238 113 238 137.5 229.5 c 128,-1,19
 162 221 162 221 188.5 215 c 128,-1,20
 215 209 215 209 241 210 c 0,21,22
 279 212 279 212 305 223 c 128,-1,23
 331 234 331 234 330 261 c 0,24,25
 329 278 329 278 312 287.5 c 128,-1,26
 295 297 295 297 271 306 c 0,27,28
 256 310 256 310 231 317.5 c 128,-1,29
 206 325 206 325 177 337 c 128,-1,30
 148 349 148 349 119 366.5 c 128,-1,31
 90 384 90 384 66 408.5 c 128,-1,32
 42 433 42 433 26 465.5 c 128,-1,33
 10 498 10 498 9 540 c 0,34,35
 7 612 7 612 33.5 667.5 c 128,-1,36
 60 723 60 723 106.5 762.5 c 128,-1,37
 153 802 153 802 214 823 c 128,-1,38
 275 844 275 844 345 847 c 0,39,40
 410 850 410 850 473.5 840 c 128,-1,41
 537 830 537 830 592 808 c 1,42,-1
 531 571 l 1,43,44
 490 588 490 588 456.5 600 c 128,-1,45
 423 612 423 612 378 618 c 0,46,47
 365 620 365 620 342 621 c 0,48,49
 320 621 320 621 299.5 616 c 128,-1,50
 279 611 279 611 263.5 601 c 128,-1,51
 248 591 248 591 247 572 c 0,52,53
 247 564 247 564 254.5 559.5 c 128,-1,54
 262 555 262 555 273 552.5 c 128,-1,55
 284 550 284 550 295 548.5 c 128,-1,56
 306 547 306 547 313 546 c 0,57,58
 343 540 343 540 360 536 c 2,59,-1
 377 531 l 2,60,61
 405 525 405 525 432 514 c 0,0,1
EndSplineSet
Validated: 33
EndChar

StartChar: T
Encoding: 84 84 50
Width: 533
GlyphClass: 2
Flags: W
LayerCount: 2
Fore
SplineSet
530 609 m 1,0,-1
 408 595 l 1,1,-1
 408 18 l 1,2,-1
 117 -17 l 1,3,-1
 132 567 l 1,4,-1
 -3 554 l 1,5,-1
 4 806 l 1,6,-1
 557 853 l 1,7,-1
 530 609 l 1,0,-1
EndSplineSet
Validated: 1
EndChar

StartChar: U
Encoding: 85 85 51
Width: 659
GlyphClass: 2
Flags: W
LayerCount: 2
Fore
SplineSet
633 809 m 1,0,1
 639 652 639 652 641.5 557 c 128,-1,2
 644 462 644 462 645 410.5 c 128,-1,3
 646 359 646 359 646 343 c 2,4,5
 646 343 646 343 646 327 c 0,6,7
 647 265 647 265 637 207.5 c 128,-1,8
 627 150 627 150 599.5 103 c 128,-1,9
 572 56 572 56 525.5 23 c 128,-1,10
 479 -10 479 -10 410 -24 c 0,11,12
 304 -44 304 -44 227 -27.5 c 128,-1,13
 150 -11 150 -11 100 34 c 128,-1,14
 50 79 50 79 27.5 148 c 128,-1,15
 5 217 5 217 7 300 c 0,16,17
 7 301 7 301 7 310 c 0,18,19
 7 320 7 320 8 353 c 128,-1,20
 9 386 9 386 10 445.5 c 128,-1,21
 11 505 11 505 14 604 c 128,-1,22
 17 703 17 703 22 846 c 1,23,-1
 314 795 l 1,24,-1
 288 313 l 2,25,26
 284 286 284 286 288.5 266 c 128,-1,27
 293 246 293 246 298 236.5 c 128,-1,28
 303 227 303 227 304 226 c 0,29,30
 314 215 314 215 327.5 213 c 128,-1,31
 341 211 341 211 357 238 c 0,32,33
 358 239 358 239 363.5 250.5 c 128,-1,34
 369 262 369 262 374 292 c 128,-1,35
 379 322 379 322 377 365 c 2,36,-1
 355 758 l 1,37,-1
 633 809 l 1,0,1
EndSplineSet
Validated: 33
EndChar

StartChar: V
Encoding: 86 86 52
Width: 765
GlyphClass: 2
Flags: W
LayerCount: 2
Fore
SplineSet
243 856 m 1,0,-1
 393 496 l 1,1,-1
 568 848 l 1,2,-1
 823 700 l 1,3,-1
 373 -73 l 1,4,-1
 -49 684 l 1,5,-1
 243 856 l 1,0,-1
EndSplineSet
Validated: 1
EndChar

StartChar: W
Encoding: 87 87 53
Width: 1008
GlyphClass: 2
Flags: W
LayerCount: 2
Fore
SplineSet
-43 746 m 1,0,-1
 236 867 l 1,1,-1
 344 532 l 1,2,-1
 529 817 l 1,3,-1
 684 549 l 1,4,-1
 807 915 l 1,5,-1
 1042 746 l 1,6,-1
 788 -6 l 1,7,-1
 534 255 l 1,8,-1
 270 -77 l 1,9,-1
 -43 746 l 1,0,-1
EndSplineSet
Validated: 1
EndChar

StartChar: X
Encoding: 88 88 54
Width: 825
GlyphClass: 2
Flags: W
LayerCount: 2
Fore
SplineSet
218 857 m 1,0,-1
 419 651 l 1,1,-1
 608 857 l 1,2,-1
 838 685 l 1,3,-1
 595 433 l 1,4,-1
 843 180 l 1,5,-1
 647 -30 l 1,6,-1
 415 262 l 1,7,-1
 228 -39 l 1,8,-1
 -5 157 l 1,9,-1
 228 419 l 1,10,-1
 -10 685 l 1,11,-1
 218 857 l 1,0,-1
EndSplineSet
Validated: 1
EndChar

StartChar: Y
Encoding: 89 89 55
Width: 717
GlyphClass: 2
Flags: W
LayerCount: 2
Fore
SplineSet
159 852 m 1,0,-1
 340 567 l 1,1,-1
 537 852 l 1,2,-1
 787 680 l 1,3,-1
 475 276 l 1,4,-1
 472 -18 l 1,5,-1
 197 18 l 1,6,-1
 197 319 l 1,7,-1
 -61 680 l 1,8,-1
 159 852 l 1,0,-1
EndSplineSet
Validated: 1
EndChar

StartChar: Z
Encoding: 90 90 56
Width: 836
GlyphClass: 2
Flags: W
LayerCount: 2
Fore
SplineSet
34 -32 m 1,0,-1
 283 571 l 1,1,-1
 -16 552 l 1,2,-1
 41 820 l 1,3,-1
 802 845 l 1,4,-1
 455 268 l 1,5,-1
 840 315 l 1,6,-1
 788 17 l 1,7,-1
 34 -32 l 1,0,-1
EndSplineSet
Validated: 1
EndChar

StartChar: underscore
Encoding: 95 95 57
Width: 466
GlyphClass: 2
Flags: W
LayerCount: 2
Fore
SplineSet
48 -102 m 1,0,-1
 409 -102 l 1,1,-1
 425 -173 l 1,2,-1
 51 -169 l 1,3,-1
 48 -102 l 1,0,-1
EndSplineSet
Validated: 1
EndChar

StartChar: a
Encoding: 97 97 58
Width: 617
GlyphClass: 2
Flags: W
LayerCount: 2
Fore
SplineSet
357 70 m 1,0,-1
 355 70 l 1,1,2
 327 31 327 31 285 15.5 c 128,-1,3
 243 0 243 0 194 0 c 0,4,5
 153 0 153 0 116 15 c 128,-1,6
 79 30 79 30 51.5 57.5 c 128,-1,7
 24 85 24 85 7.5 124 c 128,-1,8
 -9 163 -9 163 -9 211 c 0,9,10
 -9 253 -9 253 7.5 288.5 c 128,-1,11
 24 324 24 324 52 350 c 128,-1,12
 80 376 80 376 118.5 391 c 128,-1,13
 157 406 157 406 202 406 c 0,14,15
 249 406 249 406 281 392 c 128,-1,16
 313 378 313 378 336 360 c 1,17,-1
 336 391 l 2,18,19
 336 438 336 438 305 453.5 c 128,-1,20
 274 469 274 469 225 469 c 0,21,22
 180 469 180 469 141 460 c 128,-1,23
 102 451 102 451 62 438 c 1,24,-1
 102 601 l 1,25,26
 151 615 151 615 204.5 621 c 128,-1,27
 258 627 258 627 313 627 c 0,28,29
 363 627 363 627 411.5 615 c 128,-1,30
 460 603 460 603 496 576.5 c 128,-1,31
 532 550 532 550 553.5 508 c 128,-1,32
 575 466 575 466 574 404 c 2,33,-1
 563 17 l 1,34,-1
 357 0 l 1,35,-1
 357 70 l 1,0,-1
227 259 m 0,36,37
 192 254 192 254 169.5 235 c 128,-1,38
 147 216 147 216 151 193 c 0,39,40
 155 169 155 169 180 157 c 128,-1,41
 205 145 205 145 245 152 c 0,42,43
 285 158 285 158 304.5 177.5 c 128,-1,44
 324 197 324 197 319 219 c 0,45,46
 316 238 316 238 293 252 c 128,-1,47
 270 266 270 266 227 259 c 0,36,37
EndSplineSet
Validated: 33
EndChar

StartChar: b
Encoding: 98 98 59
Width: 655
GlyphClass: 2
Flags: W
LayerCount: 2
Fore
SplineSet
398 622 m 0,0,1
 459 622 459 622 510.5 595 c 128,-1,2
 562 568 562 568 600 524.5 c 128,-1,3
 638 481 638 481 659 426 c 128,-1,4
 680 371 680 371 680 313 c 0,5,6
 680 236 680 236 654 177 c 128,-1,7
 628 118 628 118 585 77.5 c 128,-1,8
 542 37 542 37 485 16 c 128,-1,9
 428 -5 428 -5 367 -5 c 0,10,11
 320 -5 320 -5 278.5 11.5 c 128,-1,12
 237 28 237 28 201 46 c 1,13,-1
 201 2 l 1,14,-1
 39 2 l 1,15,-1
 33 827 l 1,16,-1
 269 846 l 1,17,-1
 260 580 l 1,18,19
 292 597 292 597 321.5 609.5 c 128,-1,20
 351 622 351 622 398 622 c 0,0,1
380 209 m 256,21,22
 405 216 405 216 422 229 c 128,-1,23
 439 242 439 242 450 258 c 128,-1,24
 461 274 461 274 464 292.5 c 128,-1,25
 467 311 467 311 462 330 c 0,26,27
 457 348 457 348 444.5 362 c 128,-1,28
 432 376 432 376 414 384.5 c 128,-1,29
 396 393 396 393 374 394.5 c 128,-1,30
 352 396 352 396 328 389 c 0,31,32
 303 382 303 382 285 368.5 c 128,-1,33
 267 355 267 355 256.5 339 c 128,-1,34
 246 323 246 323 243 304.5 c 128,-1,35
 240 286 240 286 245 267 c 0,36,37
 250 249 250 249 262 235 c 128,-1,38
 274 221 274 221 292 213 c 128,-1,39
 310 205 310 205 332.5 203.5 c 128,-1,40
 355 202 355 202 380 209 c 256,21,22
EndSplineSet
Validated: 33
EndChar

StartChar: c
Encoding: 99 99 60
Width: 540
GlyphClass: 2
Flags: W
LayerCount: 2
Fore
SplineSet
555 73 m 1,0,1
 529 50 529 50 500 35 c 128,-1,2
 471 20 471 20 440.5 11 c 128,-1,3
 410 2 410 2 378 -1.5 c 128,-1,4
 346 -5 346 -5 316 -5 c 0,5,6
 246 -5 246 -5 187.5 18.5 c 128,-1,7
 129 42 129 42 85.5 83.5 c 128,-1,8
 42 125 42 125 17.5 181 c 128,-1,9
 -7 237 -7 237 -7 301 c 0,10,11
 -7 376 -7 376 18.5 436 c 128,-1,12
 44 496 44 496 89.5 537.5 c 128,-1,13
 135 579 135 579 197.5 601 c 128,-1,14
 260 623 260 623 333 623 c 256,15,16
 406 623 406 623 459.5 599 c 128,-1,17
 513 575 513 575 550 551 c 1,18,-1
 415 374 l 1,19,20
 401 385 401 385 381.5 392 c 128,-1,21
 362 399 362 399 343 402.5 c 128,-1,22
 324 406 324 406 306 404.5 c 128,-1,23
 288 403 288 403 276 397 c 0,24,25
 257 387 257 387 243 373 c 128,-1,26
 229 359 229 359 221.5 343 c 128,-1,27
 214 327 214 327 214.5 308 c 128,-1,28
 215 289 215 289 225 269 c 0,29,30
 245 228 245 228 283.5 219 c 128,-1,31
 322 210 322 210 364 230 c 2,32,-1
 416 257 l 1,33,-1
 555 73 l 1,34,-1
 555 73 l 1,0,1
EndSplineSet
Validated: 37
EndChar

StartChar: d
Encoding: 100 100 61
Width: 679
GlyphClass: 2
Flags: W
LayerCount: 2
Fore
SplineSet
616 7 m 1,0,-1
 416 -6 l 1,1,-1
 416 52 l 1,2,-1
 414 52 l 1,3,4
 389 19 389 19 346.5 4.5 c 128,-1,5
 304 -10 304 -10 261 -10 c 0,6,7
 209 -10 209 -10 160.5 11 c 128,-1,8
 112 32 112 32 74 71.5 c 128,-1,9
 36 111 36 111 13.5 168 c 128,-1,10
 -9 225 -9 225 -9 298 c 0,11,12
 -9 364 -9 364 10 421.5 c 128,-1,13
 29 479 29 479 64.5 522.5 c 128,-1,14
 100 566 100 566 153 591 c 128,-1,15
 206 616 206 616 273 616 c 0,16,17
 307 616 307 616 339 607.5 c 128,-1,18
 371 599 371 599 394 579 c 1,19,-1
 385 822 l 1,20,-1
 621 841 l 1,21,-1
 616 7 l 1,0,-1
333 210 m 0,22,23
 356 218 356 218 371 232 c 128,-1,24
 386 246 386 246 394.5 263 c 128,-1,25
 403 280 403 280 404.5 298 c 128,-1,26
 406 316 406 316 399 334 c 0,27,28
 393 350 393 350 380.5 363.5 c 128,-1,29
 368 377 368 377 350.5 384.5 c 128,-1,30
 333 392 333 392 312 393 c 128,-1,31
 291 394 291 394 268 386 c 0,32,33
 244 378 244 378 229 363.5 c 128,-1,34
 214 349 214 349 205.5 332 c 128,-1,35
 197 315 197 315 196 296.5 c 128,-1,36
 195 278 195 278 201 261 c 128,-1,37
 207 244 207 244 219.5 231 c 128,-1,38
 232 218 232 218 249.5 210.5 c 128,-1,39
 267 203 267 203 288 202.5 c 128,-1,40
 309 202 309 202 333 210 c 0,22,23
EndSplineSet
Validated: 33
EndChar

StartChar: e
Encoding: 101 101 62
Width: 585
GlyphClass: 2
Flags: W
LayerCount: 2
Fore
SplineSet
584 76 m 1,0,1
 522 31 522 31 456 11 c 128,-1,2
 390 -9 390 -9 305 -9 c 0,3,4
 235 -9 235 -9 177.5 15 c 128,-1,5
 120 39 120 39 78 80 c 128,-1,6
 36 121 36 121 12.5 175.5 c 128,-1,7
 -11 230 -11 230 -11 292 c 0,8,9
 -11 369 -11 369 13.5 429 c 128,-1,10
 38 489 38 489 80 531 c 128,-1,11
 122 573 122 573 177.5 595 c 128,-1,12
 233 617 233 617 297 617 c 0,13,14
 399 617 399 617 474.5 565 c 128,-1,15
 550 513 550 513 587 426 c 1,16,-1
 281 196 l 1,17,18
 292 190 292 190 310.5 187.5 c 128,-1,19
 329 185 329 185 344 185 c 0,20,21
 391 185 391 185 423.5 202 c 128,-1,22
 456 219 456 219 482 243 c 1,23,-1
 584 76 l 1,0,1
365 412 m 1,24,25
 351 429 351 429 333.5 435 c 128,-1,26
 316 441 316 441 295 441 c 0,27,28
 275 441 275 441 258 432.5 c 128,-1,29
 241 424 241 424 228.5 409 c 128,-1,30
 216 394 216 394 209.5 375.5 c 128,-1,31
 203 357 203 357 203 338 c 0,32,33
 203 320 203 320 205.5 312 c 128,-1,34
 208 304 208 304 212 296 c 1,35,-1
 365 412 l 1,24,25
EndSplineSet
Validated: 1
EndChar

StartChar: f
Encoding: 102 102 63
Width: 425
GlyphClass: 2
Flags: W
LayerCount: 2
Fore
SplineSet
83 414 m 1,0,-1
 12 414 l 1,1,-1
 45 590 l 1,2,-1
 83 590 l 1,3,4
 83 645 83 645 97.5 690 c 128,-1,5
 112 735 112 735 141 766.5 c 128,-1,6
 170 798 170 798 215 815.5 c 128,-1,7
 260 833 260 833 323 833 c 0,8,9
 340 833 340 833 354 830 c 128,-1,10
 368 827 368 827 383 825 c 1,11,-1
 410 655 l 1,12,-1
 375 655 l 2,13,14
 341 655 341 655 323 638 c 128,-1,15
 305 621 305 621 305 590 c 1,16,-1
 393 590 l 1,17,-1
 393 414 l 1,18,-1
 305 414 l 1,19,-1
 311 8 l 1,20,-1
 82 -10 l 1,21,-1
 83 414 l 1,0,-1
EndSplineSet
Validated: 1
EndChar

StartChar: g
Encoding: 103 103 64
Width: 606
GlyphClass: 2
Flags: W
LayerCount: 2
Fore
SplineSet
98 16 m 1,0,1
 134 4 134 4 170.5 -4 c 128,-1,2
 207 -12 207 -12 246 -12 c 0,3,4
 262 -12 262 -12 278.5 -10 c 128,-1,5
 295 -8 295 -8 308.5 -1.5 c 128,-1,6
 322 5 322 5 330 17 c 128,-1,7
 338 29 338 29 338 48 c 256,8,9
 338 67 338 67 328 80 c 128,-1,10
 318 93 318 93 301.5 101 c 128,-1,11
 285 109 285 109 263.5 111.5 c 128,-1,12
 242 114 242 114 219 114 c 0,13,14
 192 114 192 114 164.5 106 c 128,-1,15
 137 98 137 98 114 86 c 1,16,-1
 133 147 l 1,17,18
 65 180 65 180 28 237 c 128,-1,19
 -9 294 -9 294 -9 375 c 0,20,21
 -9 417 -9 417 7 461.5 c 128,-1,22
 23 506 23 506 56.5 543 c 128,-1,23
 90 580 90 580 142.5 603.5 c 128,-1,24
 195 627 195 627 267 627 c 0,25,26
 304 627 304 627 331.5 621.5 c 128,-1,27
 359 616 359 616 384 608 c 1,28,-1
 401 716 l 1,29,-1
 565 645 l 1,30,-1
 512 541 l 1,31,32
 545 509 545 509 562 467.5 c 128,-1,33
 579 426 579 426 579 379 c 0,34,35
 579 314 579 314 552.5 268.5 c 128,-1,36
 526 223 526 223 475 189 c 1,37,38
 575 133 575 133 575 19 c 0,39,40
 575 -35 575 -35 551.5 -77.5 c 128,-1,41
 528 -120 528 -120 484.5 -148.5 c 128,-1,42
 441 -177 441 -177 380 -192 c 128,-1,43
 319 -207 319 -207 245 -207 c 0,44,45
 155 -207 155 -207 95.5 -191.5 c 128,-1,46
 36 -176 36 -176 -1 -164 c 1,47,-1
 98 16 l 1,0,1
296 304 m 0,48,49
 331 311 331 311 348.5 332.5 c 128,-1,50
 366 354 366 354 360 381 c 128,-1,51
 354 408 354 408 329 420 c 128,-1,52
 304 432 304 432 270 425 c 0,53,54
 235 417 235 417 218 395.5 c 128,-1,55
 201 374 201 374 206 348 c 0,56,57
 211 321 211 321 236 308.5 c 128,-1,58
 261 296 261 296 296 304 c 0,48,49
EndSplineSet
Validated: 33
EndChar

StartChar: h
Encoding: 104 104 65
Width: 601
GlyphClass: 2
Flags: W
LayerCount: 2
Fore
SplineSet
254 547 m 1,0,-1
 256 547 l 1,1,2
 282 581 282 581 315.5 595.5 c 128,-1,3
 349 610 349 610 391 610 c 0,4,5
 434 610 434 610 467.5 595 c 128,-1,6
 501 580 501 580 523.5 552 c 128,-1,7
 546 524 546 524 557.5 487 c 128,-1,8
 569 450 569 450 568 407 c 2,9,-1
 562 10 l 1,10,-1
 346 -8 l 1,11,-1
 346 366 l 2,12,13
 346 383 346 383 334 395.5 c 128,-1,14
 322 408 322 408 301 408 c 0,15,16
 282 408 282 408 268 396 c 128,-1,17
 254 384 254 384 254 364 c 2,18,-1
 254 -9 l 1,19,-1
 39 9 l 1,20,-1
 32 816 l 1,21,-1
 261 835 l 1,22,-1
 254 547 l 1,0,-1
EndSplineSet
Validated: 33
EndChar

StartChar: i
Encoding: 105 105 66
Width: 312
GlyphClass: 2
Flags: W
LayerCount: 2
Fore
SplineSet
41 581 m 1,0,-1
 269 599 l 1,1,-1
 258 8 l 1,2,-1
 41 -10 l 1,3,-1
 41 581 l 1,0,-1
40 840 m 1,4,-1
 274 850 l 1,5,-1
 262 670 l 1,6,-1
 39 653 l 1,7,-1
 40 840 l 1,4,-1
EndSplineSet
Validated: 1
EndChar

StartChar: j
Encoding: 106 106 67
Width: 401
GlyphClass: 2
Flags: W
LayerCount: 2
Fore
SplineSet
343 57 m 2,0,1
 343 -6 343 -6 326.5 -53.5 c 128,-1,2
 310 -101 310 -101 279.5 -133 c 128,-1,3
 249 -165 249 -165 205.5 -181.5 c 128,-1,4
 162 -198 162 -198 109 -198 c 2,5,-1
 60 -198 l 1,6,-1
 4 -10 l 1,7,-1
 28 -10 l 2,8,9
 74 -10 74 -10 97.5 9.5 c 128,-1,10
 121 29 121 29 121 76 c 2,11,-1
 121 578 l 1,12,-1
 343 596 l 1,13,-1
 343 57 l 2,0,1
342 668 m 1,14,-1
 119 650 l 1,15,-1
 120 838 l 1,16,-1
 354 848 l 1,17,-1
 342 668 l 1,14,-1
EndSplineSet
Validated: 1
EndChar

StartChar: k
Encoding: 107 107 68
Width: 591
GlyphClass: 2
Flags: W
LayerCount: 2
Fore
SplineSet
30 814 m 1,0,-1
 262 833 l 1,1,-1
 242 400 l 1,2,-1
 244 400 l 1,3,-1
 341 608 l 1,4,-1
 567 590 l 1,5,-1
 434 332 l 1,6,-1
 588 95 l 1,7,-1
 375 -10 l 1,8,-1
 242 247 l 1,9,-1
 240 247 l 1,10,-1
 248 8 l 1,11,-1
 35 -10 l 1,12,-1
 30 814 l 1,0,-1
EndSplineSet
Validated: 1
EndChar

StartChar: l
Encoding: 108 108 69
Width: 306
GlyphClass: 2
Flags: W
LayerCount: 2
Fore
SplineSet
36 814 m 1,0,-1
 267 833 l 1,1,-1
 258 8 l 1,2,-1
 43 -10 l 1,3,-1
 36 814 l 1,0,-1
EndSplineSet
Validated: 1
EndChar

StartChar: m
Encoding: 109 109 70
Width: 912
GlyphClass: 2
Flags: W
LayerCount: 2
Fore
SplineSet
670 365 m 2,0,1
 670 384 670 384 655.5 396.5 c 128,-1,2
 641 409 641 409 617 409 c 0,3,4
 592 409 592 409 578 393.5 c 128,-1,5
 564 378 564 378 564 361 c 2,6,-1
 570 11 l 1,7,-1
 348 -7 l 1,8,-1
 352 362 l 2,9,10
 353 382 353 382 338 395.5 c 128,-1,11
 323 409 323 409 298 409 c 0,12,13
 279 409 279 409 262 396.5 c 128,-1,14
 245 384 245 384 246 361 c 2,15,-1
 256 -8 l 1,16,-1
 41 10 l 1,17,-1
 29 593 l 1,18,-1
 238 611 l 1,19,-1
 238 517 l 1,20,-1
 240 517 l 1,21,22
 273 561 273 561 314 586 c 128,-1,23
 355 611 355 611 414 611 c 0,24,25
 462 611 462 611 494 596.5 c 128,-1,26
 526 582 526 582 553 550 c 1,27,28
 580 578 580 578 613.5 594.5 c 128,-1,29
 647 611 647 611 688 611 c 0,30,31
 734 611 734 611 769.5 595.5 c 128,-1,32
 805 580 805 580 829 551 c 128,-1,33
 853 522 853 522 866 483.5 c 128,-1,34
 879 445 879 445 880 401 c 2,35,-1
 886 11 l 1,36,-1
 664 -7 l 1,37,-1
 670 365 l 2,0,1
EndSplineSet
Validated: 33
EndChar

StartChar: n
Encoding: 110 110 71
Width: 605
GlyphClass: 2
Flags: W
LayerCount: 2
Fore
SplineSet
242 526 m 1,0,-1
 246 526 l 1,1,2
 280 572 280 572 315 588.5 c 128,-1,3
 350 605 350 605 392 605 c 0,4,5
 435 605 435 605 468 589.5 c 128,-1,6
 501 574 501 574 523.5 546.5 c 128,-1,7
 546 519 546 519 557.5 482 c 128,-1,8
 569 445 569 445 569 402 c 2,9,-1
 569 6 l 1,10,-1
 348 -12 l 1,11,-1
 351 360 l 2,12,13
 352 378 352 378 337.5 390.5 c 128,-1,14
 323 403 323 403 302 403 c 0,15,16
 283 403 283 403 267 391.5 c 128,-1,17
 251 380 251 380 251 359 c 2,18,-1
 255 -10 l 1,19,-1
 37 5 l 1,20,-1
 29 588 l 1,21,-1
 242 605 l 1,22,-1
 242 526 l 1,0,-1
EndSplineSet
Validated: 33
EndChar

StartChar: o
Encoding: 111 111 72
Width: 631
GlyphClass: 2
Flags: W
LayerCount: 2
Fore
SplineSet
638 352 m 256,0,1
 648 281 648 281 631 220.5 c 128,-1,2
 614 160 614 160 577 113.5 c 128,-1,3
 540 67 540 67 484 36.5 c 128,-1,4
 428 6 428 6 359 -3 c 256,5,6
 290 -12 290 -12 228 1 c 128,-1,7
 166 14 166 14 117 48.5 c 128,-1,8
 68 83 68 83 35 136.5 c 128,-1,9
 2 190 2 190 -7 261 c 0,10,11
 -17 332 -17 332 -0.5 393 c 128,-1,12
 16 454 16 454 53.5 501 c 128,-1,13
 91 548 91 548 147 578 c 128,-1,14
 203 608 203 608 271 617 c 0,15,16
 340 626 340 626 402 613 c 128,-1,17
 464 600 464 600 513 565.5 c 128,-1,18
 562 531 562 531 595 477 c 128,-1,19
 628 423 628 423 638 352 c 256,0,1
208 265 m 0,20,21
 225 225 225 225 263 213 c 128,-1,22
 301 201 301 201 349 221 c 0,23,24
 396 241 396 241 414 276.5 c 128,-1,25
 432 312 432 312 416 352 c 0,26,27
 399 391 399 391 361 404 c 128,-1,28
 323 417 323 417 275 396 c 0,29,30
 227 376 227 376 209.5 340 c 128,-1,31
 192 304 192 304 208 265 c 0,20,21
EndSplineSet
Validated: 33
EndChar

StartChar: p
Encoding: 112 112 73
Width: 654
GlyphClass: 2
Flags: W
LayerCount: 2
Fore
SplineSet
245 612 m 1,0,-1
 245 543 l 1,1,2
 278 579 278 579 313 595.5 c 128,-1,3
 348 612 348 612 397 612 c 0,4,5
 458 612 458 612 509 585 c 128,-1,6
 560 558 560 558 595.5 514 c 128,-1,7
 631 470 631 470 650.5 414 c 128,-1,8
 670 358 670 358 670 301 c 0,9,10
 670 240 670 240 649.5 183 c 128,-1,11
 629 126 629 126 591.5 82 c 128,-1,12
 554 38 554 38 502 11.5 c 128,-1,13
 450 -15 450 -15 387 -15 c 0,14,15
 355 -15 355 -15 319 -6 c 128,-1,16
 283 3 283 3 254 31 c 1,17,-1
 260 -173 l 1,18,-1
 44 -191 l 1,19,-1
 33 594 l 1,20,-1
 245 612 l 1,0,-1
384 216 m 0,21,22
 430 238 430 238 446 276.5 c 128,-1,23
 462 315 462 315 445 349 c 0,24,25
 429 384 429 384 389.5 396 c 128,-1,26
 350 408 350 408 304 386 c 0,27,28
 257 363 257 363 240.5 325 c 128,-1,29
 224 287 224 287 242 252 c 0,30,31
 250 235 250 235 264.5 223 c 128,-1,32
 279 211 279 211 297.5 206 c 128,-1,33
 316 201 316 201 338 203 c 128,-1,34
 360 205 360 205 384 216 c 0,21,22
EndSplineSet
Validated: 33
EndChar

StartChar: q
Encoding: 113 113 74
Width: 652
GlyphClass: 2
Flags: W
LayerCount: 2
Fore
SplineSet
391 -169 m 1,0,-1
 397 35 l 1,1,2
 368 8 368 8 332 -1 c 128,-1,3
 296 -10 296 -10 264 -10 c 0,4,5
 201 -10 201 -10 149 16.5 c 128,-1,6
 97 43 97 43 60 86.5 c 128,-1,7
 23 130 23 130 2.5 187 c 128,-1,8
 -18 244 -18 244 -18 305 c 0,9,10
 -18 362 -18 362 1 418 c 128,-1,11
 20 474 20 474 55.5 518 c 128,-1,12
 91 562 91 562 142 589 c 128,-1,13
 193 616 193 616 254 616 c 0,14,15
 303 616 303 616 338.5 599.5 c 128,-1,16
 374 583 374 583 407 547 c 1,17,-1
 407 616 l 1,18,-1
 620 598 l 1,19,-1
 608 -187 l 1,20,-1
 391 -169 l 1,0,-1
411 353 m 0,21,22
 403 370 403 370 388 382 c 128,-1,23
 373 394 373 394 354 399 c 128,-1,24
 335 404 335 404 312.5 402 c 128,-1,25
 290 400 290 400 267 389 c 0,26,27
 221 367 221 367 205 329 c 128,-1,28
 189 291 189 291 206 256 c 0,29,30
 222 222 222 222 261.5 210.5 c 128,-1,31
 301 199 301 199 347 220 c 0,32,33
 394 243 394 243 410.5 281 c 128,-1,34
 427 319 427 319 411 353 c 0,21,22
EndSplineSet
Validated: 33
EndChar

StartChar: r
Encoding: 114 114 75
Width: 428
GlyphClass: 2
Flags: W
LayerCount: 2
Fore
SplineSet
236 612 m 1,0,-1
 236 499 l 1,1,-1
 238 499 l 1,2,3
 265 613 265 613 391 612 c 0,4,5
 419 612 419 612 443 609 c 1,6,-1
 390 391 l 1,7,8
 383 392 383 392 375 392 c 0,9,10
 368 392 368 392 354 392 c 0,11,12
 311 392 311 392 280 364 c 128,-1,13
 249 336 249 336 249 275 c 2,14,-1
 249 12 l 1,15,-1
 34 -6 l 1,16,-1
 28 594 l 1,17,-1
 236 612 l 1,0,-1
EndSplineSet
Validated: 33
EndChar

StartChar: s
Encoding: 115 115 76
Width: 456
GlyphClass: 2
Flags: W
LayerCount: 2
Fore
SplineSet
14 203 m 1,0,1
 42 195 42 195 70 189.5 c 128,-1,2
 98 184 98 184 131 184 c 0,3,4
 145 184 145 184 161 184.5 c 128,-1,5
 177 185 177 185 190 187.5 c 128,-1,6
 203 190 203 190 211.5 196.5 c 128,-1,7
 220 203 220 203 220 215 c 0,8,9
 220 230 220 230 204 238 c 128,-1,10
 188 246 188 246 165 253 c 128,-1,11
 142 260 142 260 114.5 270 c 128,-1,12
 87 280 87 280 64 298.5 c 128,-1,13
 41 317 41 317 25 349 c 128,-1,14
 9 381 9 381 9 432 c 0,15,16
 9 466 9 466 22.5 498.5 c 128,-1,17
 36 531 36 531 65.5 558 c 128,-1,18
 95 585 95 585 142 601 c 128,-1,19
 189 617 189 617 256 617 c 0,20,21
 282 617 282 617 307.5 615 c 128,-1,22
 333 613 333 613 356 609.5 c 128,-1,23
 379 606 379 606 398.5 602.5 c 128,-1,24
 418 599 418 599 431 596 c 1,25,-1
 431 416 l 1,26,27
 405 422 405 422 380.5 426 c 128,-1,28
 356 430 356 430 328 430 c 0,29,30
 322 430 322 430 308.5 429.5 c 128,-1,31
 295 429 295 429 281.5 426.5 c 128,-1,32
 268 424 268 424 258 418 c 128,-1,33
 248 412 248 412 248 401 c 0,34,35
 248 385 248 385 264.5 377 c 128,-1,36
 281 369 281 369 305 361.5 c 128,-1,37
 329 354 329 354 357.5 344 c 128,-1,38
 386 334 386 334 410 315 c 128,-1,39
 434 296 434 296 450.5 264 c 128,-1,40
 467 232 467 232 467 181 c 0,41,42
 467 126 467 126 443 89 c 128,-1,43
 419 52 419 52 379.5 30 c 128,-1,44
 340 8 340 8 289 -1 c 128,-1,45
 238 -10 238 -10 182 -10 c 0,46,47
 139 -10 139 -10 97.5 -5 c 128,-1,48
 56 0 56 0 14 11 c 1,49,-1
 14 203 l 1,50,-1
 14 203 l 1,0,1
EndSplineSet
Validated: 5
EndChar

StartChar: t
Encoding: 116 116 77
Width: 379
GlyphClass: 2
Flags: W
LayerCount: 2
Fore
SplineSet
337 -7 m 1,0,1
 321 -9 321 -9 306 -9.5 c 128,-1,2
 291 -10 291 -10 273 -10 c 0,3,4
 175 -10 175 -10 120.5 34.5 c 128,-1,5
 66 79 66 79 66 179 c 2,6,-1
 66 422 l 1,7,-1
 9 421 l 1,8,-1
 15 598 l 1,9,-1
 63 598 l 1,10,-1
 63 666 l 1,11,-1
 286 766 l 1,12,-1
 286 598 l 1,13,-1
 369 610 l 1,14,-1
 357 422 l 1,15,-1
 288 422 l 1,16,-1
 288 243 l 2,17,18
 288 212 288 212 296.5 201.5 c 128,-1,19
 305 191 305 191 336 191 c 0,20,21
 349 191 349 191 357.5 192.5 c 128,-1,22
 366 194 366 194 373 196 c 1,23,-1
 337 -7 l 1,24,-1
 337 -7 l 1,0,1
EndSplineSet
Validated: 5
EndChar

StartChar: u
Encoding: 117 117 78
Width: 605
GlyphClass: 2
Flags: W
LayerCount: 2
Fore
SplineSet
371 90 m 1,0,-1
 369 90 l 1,1,2
 349 34 349 34 305 10.5 c 128,-1,3
 261 -13 261 -13 203 -13 c 0,4,5
 126 -13 126 -13 78.5 32.5 c 128,-1,6
 31 78 31 78 31 165 c 2,7,-1
 31 595 l 1,8,-1
 259 613 l 1,9,-1
 253 234 l 2,10,11
 252 209 252 209 263.5 198.5 c 128,-1,12
 275 188 275 188 300 188 c 0,13,14
 320 188 320 188 333 198.5 c 128,-1,15
 346 209 346 209 345 233 c 2,16,-1
 339 595 l 1,17,-1
 574 613 l 1,18,-1
 559 4 l 1,19,-1
 371 -4 l 1,20,-1
 371 90 l 1,0,-1
EndSplineSet
Validated: 33
EndChar

StartChar: v
Encoding: 118 118 79
Width: 525
GlyphClass: 2
Flags: W
LayerCount: 2
Fore
SplineSet
198 617 m 1,0,-1
 256 213 l 1,1,-1
 258 213 l 1,2,-1
 326 617 l 1,3,-1
 548 600 l 1,4,-1
 407 9 l 1,5,-1
 112 -8 l 1,6,-1
 -23 600 l 1,7,-1
 198 617 l 1,0,-1
EndSplineSet
Validated: 1
EndChar

StartChar: w
Encoding: 119 119 80
Width: 806
GlyphClass: 2
Flags: W
LayerCount: 2
Fore
SplineSet
265 335 m 1,0,-1
 324 600 l 1,1,-1
 484 612 l 1,2,-1
 545 332 l 1,3,-1
 547 332 l 1,4,-1
 607 622 l 1,5,-1
 830 603 l 1,6,-1
 673 12 l 1,7,-1
 461 -4 l 1,8,-1
 403 282 l 1,9,-1
 401 282 l 1,10,-1
 343 12 l 1,11,-1
 133 -5 l 1,12,-1
 -27 603 l 1,13,-1
 203 622 l 1,14,-1
 263 335 l 1,15,-1
 265 335 l 1,0,-1
EndSplineSet
Validated: 1
EndChar

StartChar: x
Encoding: 120 120 81
Width: 570
GlyphClass: 2
Flags: W
LayerCount: 2
Fore
SplineSet
282 440 m 1,0,-1
 284 440 l 1,1,-1
 331 612 l 1,2,-1
 567 594 l 1,3,-1
 445 312 l 1,4,-1
 588 12 l 1,5,-1
 342 -5 l 1,6,-1
 284 180 l 1,7,-1
 282 180 l 1,8,-1
 222 -5 l 1,9,-1
 -19 12 l 1,10,-1
 117 312 l 1,11,-1
 -10 594 l 1,12,-1
 227 612 l 1,13,-1
 282 440 l 1,0,-1
EndSplineSet
Validated: 1
EndChar

StartChar: y
Encoding: 121 121 82
Width: 514
GlyphClass: 2
Flags: W
LayerCount: 2
Fore
SplineSet
279 377 m 1,0,-1
 329 602 l 1,1,-1
 540 584 l 1,2,-1
 321 -188 l 1,3,-1
 89 -170 l 1,4,-1
 177 71 l 1,5,-1
 -15 574 l 1,6,-1
 208 602 l 1,7,-1
 276 377 l 1,8,-1
 279 377 l 1,0,-1
EndSplineSet
Validated: 1
EndChar

StartChar: z
Encoding: 122 122 83
Width: 497
GlyphClass: 2
Flags: W
LayerCount: 2
Fore
SplineSet
55 594 m 1,0,-1
 482 594 l 1,1,-1
 310 216 l 1,2,-1
 493 216 l 1,3,-1
 449 3 l 1,4,-1
 -15 3 l 1,5,-1
 159 381 l 1,6,-1
 12 381 l 1,7,-1
 55 594 l 1,0,-1
EndSplineSet
Validated: 1
EndChar

StartChar: uni00AD
Encoding: 173 173 85
Width: 466
GlyphClass: 2
Flags: W
LayerCount: 2
Fore
SplineSet
65 -50 m 1,0,-1
 389 -36 l 1,1,-1
 379 -173 l 1,2,-1
 56 -168 l 1,3,-1
 65 -50 l 1,0,-1
EndSplineSet
Validated: 1
EndChar

StartChar: degree
Encoding: 176 176 86
Width: 270
GlyphClass: 2
Flags: W
LayerCount: 2
Fore
SplineSet
216 543 m 0,0,1
 200 520 200 520 171.5 506 c 128,-1,2
 143 492 143 492 112.5 490.5 c 128,-1,3
 82 489 82 489 53 504.5 c 128,-1,4
 24 520 24 520 6 559 c 0,5,6
 -14 602 -14 602 -13.5 645 c 128,-1,7
 -13 688 -13 688 2 725 c 128,-1,8
 17 762 17 762 45 789.5 c 128,-1,9
 73 817 73 817 109 830 c 0,10,11
 131 838 131 838 150.5 837.5 c 128,-1,12
 170 837 170 837 187 829 c 128,-1,13
 204 821 204 821 216 809.5 c 128,-1,14
 228 798 228 798 234 785 c 0,15,16
 246 761 246 761 253 733 c 128,-1,17
 260 705 260 705 259.5 672.5 c 128,-1,18
 259 640 259 640 249 607 c 128,-1,19
 239 574 239 574 216 543 c 0,0,1
158 710 m 0,20,21
 150 728 150 728 136.5 730 c 128,-1,22
 123 732 123 732 109.5 721.5 c 128,-1,23
 96 711 96 711 87 689.5 c 128,-1,24
 78 668 78 668 80 637 c 0,25,26
 82 608 82 608 91.5 596.5 c 128,-1,27
 101 585 101 585 113 585 c 128,-1,28
 125 585 125 585 136.5 595 c 128,-1,29
 148 605 148 605 155 621 c 0,30,31
 167 653 167 653 165.5 674.5 c 128,-1,32
 164 696 164 696 158 710 c 0,20,21
EndSplineSet
Validated: 33
EndChar

StartChar: acute
Encoding: 180 180 87
Width: 466
GlyphClass: 2
Flags: W
LayerCount: 2
Fore
SplineSet
223 612 m 1,0,-1
 251 788 l 1,1,-1
 325 762 l 1,2,-1
 273 611 l 1,3,-1
 223 612 l 1,0,-1
EndSplineSet
Validated: 1
EndChar

StartChar: Agrave
Encoding: 192 192 88
Width: 834
GlyphClass: 2
Flags: W
LayerCount: 2
Fore
SplineSet
383 887 m 1,0,-1
 900 100 l 1,1,-1
 579 -22 l 1,2,-1
 493 122 l 1,3,-1
 278 115 l 1,4,-1
 236 -39 l 1,5,-1
 -73 61 l 1,6,-1
 383 887 l 1,0,-1
331 278 m 1,7,-1
 453 299 l 1,8,-1
 401 438 l 1,9,-1
 331 278 l 1,7,-1
300 998 m 1,10,-1
 386 792 l 1,11,-1
 343 777 l 1,12,-1
 221 934 l 1,13,-1
 300 998 l 1,10,-1
EndSplineSet
Validated: 5
EndChar

StartChar: Aacute
Encoding: 193 193 89
Width: 829
GlyphClass: 2
Flags: W
LayerCount: 2
Fore
SplineSet
546 906 m 1,0,-1
 424 749 l 1,1,-1
 381 764 l 1,2,-1
 467 971 l 1,3,-1
 546 906 l 1,0,-1
382 887 m 1,4,-1
 899 100 l 1,5,-1
 577 -22 l 1,6,-1
 490 122 l 1,7,-1
 276 115 l 1,8,-1
 233 -39 l 1,9,-1
 -74 61 l 1,10,-1
 382 887 l 1,4,-1
330 278 m 1,11,-1
 452 299 l 1,12,-1
 399 438 l 1,13,-1
 330 278 l 1,11,-1
EndSplineSet
Validated: 5
EndChar

StartChar: Acircumflex
Encoding: 194 194 90
Width: 829
GlyphClass: 2
Flags: W
LayerCount: 2
Fore
SplineSet
382 887 m 1,0,-1
 899 100 l 1,1,-1
 577 -22 l 1,2,-1
 490 122 l 1,3,-1
 276 115 l 1,4,-1
 233 -39 l 1,5,-1
 -74 61 l 1,6,-1
 382 887 l 1,0,-1
330 278 m 1,7,-1
 452 299 l 1,8,-1
 399 438 l 1,9,-1
 330 278 l 1,7,-1
355 1004 m 1,10,-1
 565 932 l 1,11,-1
 532 866 l 1,12,-1
 375 941 l 1,13,-1
 241 852 l 1,14,-1
 188 903 l 1,15,-1
 355 1004 l 1,10,-1
EndSplineSet
Validated: 1
EndChar

StartChar: Atilde
Encoding: 195 195 91
Width: 829
GlyphClass: 2
Flags: W
LayerCount: 2
Fore
SplineSet
571 950 m 1,0,1
 571 950 571 950 205 881 c 1,2,-1
 210 969 l 1,3,-1
 562 1042 l 1,4,-1
 571 950 l 1,0,1
382 887 m 1,5,-1
 899 100 l 1,6,-1
 577 -22 l 1,7,-1
 490 122 l 1,8,-1
 276 115 l 1,9,-1
 233 -39 l 1,10,-1
 -74 61 l 1,11,-1
 382 887 l 1,5,-1
330 278 m 1,12,-1
 452 299 l 1,13,-1
 399 438 l 1,14,-1
 330 278 l 1,12,-1
EndSplineSet
Validated: 1
EndChar

StartChar: Adieresis
Encoding: 196 196 92
Width: 870
GlyphClass: 2
Flags: W
LayerCount: 2
Fore
SplineSet
197 1031 m 1,0,-1
 366 1043 l 1,1,-1
 383 962 l 1,2,3
 367 960 367 960 339 957.5 c 128,-1,4
 311 955 311 955 285 953.5 c 128,-1,5
 259 952 259 952 240 952 c 0,6,7
 222 952 222 952 221 954 c 0,8,9
 221 955 221 955 220 960.5 c 128,-1,10
 219 966 219 966 214 983.5 c 128,-1,11
 209 1001 209 1001 197 1031 c 1,0,-1
600 999 m 1,12,13
 520 990 520 990 474 983 c 2,14,-1
 428 976 l 1,15,-1
 431 1057 l 1,16,-1
 591 1092 l 1,17,-1
 600 999 l 1,12,13
404 894 m 1,18,-1
 922 108 l 1,19,-1
 600 -14 l 1,20,-1
 514 129 l 1,21,-1
 299 122 l 1,22,-1
 257 -32 l 1,23,-1
 -51 69 l 1,24,-1
 404 894 l 1,18,-1
352 285 m 1,25,-1
 474 306 l 1,26,-1
 423 445 l 1,27,-1
 352 285 l 1,25,-1
EndSplineSet
Validated: 1
EndChar

StartChar: Ccedilla
Encoding: 199 199 93
Width: 740
GlyphClass: 2
Flags: W
LayerCount: 2
Fore
SplineSet
768 146 m 1,0,1
 754 119 754 119 720.5 90.5 c 128,-1,2
 687 62 687 62 641 37.5 c 128,-1,3
 595 13 595 13 538.5 -5.5 c 128,-1,4
 482 -24 482 -24 423 -30 c 1,5,-1
 368 -165 l 1,6,-1
 213 -100 l 1,7,-1
 273 -23 l 1,8,9
 237 -15 237 -15 203.5 0 c 128,-1,10
 170 15 170 15 139 39 c 0,11,12
 62 98 62 98 25 170 c 128,-1,13
 -12 242 -12 242 -19 317.5 c 128,-1,14
 -26 393 -26 393 -7.5 469 c 128,-1,15
 11 545 11 545 46 611.5 c 128,-1,16
 81 678 81 678 127.5 731 c 128,-1,17
 174 784 174 784 222 816 c 2,18,19
 222 816 222 816 242 828 c 0,20,21
 263 839 263 839 299 849.5 c 128,-1,22
 335 860 335 860 383.5 864.5 c 128,-1,23
 432 869 432 869 488.5 855.5 c 128,-1,24
 545 842 545 842 607 804 c 128,-1,25
 669 766 669 766 730 692 c 1,26,-1
 552 472 l 1,27,28
 497 530 497 530 455.5 546.5 c 128,-1,29
 414 563 414 563 383 554.5 c 128,-1,30
 352 546 352 546 331.5 519 c 128,-1,31
 311 492 311 492 299 463.5 c 128,-1,32
 287 435 287 435 282 412 c 2,33,-1
 276 390 l 2,34,35
 276 388 276 388 281.5 363.5 c 128,-1,36
 287 339 287 339 304 309 c 128,-1,37
 321 279 321 279 352 264.5 c 128,-1,38
 383 250 383 250 436.5 268.5 c 128,-1,39
 490 287 490 287 569 359 c 1,40,-1
 768 146 l 1,0,1
EndSplineSet
Validated: 33
EndChar

StartChar: Egrave
Encoding: 200 200 94
Width: 617
GlyphClass: 2
Flags: W
LayerCount: 2
Fore
SplineSet
34 786 m 1,0,-1
 599 827 l 1,1,-1
 567 568 l 1,2,-1
 310 558 l 1,3,-1
 309 508 l 1,4,-1
 496 522 l 1,5,-1
 474 343 l 1,6,-1
 302 329 l 1,7,-1
 301 272 l 1,8,-1
 594 300 l 1,9,-1
 589 17 l 1,10,-1
 41 -12 l 1,11,-1
 34 786 l 1,0,-1
291 998 m 1,12,-1
 377 792 l 1,13,-1
 334 777 l 1,14,-1
 212 934 l 1,15,-1
 291 998 l 1,12,-1
EndSplineSet
Validated: 5
EndChar

StartChar: Eacute
Encoding: 201 201 95
Width: 612
GlyphClass: 2
Flags: W
LayerCount: 2
Fore
SplineSet
33 793 m 1,0,-1
 598 834 l 1,1,-1
 566 574 l 1,2,-1
 308 564 l 1,3,-1
 308 514 l 1,4,-1
 494 528 l 1,5,-1
 473 349 l 1,6,-1
 301 335 l 1,7,-1
 300 279 l 1,8,-1
 593 306 l 1,9,-1
 587 24 l 1,10,-1
 40 -6 l 1,11,-1
 33 793 l 1,0,-1
376 940 m 1,12,-1
 254 783 l 1,13,-1
 211 798 l 1,14,-1
 297 1005 l 1,15,-1
 376 940 l 1,12,-1
EndSplineSet
Validated: 5
EndChar

StartChar: Ecircumflex
Encoding: 202 202 96
Width: 614
GlyphClass: 2
Flags: W
LayerCount: 2
Fore
SplineSet
32 786 m 1,0,-1
 597 827 l 1,1,-1
 565 568 l 1,2,-1
 308 558 l 1,3,-1
 307 508 l 1,4,-1
 494 522 l 1,5,-1
 472 343 l 1,6,-1
 300 329 l 1,7,-1
 299 272 l 1,8,-1
 592 300 l 1,9,-1
 587 17 l 1,10,-1
 39 -12 l 1,11,-1
 32 786 l 1,0,-1
287 1004 m 1,12,-1
 497 932 l 1,13,-1
 464 866 l 1,14,-1
 306 941 l 1,15,-1
 172 852 l 1,16,-1
 120 903 l 1,17,-1
 287 1004 l 1,12,-1
EndSplineSet
Validated: 1
EndChar

StartChar: Edieresis
Encoding: 203 203 97
Width: 612
GlyphClass: 2
Flags: W
LayerCount: 2
Fore
SplineSet
81 927 m 1,0,-1
 250 939 l 1,1,-1
 267 857 l 1,2,3
 251 855 251 855 223.5 853 c 128,-1,4
 196 851 196 851 169.5 850 c 128,-1,5
 143 849 143 849 124 848.5 c 128,-1,6
 105 848 105 848 105 850 c 0,7,8
 105 851 105 851 104 856 c 128,-1,9
 103 861 103 861 98 879 c 128,-1,10
 93 897 93 897 81 927 c 1,0,-1
484 895 m 1,11,12
 404 886 404 886 358 878 c 2,13,-1
 312 871 l 1,14,-1
 315 952 l 1,15,-1
 475 987 l 1,16,-1
 484 895 l 1,11,12
29 786 m 1,17,-1
 594 827 l 1,18,-1
 562 568 l 1,19,-1
 304 558 l 1,20,-1
 304 508 l 1,21,-1
 489 522 l 1,22,-1
 469 343 l 1,23,-1
 297 329 l 1,24,-1
 296 272 l 1,25,-1
 589 300 l 1,26,-1
 583 17 l 1,27,-1
 36 -12 l 1,28,-1
 29 786 l 1,17,-1
EndSplineSet
Validated: 1
EndChar

StartChar: Igrave
Encoding: 204 204 98
Width: 398
GlyphClass: 2
Flags: W
LayerCount: 2
Fore
SplineSet
131 1137 m 1,0,-1
 251 849 l 1,1,-1
 191 828 l 1,2,-1
 20 1047 l 1,3,-1
 131 1137 l 1,0,-1
357 794 m 1,4,-1
 315 16 l 1,5,-1
 47 -13 l 1,6,-1
 57 758 l 1,7,-1
 357 794 l 1,4,-1
EndSplineSet
Validated: 1
EndChar

StartChar: Iacute
Encoding: 205 205 99
Width: 398
GlyphClass: 2
Flags: W
LayerCount: 2
Fore
SplineSet
364 1064 m 1,0,-1
 193 844 l 1,1,-1
 133 865 l 1,2,-1
 253 1155 l 1,3,-1
 364 1064 l 1,0,-1
357 794 m 1,4,-1
 315 16 l 1,5,-1
 47 -13 l 1,6,-1
 57 758 l 1,7,-1
 357 794 l 1,4,-1
EndSplineSet
Validated: 1
EndChar

StartChar: Icircumflex
Encoding: 206 206 100
Width: 398
GlyphClass: 2
Flags: W
LayerCount: 2
Fore
SplineSet
178 961 m 1,0,-1
 388 889 l 1,1,-1
 355 822 l 1,2,-1
 198 898 l 1,3,-1
 63 808 l 1,4,-1
 11 860 l 1,5,-1
 178 961 l 1,0,-1
357 794 m 1,6,-1
 315 16 l 1,7,-1
 47 -13 l 1,8,-1
 57 758 l 1,9,-1
 357 794 l 1,6,-1
EndSplineSet
Validated: 1
EndChar

StartChar: Idieresis
Encoding: 207 207 101
Width: 417
GlyphClass: 2
Flags: W
LayerCount: 2
Fore
SplineSet
68 754 m 1,0,-1
 57 -17 l 1,1,-1
 326 12 l 1,2,-1
 368 790 l 1,3,-1
 68 754 l 1,0,-1
5 876 m 1,4,-1
 174 888 l 1,5,-1
 191 806 l 1,6,7
 175 804 175 804 147.5 802 c 128,-1,8
 120 800 120 800 94 799 c 128,-1,9
 68 798 68 798 49 797.5 c 128,-1,10
 30 797 30 797 30 799 c 0,11,12
 30 800 30 800 29 805 c 128,-1,13
 28 810 28 810 22.5 828 c 128,-1,14
 17 846 17 846 5 876 c 1,4,-1
409 844 m 1,15,16
 329 835 329 835 283 828 c 2,17,-1
 237 820 l 1,18,-1
 240 901 l 1,19,-1
 399 936 l 1,20,-1
 409 844 l 1,15,16
EndSplineSet
Validated: 9
EndChar

StartChar: Ntilde
Encoding: 209 209 102
Width: 780
GlyphClass: 2
Flags: W
LayerCount: 2
Fore
SplineSet
570 931 m 1,0,1
 570 931 570 931 204 862 c 1,2,-1
 209 950 l 1,3,-1
 561 1023 l 1,4,-1
 570 931 l 1,0,1
52 835 m 1,5,-1
 443 510 l 1,6,-1
 453 849 l 1,7,-1
 758 828 l 1,8,-1
 711 47 l 1,9,-1
 318 243 l 1,10,-1
 333 1 l 1,11,-1
 39 -17 l 1,12,-1
 52 835 l 1,5,-1
EndSplineSet
Validated: 1
EndChar

StartChar: Ograve
Encoding: 210 210 103
Width: 776
GlyphClass: 2
Flags: W
LayerCount: 2
Fore
SplineSet
291 1037 m 1,0,-1
 377 831 l 1,1,-1
 334 816 l 1,2,-1
 212 973 l 1,3,-1
 291 1037 l 1,0,-1
651 89 m 0,4,5
 615 52 615 52 562 24.5 c 128,-1,6
 509 -3 509 -3 448.5 -17.5 c 128,-1,7
 388 -32 388 -32 323.5 -31 c 128,-1,8
 259 -30 259 -30 200.5 -9 c 128,-1,9
 142 12 142 12 92.5 55 c 128,-1,10
 43 98 43 98 12 167 c 0,11,12
 -23 244 -23 244 -29 319.5 c 128,-1,13
 -35 395 -35 395 -18.5 465.5 c 128,-1,14
 -2 536 -2 536 35 598 c 128,-1,15
 72 660 72 660 124 711 c 128,-1,16
 176 762 176 762 241 799 c 128,-1,17
 306 836 306 836 379 854 c 0,18,19
 449 872 449 872 510 865 c 128,-1,20
 571 858 571 858 620.5 836 c 128,-1,21
 670 814 670 814 704 782 c 128,-1,22
 738 750 738 750 756 716 c 0,23,24
 788 655 788 655 803.5 578 c 128,-1,25
 819 501 819 501 810.5 418 c 128,-1,26
 802 335 802 335 764 250.5 c 128,-1,27
 726 166 726 166 651 89 c 0,4,5
515 525 m 0,28,29
 500 557 500 557 471.5 571.5 c 128,-1,30
 443 586 443 586 410.5 584 c 128,-1,31
 378 582 378 582 344 565 c 128,-1,32
 310 548 310 548 282.5 517.5 c 128,-1,33
 255 487 255 487 237 444.5 c 128,-1,34
 219 402 219 402 219 350 c 0,35,36
 219 301 219 301 233.5 270.5 c 128,-1,37
 248 240 248 240 271 225 c 128,-1,38
 294 210 294 210 323.5 208.5 c 128,-1,39
 353 207 353 207 382.5 217 c 128,-1,40
 412 227 412 227 437.5 247 c 128,-1,41
 463 267 463 267 480 294 c 0,42,43
 506 334 506 334 517.5 367.5 c 128,-1,44
 529 401 529 401 532 430 c 128,-1,45
 535 459 535 459 529.5 483 c 128,-1,46
 524 507 524 507 515 525 c 0,28,29
EndSplineSet
Validated: 37
EndChar

StartChar: Oacute
Encoding: 211 211 104
Width: 776
GlyphClass: 2
Flags: W
LayerCount: 2
Fore
SplineSet
624 980 m 1,0,-1
 502 823 l 1,1,-1
 459 838 l 1,2,-1
 545 1045 l 1,3,-1
 624 980 l 1,0,-1
651 89 m 0,4,5
 615 52 615 52 562 24.5 c 128,-1,6
 509 -3 509 -3 448.5 -17.5 c 128,-1,7
 388 -32 388 -32 323.5 -31 c 128,-1,8
 259 -30 259 -30 200.5 -9 c 128,-1,9
 142 12 142 12 92.5 55 c 128,-1,10
 43 98 43 98 12 167 c 0,11,12
 -23 244 -23 244 -29 319.5 c 128,-1,13
 -35 395 -35 395 -18.5 465.5 c 128,-1,14
 -2 536 -2 536 35 598 c 128,-1,15
 72 660 72 660 124 711 c 128,-1,16
 176 762 176 762 241 799 c 128,-1,17
 306 836 306 836 379 854 c 0,18,19
 449 872 449 872 510 865 c 128,-1,20
 571 858 571 858 620.5 836 c 128,-1,21
 670 814 670 814 704 782 c 128,-1,22
 738 750 738 750 756 716 c 0,23,24
 788 655 788 655 803.5 578 c 128,-1,25
 819 501 819 501 810.5 418 c 128,-1,26
 802 335 802 335 764 250.5 c 128,-1,27
 726 166 726 166 651 89 c 0,4,5
515 525 m 0,28,29
 500 557 500 557 471.5 571.5 c 128,-1,30
 443 586 443 586 410.5 584 c 128,-1,31
 378 582 378 582 344 565 c 128,-1,32
 310 548 310 548 282.5 517.5 c 128,-1,33
 255 487 255 487 237 444.5 c 128,-1,34
 219 402 219 402 219 350 c 0,35,36
 219 301 219 301 233.5 270.5 c 128,-1,37
 248 240 248 240 271 225 c 128,-1,38
 294 210 294 210 323.5 208.5 c 128,-1,39
 353 207 353 207 382.5 217 c 128,-1,40
 412 227 412 227 437.5 247 c 128,-1,41
 463 267 463 267 480 294 c 0,42,43
 506 334 506 334 517.5 367.5 c 128,-1,44
 529 401 529 401 532 430 c 128,-1,45
 535 459 535 459 529.5 483 c 128,-1,46
 524 507 524 507 515 525 c 0,28,29
EndSplineSet
Validated: 37
EndChar

StartChar: Ocircumflex
Encoding: 212 212 105
Width: 776
GlyphClass: 2
Flags: W
LayerCount: 2
Fore
SplineSet
412 1014 m 1,0,-1
 623 942 l 1,1,-1
 589 877 l 1,2,-1
 431 951 l 1,3,-1
 298 862 l 1,4,-1
 245 913 l 1,5,-1
 412 1014 l 1,0,-1
651 89 m 0,6,7
 615 52 615 52 562 24.5 c 128,-1,8
 509 -3 509 -3 448.5 -17.5 c 128,-1,9
 388 -32 388 -32 323.5 -31 c 128,-1,10
 259 -30 259 -30 200.5 -9 c 128,-1,11
 142 12 142 12 92.5 55 c 128,-1,12
 43 98 43 98 12 167 c 0,13,14
 -23 244 -23 244 -29 319.5 c 128,-1,15
 -35 395 -35 395 -18.5 465.5 c 128,-1,16
 -2 536 -2 536 35 598 c 128,-1,17
 72 660 72 660 124 711 c 128,-1,18
 176 762 176 762 241 799 c 128,-1,19
 306 836 306 836 379 854 c 0,20,21
 449 872 449 872 510 865 c 128,-1,22
 571 858 571 858 620.5 836 c 128,-1,23
 670 814 670 814 704 782 c 128,-1,24
 738 750 738 750 756 716 c 0,25,26
 788 655 788 655 803.5 578 c 128,-1,27
 819 501 819 501 810.5 418 c 128,-1,28
 802 335 802 335 764 250.5 c 128,-1,29
 726 166 726 166 651 89 c 0,6,7
515 525 m 0,30,31
 500 557 500 557 471.5 571.5 c 128,-1,32
 443 586 443 586 410.5 584 c 128,-1,33
 378 582 378 582 344 565 c 128,-1,34
 310 548 310 548 282.5 517.5 c 128,-1,35
 255 487 255 487 237 444.5 c 128,-1,36
 219 402 219 402 219 350 c 0,37,38
 219 301 219 301 233.5 270.5 c 128,-1,39
 248 240 248 240 271 225 c 128,-1,40
 294 210 294 210 323.5 208.5 c 128,-1,41
 353 207 353 207 382.5 217 c 128,-1,42
 412 227 412 227 437.5 247 c 128,-1,43
 463 267 463 267 480 294 c 0,44,45
 506 334 506 334 517.5 367.5 c 128,-1,46
 529 401 529 401 532 430 c 128,-1,47
 535 459 535 459 529.5 483 c 128,-1,48
 524 507 524 507 515 525 c 0,30,31
EndSplineSet
Validated: 33
EndChar

StartChar: Otilde
Encoding: 213 213 106
Width: 776
GlyphClass: 2
Flags: W
LayerCount: 2
Fore
SplineSet
570 931 m 1,0,1
 570 931 570 931 204 862 c 1,2,-1
 209 950 l 1,3,-1
 561 1023 l 1,4,-1
 570 931 l 1,0,1
651 89 m 0,5,6
 615 52 615 52 562 24.5 c 128,-1,7
 509 -3 509 -3 448.5 -17.5 c 128,-1,8
 388 -32 388 -32 323.5 -31 c 128,-1,9
 259 -30 259 -30 200.5 -9 c 128,-1,10
 142 12 142 12 92.5 55 c 128,-1,11
 43 98 43 98 12 167 c 0,12,13
 -23 244 -23 244 -29 319.5 c 128,-1,14
 -35 395 -35 395 -18.5 465.5 c 128,-1,15
 -2 536 -2 536 35 598 c 128,-1,16
 72 660 72 660 124 711 c 128,-1,17
 176 762 176 762 241 799 c 128,-1,18
 306 836 306 836 379 854 c 0,19,20
 449 872 449 872 510 865 c 128,-1,21
 571 858 571 858 620.5 836 c 128,-1,22
 670 814 670 814 704 782 c 128,-1,23
 738 750 738 750 756 716 c 0,24,25
 788 655 788 655 803.5 578 c 128,-1,26
 819 501 819 501 810.5 418 c 128,-1,27
 802 335 802 335 764 250.5 c 128,-1,28
 726 166 726 166 651 89 c 0,5,6
515 525 m 0,29,30
 500 557 500 557 471.5 571.5 c 128,-1,31
 443 586 443 586 410.5 584 c 128,-1,32
 378 582 378 582 344 565 c 128,-1,33
 310 548 310 548 282.5 517.5 c 128,-1,34
 255 487 255 487 237 444.5 c 128,-1,35
 219 402 219 402 219 350 c 0,36,37
 219 301 219 301 233.5 270.5 c 128,-1,38
 248 240 248 240 271 225 c 128,-1,39
 294 210 294 210 323.5 208.5 c 128,-1,40
 353 207 353 207 382.5 217 c 128,-1,41
 412 227 412 227 437.5 247 c 128,-1,42
 463 267 463 267 480 294 c 0,43,44
 506 334 506 334 517.5 367.5 c 128,-1,45
 529 401 529 401 532 430 c 128,-1,46
 535 459 535 459 529.5 483 c 128,-1,47
 524 507 524 507 515 525 c 0,29,30
EndSplineSet
Validated: 33
EndChar

StartChar: Odieresis
Encoding: 214 214 107
Width: 785
GlyphClass: 2
Flags: W
LayerCount: 2
Fore
SplineSet
245 991 m 1,0,-1
 414 1004 l 1,1,-1
 431 922 l 1,2,3
 415 920 415 920 387 918 c 128,-1,4
 359 916 359 916 333 914 c 128,-1,5
 307 912 307 912 288 912 c 0,6,7
 270 912 270 912 269 914 c 0,8,9
 269 915 269 915 268 920.5 c 128,-1,10
 267 926 267 926 262 943.5 c 128,-1,11
 257 961 257 961 245 991 c 1,0,-1
648 960 m 1,12,13
 568 951 568 951 522 944 c 2,14,-1
 476 936 l 1,15,-1
 479 1017 l 1,16,-1
 639 1052 l 1,17,-1
 648 960 l 1,12,13
654 84 m 0,18,19
 617 47 617 47 564.5 19.5 c 128,-1,20
 512 -8 512 -8 451.5 -22.5 c 128,-1,21
 391 -37 391 -37 327 -36 c 128,-1,22
 263 -35 263 -35 204 -14 c 128,-1,23
 145 7 145 7 96 50 c 128,-1,24
 47 93 47 93 16 162 c 0,25,26
 -19 239 -19 239 -25.5 314.5 c 128,-1,27
 -32 390 -32 390 -15.5 460 c 128,-1,28
 1 530 1 530 38 592.5 c 128,-1,29
 75 655 75 655 127 706 c 128,-1,30
 179 757 179 757 244 793.5 c 128,-1,31
 309 830 309 830 383 850 c 0,32,33
 453 867 453 867 513.5 860.5 c 128,-1,34
 574 854 574 854 623.5 831.5 c 128,-1,35
 673 809 673 809 707 776.5 c 128,-1,36
 741 744 741 744 759 712 c 0,37,38
 791 651 791 651 806.5 573.5 c 128,-1,39
 822 496 822 496 813.5 413 c 128,-1,40
 805 330 805 330 767 245.5 c 128,-1,41
 729 161 729 161 654 84 c 0,18,19
518 520 m 0,42,43
 503 553 503 553 474.5 567.5 c 128,-1,44
 446 582 446 582 413.5 580 c 128,-1,45
 381 578 381 578 347 561 c 128,-1,46
 313 544 313 544 285.5 513.5 c 128,-1,47
 258 483 258 483 240 440 c 128,-1,48
 222 397 222 397 222 345 c 0,49,50
 221 296 221 296 236 265 c 128,-1,51
 251 234 251 234 274 219.5 c 128,-1,52
 297 205 297 205 326.5 203.5 c 128,-1,53
 356 202 356 202 385.5 212 c 128,-1,54
 415 222 415 222 440.5 242 c 128,-1,55
 466 262 466 262 483 289 c 0,56,57
 509 329 509 329 520.5 363 c 128,-1,58
 532 397 532 397 535 426 c 128,-1,59
 538 455 538 455 532.5 478.5 c 128,-1,60
 527 502 527 502 518 520 c 0,42,43
EndSplineSet
Validated: 33
EndChar

StartChar: Ugrave
Encoding: 217 217 108
Width: 698
GlyphClass: 2
Flags: W
LayerCount: 2
Fore
SplineSet
651 825 m 1,0,1
 655 701 655 701 658.5 614 c 128,-1,2
 662 527 662 527 663 474.5 c 128,-1,3
 664 422 664 422 664.5 391.5 c 128,-1,4
 665 361 665 361 665 352 c 256,5,6
 665 343 665 343 665 342 c 0,7,8
 666 281 666 281 655.5 223.5 c 128,-1,9
 645 166 645 166 618 119.5 c 128,-1,10
 591 73 591 73 544.5 39.5 c 128,-1,11
 498 6 498 6 428 -7 c 0,12,13
 323 -29 323 -29 246 -12 c 128,-1,14
 169 5 169 5 119.5 50 c 128,-1,15
 70 95 70 95 47 164 c 128,-1,16
 24 233 24 233 26 316 c 2,17,18
 26 316 26 316 26 334 c 0,19,20
 27 351 27 351 28.5 408 c 128,-1,21
 30 465 30 465 32.5 573 c 128,-1,22
 35 681 35 681 40 861 c 1,23,-1
 333 811 l 1,24,-1
 306 330 l 2,25,26
 302 303 302 303 306.5 282.5 c 128,-1,27
 311 262 311 262 316.5 253 c 128,-1,28
 322 244 322 244 323 243 c 0,29,30
 333 232 333 232 346 229.5 c 128,-1,31
 359 227 359 227 376 254 c 0,32,33
 377 255 377 255 382 267 c 128,-1,34
 387 279 387 279 392 308.5 c 128,-1,35
 397 338 397 338 395 381 c 2,36,-1
 374 774 l 1,37,-1
 651 825 l 1,0,1
402 1006 m 1,38,-1
 488 799 l 1,39,-1
 445 784 l 1,40,-1
 324 941 l 1,41,-1
 402 1006 l 1,38,-1
EndSplineSet
Validated: 37
EndChar

StartChar: Uacute
Encoding: 218 218 109
Width: 698
GlyphClass: 2
Flags: W
LayerCount: 2
Fore
SplineSet
398 944 m 1,0,-1
 276 787 l 1,1,-1
 233 802 l 1,2,-1
 319 1009 l 1,3,-1
 398 944 l 1,0,-1
651 825 m 1,4,5
 655 701 655 701 658.5 614 c 128,-1,6
 662 527 662 527 663 474.5 c 128,-1,7
 664 422 664 422 664.5 391.5 c 128,-1,8
 665 361 665 361 665 352 c 256,9,10
 665 343 665 343 665 342 c 0,11,12
 666 281 666 281 655.5 223.5 c 128,-1,13
 645 166 645 166 618 119.5 c 128,-1,14
 591 73 591 73 544.5 39.5 c 128,-1,15
 498 6 498 6 428 -7 c 0,16,17
 323 -29 323 -29 246 -12 c 128,-1,18
 169 5 169 5 119.5 50 c 128,-1,19
 70 95 70 95 47 164 c 128,-1,20
 24 233 24 233 26 316 c 2,21,22
 26 316 26 316 26 334 c 0,23,24
 27 351 27 351 28.5 408 c 128,-1,25
 30 465 30 465 32.5 573 c 128,-1,26
 35 681 35 681 40 861 c 1,27,-1
 333 811 l 1,28,-1
 306 330 l 2,29,30
 302 303 302 303 306.5 282.5 c 128,-1,31
 311 262 311 262 316.5 253 c 128,-1,32
 322 244 322 244 323 243 c 0,33,34
 333 232 333 232 346 229.5 c 128,-1,35
 359 227 359 227 376 254 c 0,36,37
 377 255 377 255 382 267 c 128,-1,38
 387 279 387 279 392 308.5 c 128,-1,39
 397 338 397 338 395 381 c 2,40,-1
 374 774 l 1,41,-1
 651 825 l 1,4,5
EndSplineSet
Validated: 37
EndChar

StartChar: Ucircumflex
Encoding: 219 219 110
Width: 690
GlyphClass: 2
Flags: W
LayerCount: 2
Fore
SplineSet
345 1014 m 1,0,-1
 555 942 l 1,1,-1
 521 877 l 1,2,-1
 364 951 l 1,3,-1
 230 862 l 1,4,-1
 178 913 l 1,5,-1
 345 1014 l 1,0,-1
649 827 m 1,6,7
 654 703 654 703 656.5 616 c 128,-1,8
 659 529 659 529 661 476.5 c 128,-1,9
 663 424 663 424 663.5 394.5 c 128,-1,10
 664 365 664 365 664 355 c 0,11,12
 664 346 664 346 664 345 c 0,13,14
 665 284 665 284 654.5 226.5 c 128,-1,15
 644 169 644 169 616.5 122.5 c 128,-1,16
 589 76 589 76 543 42.5 c 128,-1,17
 497 9 497 9 427 -4 c 0,18,19
 321 -26 321 -26 244 -9 c 128,-1,20
 167 8 167 8 117.5 53 c 128,-1,21
 68 98 68 98 45.5 167.5 c 128,-1,22
 23 237 23 237 25 319 c 2,23,24
 25 319 25 319 25 330 c 0,25,26
 25 340 25 340 26 373 c 128,-1,27
 27 406 27 406 28 465 c 128,-1,28
 29 524 29 524 32 623 c 128,-1,29
 35 722 35 722 39 864 c 1,30,-1
 332 814 l 1,31,-1
 305 333 l 2,32,33
 301 306 301 306 305.5 285.5 c 128,-1,34
 310 265 310 265 314.5 256 c 128,-1,35
 319 247 319 247 321 246 c 0,36,37
 332 235 332 235 345 232.5 c 128,-1,38
 358 230 358 230 375 257 c 0,39,40
 376 258 376 258 381 270 c 128,-1,41
 386 282 386 282 391 311 c 128,-1,42
 396 340 396 340 394 383 c 2,43,-1
 373 777 l 1,44,-1
 649 827 l 1,6,7
EndSplineSet
Validated: 33
EndChar

StartChar: Udieresis
Encoding: 220 220 111
Width: 695
GlyphClass: 2
Flags: W
LayerCount: 2
Fore
SplineSet
165 1000 m 1,0,-1
 334 1012 l 1,1,-1
 351 931 l 1,2,3
 335 929 335 929 307 926.5 c 128,-1,4
 279 924 279 924 253 922.5 c 128,-1,5
 227 921 227 921 208 921 c 0,6,7
 190 921 190 921 189 923 c 0,8,9
 189 924 189 924 188 929.5 c 128,-1,10
 187 935 187 935 182 952.5 c 128,-1,11
 177 970 177 970 165 1000 c 1,0,-1
652 828 m 1,12,13
 657 704 657 704 660 617 c 128,-1,14
 663 530 663 530 664.5 477.5 c 128,-1,15
 666 425 666 425 666 394 c 0,16,17
 666 364 666 364 666 355 c 256,18,19
 666 346 666 346 666 345 c 0,20,21
 667 284 667 284 656.5 226.5 c 128,-1,22
 646 169 646 169 619 122.5 c 128,-1,23
 592 76 592 76 546 42.5 c 128,-1,24
 500 9 500 9 430 -4 c 0,25,26
 324 -26 324 -26 247 -9 c 128,-1,27
 170 8 170 8 120.5 53 c 128,-1,28
 71 98 71 98 48 167.5 c 128,-1,29
 25 237 25 237 27 319 c 2,30,-1
 28 336 l 2,31,32
 28 354 28 354 29.5 411 c 128,-1,33
 31 468 31 468 33.5 576 c 128,-1,34
 36 684 36 684 41 864 c 1,35,-1
 335 814 l 1,36,-1
 307 333 l 2,37,38
 303 306 303 306 307.5 285.5 c 128,-1,39
 312 265 312 265 317.5 256 c 128,-1,40
 323 247 323 247 324 246 c 0,41,42
 334 235 334 235 347.5 232.5 c 128,-1,43
 361 230 361 230 378 257 c 0,44,45
 379 258 379 258 384 270 c 128,-1,46
 389 282 389 282 393.5 311.5 c 128,-1,47
 398 341 398 341 396 384 c 2,48,-1
 375 777 l 1,49,-1
 652 828 l 1,12,13
569 969 m 1,50,51
 489 960 489 960 443 952 c 2,52,-1
 397 945 l 1,53,-1
 400 1026 l 1,54,-1
 560 1061 l 1,55,-1
 569 969 l 1,50,51
EndSplineSet
Validated: 33
EndChar

StartChar: agrave
Encoding: 224 224 112
Width: 601
GlyphClass: 2
Flags: W
LayerCount: 2
Fore
SplineSet
358 -13 m 1,0,-1
 563 5 l 1,1,-1
 574 391 l 2,2,3
 576 452 576 452 555 494.5 c 128,-1,4
 534 537 534 537 497 563.5 c 128,-1,5
 460 590 460 590 412 601.5 c 128,-1,6
 364 613 364 613 313 613 c 0,7,8
 259 613 259 613 205.5 607.5 c 128,-1,9
 152 602 152 602 103 588 c 1,10,-1
 63 425 l 1,11,12
 102 437 102 437 141 446.5 c 128,-1,13
 180 456 180 456 225 456 c 0,14,15
 250 456 250 456 270.5 453 c 128,-1,16
 291 450 291 450 306 441 c 128,-1,17
 321 432 321 432 329 416.5 c 128,-1,18
 337 401 337 401 337 378 c 2,19,-1
 337 347 l 1,20,21
 314 364 314 364 281.5 378 c 128,-1,22
 249 392 249 392 203 392 c 0,23,24
 158 392 158 392 119.5 377 c 128,-1,25
 81 362 81 362 52.5 336 c 128,-1,26
 24 310 24 310 7.5 275 c 128,-1,27
 -9 240 -9 240 -9 198 c 0,28,29
 -9 150 -9 150 7.5 111 c 128,-1,30
 24 72 24 72 51.5 44 c 128,-1,31
 79 16 79 16 116 1.5 c 128,-1,32
 153 -13 153 -13 194 -13 c 0,33,34
 244 -13 244 -13 286.5 2 c 128,-1,35
 329 17 329 17 356 56 c 1,36,-1
 358 56 l 1,37,-1
 358 -13 l 1,0,-1
228 246 m 0,38,39
 271 253 271 253 294 239 c 128,-1,40
 317 225 317 225 321 206 c 0,41,42
 324 183 324 183 304.5 163.5 c 128,-1,43
 285 144 285 144 245 138 c 256,44,45
 205 132 205 132 180 144 c 128,-1,46
 155 156 155 156 152 179 c 0,47,48
 148 203 148 203 170 222 c 128,-1,49
 192 241 192 241 228 246 c 0,38,39
295 852 m 1,50,-1
 410 683 l 1,51,-1
 329 641 l 1,52,-1
 146 770 l 1,53,-1
 295 852 l 1,50,-1
EndSplineSet
Validated: 41
EndChar

StartChar: aacute
Encoding: 225 225 113
Width: 601
GlyphClass: 2
Flags: W
LayerCount: 2
Fore
SplineSet
450 770 m 1,0,-1
 266 641 l 1,1,-1
 186 683 l 1,2,-1
 301 852 l 1,3,-1
 450 770 l 1,0,-1
358 -13 m 1,4,-1
 563 5 l 1,5,-1
 574 391 l 2,6,7
 576 452 576 452 555 494.5 c 128,-1,8
 534 537 534 537 497 563.5 c 128,-1,9
 460 590 460 590 412 601.5 c 128,-1,10
 364 613 364 613 313 613 c 0,11,12
 259 613 259 613 205.5 607.5 c 128,-1,13
 152 602 152 602 103 588 c 1,14,-1
 63 425 l 1,15,16
 102 437 102 437 141 446.5 c 128,-1,17
 180 456 180 456 225 456 c 0,18,19
 250 456 250 456 270.5 453 c 128,-1,20
 291 450 291 450 306 441 c 128,-1,21
 321 432 321 432 329 416.5 c 128,-1,22
 337 401 337 401 337 378 c 2,23,-1
 337 347 l 1,24,25
 314 364 314 364 281.5 378 c 128,-1,26
 249 392 249 392 203 392 c 0,27,28
 158 392 158 392 119.5 377 c 128,-1,29
 81 362 81 362 52.5 336 c 128,-1,30
 24 310 24 310 7.5 275 c 128,-1,31
 -9 240 -9 240 -9 198 c 0,32,33
 -9 150 -9 150 7.5 111 c 128,-1,34
 24 72 24 72 51.5 44 c 128,-1,35
 79 16 79 16 116 1.5 c 128,-1,36
 153 -13 153 -13 194 -13 c 0,37,38
 244 -13 244 -13 286.5 2 c 128,-1,39
 329 17 329 17 356 56 c 1,40,-1
 358 56 l 1,41,-1
 358 -13 l 1,4,-1
228 246 m 0,42,43
 271 253 271 253 294 239 c 128,-1,44
 317 225 317 225 321 206 c 0,45,46
 324 183 324 183 304.5 163.5 c 128,-1,47
 285 144 285 144 245 138 c 256,48,49
 205 132 205 132 180 144 c 128,-1,50
 155 156 155 156 152 179 c 0,51,52
 148 203 148 203 170 222 c 128,-1,53
 192 241 192 241 228 246 c 0,42,43
EndSplineSet
Validated: 41
EndChar

StartChar: acircumflex
Encoding: 226 226 114
Width: 606
GlyphClass: 2
Flags: W
LayerCount: 2
Fore
SplineSet
354 -7 m 1,0,-1
 560 11 l 1,1,-1
 571 397 l 2,2,3
 572 458 572 458 550.5 500.5 c 128,-1,4
 529 543 529 543 493 569.5 c 128,-1,5
 457 596 457 596 408.5 608 c 128,-1,6
 360 620 360 620 310 620 c 0,7,8
 255 620 255 620 201.5 614 c 128,-1,9
 148 608 148 608 99 594 c 1,10,-1
 59 431 l 1,11,12
 98 443 98 443 137.5 452.5 c 128,-1,13
 177 462 177 462 222 462 c 0,14,15
 247 462 247 462 267 459 c 128,-1,16
 287 456 287 456 301.5 447 c 128,-1,17
 316 438 316 438 324.5 423 c 128,-1,18
 333 408 333 408 333 384 c 2,19,-1
 333 353 l 1,20,21
 310 370 310 370 278 384 c 128,-1,22
 246 398 246 398 199 398 c 0,23,24
 154 398 154 398 115.5 383.5 c 128,-1,25
 77 369 77 369 48.5 342.5 c 128,-1,26
 20 316 20 316 4 281 c 128,-1,27
 -12 246 -12 246 -12 204 c 0,28,29
 -12 156 -12 156 4 117 c 128,-1,30
 20 78 20 78 48 50.5 c 128,-1,31
 76 23 76 23 112 8 c 128,-1,32
 148 -7 148 -7 189 -7 c 0,33,34
 239 -7 239 -7 282 8.5 c 128,-1,35
 325 24 325 24 352 62 c 1,36,-1
 354 62 l 1,37,-1
 354 -7 l 1,0,-1
224 252 m 0,38,39
 267 259 267 259 290 245 c 128,-1,40
 313 231 313 231 316 212 c 0,41,42
 320 189 320 189 301 170 c 128,-1,43
 282 151 282 151 242 144 c 0,44,45
 202 138 202 138 177 150 c 128,-1,46
 152 162 152 162 147 185 c 0,47,48
 144 209 144 209 166.5 228 c 128,-1,49
 189 247 189 247 224 252 c 0,38,39
308 739 m 1,50,-1
 244 653 l 1,51,-1
 115 712 l 1,52,-1
 229 823 l 1,53,-1
 386 823 l 1,54,-1
 495 705 l 1,55,-1
 371 653 l 1,56,-1
 308 739 l 1,50,-1
EndSplineSet
Validated: 41
EndChar

StartChar: atilde
Encoding: 227 227 115
Width: 601
GlyphClass: 2
Flags: W
LayerCount: 2
Fore
SplineSet
454 674 m 1,0,-1
 148 678 l 1,1,-1
 136 776 l 1,2,-1
 443 784 l 1,3,-1
 454 674 l 1,0,-1
358 -13 m 1,4,-1
 563 5 l 1,5,-1
 574 391 l 2,6,7
 576 452 576 452 555 494.5 c 128,-1,8
 534 537 534 537 497 563.5 c 128,-1,9
 460 590 460 590 412 601.5 c 128,-1,10
 364 613 364 613 313 613 c 0,11,12
 259 613 259 613 205.5 607.5 c 128,-1,13
 152 602 152 602 103 588 c 1,14,-1
 63 425 l 1,15,16
 102 437 102 437 141 446.5 c 128,-1,17
 180 456 180 456 225 456 c 0,18,19
 250 456 250 456 270.5 453 c 128,-1,20
 291 450 291 450 306 441 c 128,-1,21
 321 432 321 432 329 416.5 c 128,-1,22
 337 401 337 401 337 378 c 2,23,-1
 337 347 l 1,24,25
 314 364 314 364 281.5 378 c 128,-1,26
 249 392 249 392 203 392 c 0,27,28
 158 392 158 392 119.5 377 c 128,-1,29
 81 362 81 362 52.5 336 c 128,-1,30
 24 310 24 310 7.5 275 c 128,-1,31
 -9 240 -9 240 -9 198 c 0,32,33
 -9 150 -9 150 7.5 111 c 128,-1,34
 24 72 24 72 51.5 44 c 128,-1,35
 79 16 79 16 116 1.5 c 128,-1,36
 153 -13 153 -13 194 -13 c 0,37,38
 244 -13 244 -13 286.5 2 c 128,-1,39
 329 17 329 17 356 56 c 1,40,-1
 358 56 l 1,41,-1
 358 -13 l 1,4,-1
228 246 m 0,42,43
 271 253 271 253 294 239 c 128,-1,44
 317 225 317 225 321 206 c 0,45,46
 324 183 324 183 304.5 163.5 c 128,-1,47
 285 144 285 144 245 138 c 256,48,49
 205 132 205 132 180 144 c 128,-1,50
 155 156 155 156 152 179 c 0,51,52
 148 203 148 203 170 222 c 128,-1,53
 192 241 192 241 228 246 c 0,42,43
EndSplineSet
Validated: 41
EndChar

StartChar: adieresis
Encoding: 228 228 116
Width: 617
GlyphClass: 2
Flags: W
LayerCount: 2
Fore
SplineSet
492 698 m 1,0,-1
 355 699 l 1,1,-1
 343 798 l 1,2,-1
 480 808 l 1,3,-1
 492 698 l 1,0,-1
275 698 m 1,4,-1
 139 699 l 1,5,-1
 127 798 l 1,6,-1
 264 808 l 1,7,-1
 275 698 l 1,4,-1
357 70 m 1,8,-1
 355 70 l 1,9,10
 327 31 327 31 285 15.5 c 128,-1,11
 243 0 243 0 194 0 c 0,12,13
 153 0 153 0 116 15 c 128,-1,14
 79 30 79 30 51.5 57.5 c 128,-1,15
 24 85 24 85 7.5 124 c 128,-1,16
 -9 163 -9 163 -9 211 c 0,17,18
 -9 253 -9 253 7.5 288.5 c 128,-1,19
 24 324 24 324 52 350 c 128,-1,20
 80 376 80 376 118.5 391 c 128,-1,21
 157 406 157 406 202 406 c 0,22,23
 249 406 249 406 281 392 c 128,-1,24
 313 378 313 378 336 360 c 1,25,-1
 336 391 l 2,26,27
 336 438 336 438 305 453.5 c 128,-1,28
 274 469 274 469 225 469 c 0,29,30
 180 469 180 469 141 460 c 128,-1,31
 102 451 102 451 62 438 c 1,32,-1
 102 601 l 1,33,34
 151 615 151 615 204.5 621 c 128,-1,35
 258 627 258 627 313 627 c 0,36,37
 363 627 363 627 411.5 615 c 128,-1,38
 460 603 460 603 496 576.5 c 128,-1,39
 532 550 532 550 553.5 508 c 128,-1,40
 575 466 575 466 574 404 c 2,41,-1
 563 17 l 1,42,-1
 357 0 l 1,43,-1
 357 70 l 1,8,-1
227 259 m 0,44,45
 192 254 192 254 169.5 235 c 128,-1,46
 147 216 147 216 151 193 c 0,47,48
 155 169 155 169 180 157 c 128,-1,49
 205 145 205 145 245 152 c 0,50,51
 285 158 285 158 304.5 177.5 c 128,-1,52
 324 197 324 197 319 219 c 0,53,54
 316 238 316 238 293 252 c 128,-1,55
 270 266 270 266 227 259 c 0,44,45
EndSplineSet
Validated: 33
EndChar

StartChar: ccedilla
Encoding: 231 231 117
Width: 528
GlyphClass: 2
Flags: W
LayerCount: 2
Fore
SplineSet
548 60 m 1,0,1
 502 19 502 19 446 2.5 c 128,-1,2
 390 -14 390 -14 335 -17 c 1,3,-1
 305 -84 l 1,4,-1
 212 -59 l 1,5,-1
 244 -11 l 1,6,7
 188 -1 188 -1 140 26 c 128,-1,8
 92 53 92 53 58 92.5 c 128,-1,9
 24 132 24 132 5 181.5 c 128,-1,10
 -14 231 -14 231 -14 288 c 0,11,12
 -14 363 -14 363 11.5 422.5 c 128,-1,13
 37 482 37 482 82.5 523.5 c 128,-1,14
 128 565 128 565 190.5 587 c 128,-1,15
 253 609 253 609 326 609 c 256,16,17
 399 609 399 609 453 585.5 c 128,-1,18
 507 562 507 562 544 538 c 1,19,-1
 409 361 l 1,20,21
 395 372 395 372 375.5 379.5 c 128,-1,22
 356 387 356 387 336.5 389.5 c 128,-1,23
 317 392 317 392 299.5 391 c 128,-1,24
 282 390 282 390 270 384 c 0,25,26
 251 374 251 374 237 360 c 128,-1,27
 223 346 223 346 215.5 329.5 c 128,-1,28
 208 313 208 313 208.5 294.5 c 128,-1,29
 209 276 209 276 219 257 c 0,30,31
 239 216 239 216 277 206.5 c 128,-1,32
 315 197 315 197 357 217 c 2,33,-1
 410 245 l 1,34,-1
 548 60 l 1,0,1
EndSplineSet
Validated: 33
EndChar

StartChar: egrave
Encoding: 232 232 118
Width: 592
GlyphClass: 2
Flags: W
LayerCount: 2
Fore
SplineSet
333 853 m 1,0,-1
 447 684 l 1,1,-1
 368 642 l 1,2,-1
 184 771 l 1,3,-1
 333 853 l 1,0,-1
361 407 m 1,4,-1
 208 292 l 1,5,6
 205 300 205 300 202 307 c 128,-1,7
 199 314 199 314 199 334 c 0,8,9
 199 353 199 353 205.5 371.5 c 128,-1,10
 212 390 212 390 224.5 404.5 c 128,-1,11
 237 419 237 419 254 428 c 128,-1,12
 271 437 271 437 292 437 c 0,13,14
 314 437 314 437 330.5 431 c 128,-1,15
 347 425 347 425 361 407 c 1,4,-1
581 72 m 1,16,-1
 479 238 l 1,17,18
 451 214 451 214 419 197 c 128,-1,19
 387 180 387 180 341 180 c 0,20,21
 326 180 326 180 307.5 182 c 128,-1,22
 289 184 289 184 276 190 c 1,23,-1
 584 422 l 1,24,25
 547 509 547 509 471.5 561 c 128,-1,26
 396 613 396 613 294 613 c 0,27,28
 231 613 231 613 174.5 591 c 128,-1,29
 118 569 118 569 76 526.5 c 128,-1,30
 34 484 34 484 9.5 424 c 128,-1,31
 -15 364 -15 364 -15 287 c 0,32,33
 -15 226 -15 226 8.5 171 c 128,-1,34
 32 116 32 116 74 75 c 128,-1,35
 116 34 116 34 174 10 c 128,-1,36
 232 -14 232 -14 302 -14 c 0,37,38
 387 -14 387 -14 453 6.5 c 128,-1,39
 519 27 519 27 581 72 c 1,16,-1
EndSplineSet
Validated: 9
EndChar

StartChar: eacute
Encoding: 233 233 119
Width: 599
GlyphClass: 2
Flags: W
LayerCount: 2
Fore
SplineSet
450 770 m 1,0,-1
 266 641 l 1,1,-1
 186 683 l 1,2,-1
 301 852 l 1,3,-1
 450 770 l 1,0,-1
296 612 m 0,4,5
 398 612 398 612 473.5 560 c 128,-1,6
 549 508 549 508 586 421 c 1,7,-1
 279 189 l 1,8,9
 291 183 291 183 309.5 181 c 128,-1,10
 328 179 328 179 343 179 c 0,11,12
 389 179 389 179 421.5 196 c 128,-1,13
 454 213 454 213 481 237 c 1,14,-1
 582 71 l 1,15,16
 521 26 521 26 454.5 5.5 c 128,-1,17
 388 -15 388 -15 304 -15 c 0,18,19
 234 -15 234 -15 176 9 c 128,-1,20
 118 33 118 33 76 74 c 128,-1,21
 34 115 34 115 10.5 169.5 c 128,-1,22
 -13 224 -13 224 -13 286 c 0,23,24
 -13 363 -13 363 11.5 423 c 128,-1,25
 36 483 36 483 78 525.5 c 128,-1,26
 120 568 120 568 176.5 590 c 128,-1,27
 233 612 233 612 296 612 c 0,4,5
210 291 m 1,28,-1
 364 407 l 1,29,30
 350 424 350 424 332.5 430 c 128,-1,31
 315 436 315 436 294 436 c 0,32,33
 274 436 274 436 256.5 427 c 128,-1,34
 239 418 239 418 226.5 403.5 c 128,-1,35
 214 389 214 389 207.5 370.5 c 128,-1,36
 201 352 201 352 201 333 c 256,37,38
 201 314 201 314 204 306.5 c 128,-1,39
 207 299 207 299 210 291 c 1,28,-1
EndSplineSet
Validated: 1
EndChar

StartChar: ecircumflex
Encoding: 234 234 120
Width: 592
GlyphClass: 2
Flags: W
LayerCount: 2
Fore
SplineSet
304 735 m 1,0,-1
 241 649 l 1,1,-1
 112 708 l 1,2,-1
 225 819 l 1,3,-1
 383 819 l 1,4,-1
 490 700 l 1,5,-1
 368 649 l 1,6,-1
 304 735 l 1,0,-1
296 614 m 0,7,8
 398 614 398 614 473.5 562 c 128,-1,9
 549 510 549 510 586 423 c 1,10,-1
 280 191 l 1,11,12
 291 185 291 185 309.5 183 c 128,-1,13
 328 181 328 181 343 181 c 0,14,15
 389 181 389 181 422 198 c 128,-1,16
 455 215 455 215 481 239 c 1,17,-1
 583 73 l 1,18,19
 521 28 521 28 455 7.5 c 128,-1,20
 389 -13 389 -13 304 -13 c 0,21,22
 234 -13 234 -13 176.5 11 c 128,-1,23
 119 35 119 35 77 76 c 128,-1,24
 35 117 35 117 11.5 171.5 c 128,-1,25
 -12 226 -12 226 -12 288 c 0,26,27
 -12 365 -12 365 12.5 425 c 128,-1,28
 37 485 37 485 79 527.5 c 128,-1,29
 121 570 121 570 177 592 c 128,-1,30
 233 614 233 614 296 614 c 0,7,8
210 293 m 1,31,-1
 364 409 l 1,32,33
 350 426 350 426 332.5 432 c 128,-1,34
 315 438 315 438 294 438 c 0,35,36
 274 438 274 438 257 429 c 128,-1,37
 240 420 240 420 227.5 405.5 c 128,-1,38
 215 391 215 391 208.5 372.5 c 128,-1,39
 202 354 202 354 202 335 c 256,40,41
 202 316 202 316 204.5 308.5 c 128,-1,42
 207 301 207 301 210 293 c 1,31,-1
EndSplineSet
Validated: 1
EndChar

StartChar: edieresis
Encoding: 235 235 121
Width: 598
GlyphClass: 2
Flags: W
LayerCount: 2
Fore
SplineSet
343 185 m 0,0,1
 389 185 389 185 422 202 c 128,-1,2
 455 219 455 219 481 243 c 1,3,-1
 583 77 l 1,4,5
 521 32 521 32 455 11.5 c 128,-1,6
 389 -9 389 -9 304 -9 c 0,7,8
 234 -9 234 -9 176.5 15 c 128,-1,9
 119 39 119 39 77 80 c 128,-1,10
 35 121 35 121 11.5 175.5 c 128,-1,11
 -12 230 -12 230 -12 292 c 0,12,13
 -12 369 -12 369 12.5 429 c 128,-1,14
 37 489 37 489 79 531.5 c 128,-1,15
 121 574 121 574 176.5 596 c 128,-1,16
 232 618 232 618 296 618 c 0,17,18
 398 618 398 618 473.5 566 c 128,-1,19
 549 514 549 514 586 427 c 1,20,-1
 280 196 l 1,21,22
 291 190 291 190 309.5 187.5 c 128,-1,23
 328 185 328 185 343 185 c 0,0,1
202 339 m 256,24,25
 202 320 202 320 204.5 312.5 c 128,-1,26
 207 305 207 305 210 297 c 1,27,-1
 364 413 l 1,28,29
 350 430 350 430 332.5 436 c 128,-1,30
 315 442 315 442 294 442 c 0,31,32
 274 442 274 442 257 433 c 128,-1,33
 240 424 240 424 227.5 409.5 c 128,-1,34
 215 395 215 395 208.5 376.5 c 128,-1,35
 202 358 202 358 202 339 c 256,24,25
480 705 m 1,36,-1
 344 706 l 1,37,-1
 333 804 l 1,38,-1
 469 814 l 1,39,-1
 480 705 l 1,36,-1
264 705 m 1,40,-1
 128 706 l 1,41,-1
 117 804 l 1,42,-1
 253 814 l 1,43,-1
 264 705 l 1,40,-1
EndSplineSet
Validated: 1
EndChar

StartChar: igrave
Encoding: 236 236 122
Width: 336
GlyphClass: 2
Flags: W
LayerCount: 2
Fore
SplineSet
108 848 m 1,0,-1
 222 679 l 1,1,-1
 143 637 l 1,2,-1
 -41 766 l 1,3,-1
 108 848 l 1,0,-1
63 -8 m 1,4,-1
 269 10 l 1,5,-1
 286 601 l 1,6,-1
 63 583 l 1,7,-1
 63 -8 l 1,4,-1
EndSplineSet
Validated: 9
EndChar

StartChar: iacute
Encoding: 237 237 123
Width: 336
GlyphClass: 2
Flags: W
LayerCount: 2
Fore
SplineSet
399 779 m 1,0,-1
 215 650 l 1,1,-1
 135 692 l 1,2,-1
 250 861 l 1,3,-1
 399 779 l 1,0,-1
63 -8 m 1,4,-1
 269 10 l 1,5,-1
 286 601 l 1,6,-1
 63 583 l 1,7,-1
 63 -8 l 1,4,-1
EndSplineSet
Validated: 9
EndChar

StartChar: icircumflex
Encoding: 238 238 124
Width: 336
GlyphClass: 2
Flags: W
LayerCount: 2
Fore
SplineSet
243 815 m 1,0,-1
 350 696 l 1,1,-1
 227 645 l 1,2,-1
 164 731 l 1,3,-1
 100 645 l 1,4,-1
 -29 703 l 1,5,-1
 85 815 l 1,6,-1
 243 815 l 1,0,-1
63 -8 m 1,7,-1
 269 10 l 1,8,-1
 286 601 l 1,9,-1
 63 583 l 1,10,-1
 63 -8 l 1,7,-1
EndSplineSet
Validated: 9
EndChar

StartChar: idieresis
Encoding: 239 239 125
Width: 330
GlyphClass: 2
Flags: W
LayerCount: 2
Fore
SplineSet
341 696 m 1,0,-1
 206 697 l 1,1,-1
 194 796 l 1,2,-1
 330 806 l 1,3,-1
 341 696 l 1,0,-1
125 696 m 1,4,-1
 -10 697 l 1,5,-1
 -23 796 l 1,6,-1
 114 806 l 1,7,-1
 125 696 l 1,4,-1
57 -8 m 1,8,-1
 263 10 l 1,9,-1
 280 601 l 1,10,-1
 57 583 l 1,11,-1
 57 -8 l 1,8,-1
EndSplineSet
Validated: 9
EndChar

StartChar: ntilde
Encoding: 241 241 126
Width: 605
GlyphClass: 2
Flags: W
LayerCount: 2
Fore
SplineSet
454 674 m 1,0,-1
 148 678 l 1,1,-1
 136 776 l 1,2,-1
 443 784 l 1,3,-1
 454 674 l 1,0,-1
242 526 m 1,4,-1
 246 526 l 1,5,6
 280 572 280 572 315 588.5 c 128,-1,7
 350 605 350 605 392 605 c 0,8,9
 435 605 435 605 468 589.5 c 128,-1,10
 501 574 501 574 523.5 546.5 c 128,-1,11
 546 519 546 519 557.5 482 c 128,-1,12
 569 445 569 445 569 402 c 2,13,-1
 569 6 l 1,14,-1
 348 -12 l 1,15,-1
 351 360 l 2,16,17
 352 378 352 378 337.5 390.5 c 128,-1,18
 323 403 323 403 302 403 c 0,19,20
 283 403 283 403 267 391.5 c 128,-1,21
 251 380 251 380 251 359 c 2,22,-1
 255 -10 l 1,23,-1
 37 5 l 1,24,-1
 29 588 l 1,25,-1
 242 605 l 1,26,-1
 242 526 l 1,4,-1
EndSplineSet
Validated: 33
EndChar

StartChar: ograve
Encoding: 242 242 127
Width: 623
GlyphClass: 2
Flags: W
LayerCount: 2
Fore
SplineSet
295 852 m 1,0,-1
 410 683 l 1,1,-1
 329 641 l 1,2,-1
 146 770 l 1,3,-1
 295 852 l 1,0,-1
635 343 m 256,4,5
 625 414 625 414 592 468 c 128,-1,6
 559 522 559 522 510 556.5 c 128,-1,7
 461 591 461 591 399 604 c 128,-1,8
 337 617 337 617 268 608 c 256,9,10
 199 599 199 599 143.5 569 c 128,-1,11
 88 539 88 539 50 492 c 128,-1,12
 12 445 12 445 -5 384.5 c 128,-1,13
 -22 324 -22 324 -11 253 c 0,14,15
 -1 182 -1 182 32 128 c 128,-1,16
 65 74 65 74 114 39.5 c 128,-1,17
 163 5 163 5 225 -8.5 c 128,-1,18
 287 -22 287 -22 355 -12 c 0,19,20
 424 -3 424 -3 480 27 c 128,-1,21
 536 57 536 57 573.5 104 c 128,-1,22
 611 151 611 151 628 211.5 c 128,-1,23
 645 272 645 272 635 343 c 256,4,5
205 256 m 0,24,25
 188 295 188 295 205.5 331 c 128,-1,26
 223 367 223 367 271 387 c 256,27,28
 319 407 319 407 357 394.5 c 128,-1,29
 395 382 395 382 412 343 c 0,30,31
 429 303 429 303 411 267.5 c 128,-1,32
 393 232 393 232 345 212 c 256,33,34
 297 192 297 192 259.5 204 c 128,-1,35
 222 216 222 216 205 256 c 0,24,25
EndSplineSet
Validated: 41
EndChar

StartChar: oacute
Encoding: 243 243 128
Width: 623
GlyphClass: 2
Flags: W
LayerCount: 2
Fore
SplineSet
450 770 m 1,0,-1
 266 641 l 1,1,-1
 186 683 l 1,2,-1
 301 852 l 1,3,-1
 450 770 l 1,0,-1
635 343 m 256,4,5
 625 414 625 414 592 468 c 128,-1,6
 559 522 559 522 510 556.5 c 128,-1,7
 461 591 461 591 399 604 c 128,-1,8
 337 617 337 617 268 608 c 256,9,10
 199 599 199 599 143.5 569 c 128,-1,11
 88 539 88 539 50 492 c 128,-1,12
 12 445 12 445 -5 384.5 c 128,-1,13
 -22 324 -22 324 -11 253 c 0,14,15
 -1 182 -1 182 32 128 c 128,-1,16
 65 74 65 74 114 39.5 c 128,-1,17
 163 5 163 5 225 -8.5 c 128,-1,18
 287 -22 287 -22 355 -12 c 0,19,20
 424 -3 424 -3 480 27 c 128,-1,21
 536 57 536 57 573.5 104 c 128,-1,22
 611 151 611 151 628 211.5 c 128,-1,23
 645 272 645 272 635 343 c 256,4,5
205 256 m 0,24,25
 188 295 188 295 205.5 331 c 128,-1,26
 223 367 223 367 271 387 c 256,27,28
 319 407 319 407 357 394.5 c 128,-1,29
 395 382 395 382 412 343 c 0,30,31
 429 303 429 303 411 267.5 c 128,-1,32
 393 232 393 232 345 212 c 256,33,34
 297 192 297 192 259.5 204 c 128,-1,35
 222 216 222 216 205 256 c 0,24,25
EndSplineSet
Validated: 41
EndChar

StartChar: ocircumflex
Encoding: 244 244 129
Width: 623
GlyphClass: 2
Flags: W
LayerCount: 2
Fore
SplineSet
635 343 m 256,0,1
 625 414 625 414 592 468 c 128,-1,2
 559 522 559 522 510 556.5 c 128,-1,3
 461 591 461 591 399 604 c 128,-1,4
 337 617 337 617 268 608 c 256,5,6
 199 599 199 599 143.5 569 c 128,-1,7
 88 539 88 539 50 492 c 128,-1,8
 12 445 12 445 -5 384.5 c 128,-1,9
 -22 324 -22 324 -11 253 c 0,10,11
 -1 182 -1 182 32 128 c 128,-1,12
 65 74 65 74 114 39.5 c 128,-1,13
 163 5 163 5 225 -8.5 c 128,-1,14
 287 -22 287 -22 355 -12 c 0,15,16
 424 -3 424 -3 480 27 c 128,-1,17
 536 57 536 57 573.5 104 c 128,-1,18
 611 151 611 151 628 211.5 c 128,-1,19
 645 272 645 272 635 343 c 256,0,1
205 256 m 0,20,21
 188 295 188 295 205.5 331 c 128,-1,22
 223 367 223 367 271 387 c 256,23,24
 319 407 319 407 357 394.5 c 128,-1,25
 395 382 395 382 412 343 c 0,26,27
 429 303 429 303 411 267.5 c 128,-1,28
 393 232 393 232 345 212 c 256,29,30
 297 192 297 192 259.5 204 c 128,-1,31
 222 216 222 216 205 256 c 0,20,21
393 819 m 1,32,-1
 502 700 l 1,33,-1
 378 649 l 1,34,-1
 315 735 l 1,35,-1
 251 649 l 1,36,-1
 122 708 l 1,37,-1
 237 819 l 1,38,-1
 393 819 l 1,32,-1
EndSplineSet
Validated: 41
EndChar

StartChar: otilde
Encoding: 245 245 130
Width: 623
GlyphClass: 2
Flags: W
LayerCount: 2
Fore
SplineSet
454 674 m 1,0,-1
 148 678 l 1,1,-1
 136 776 l 1,2,-1
 443 784 l 1,3,-1
 454 674 l 1,0,-1
635 343 m 256,4,5
 625 414 625 414 592 468 c 128,-1,6
 559 522 559 522 510 556.5 c 128,-1,7
 461 591 461 591 399 604 c 128,-1,8
 337 617 337 617 268 608 c 256,9,10
 199 599 199 599 143.5 569 c 128,-1,11
 88 539 88 539 50 492 c 128,-1,12
 12 445 12 445 -5 384.5 c 128,-1,13
 -22 324 -22 324 -11 253 c 0,14,15
 -1 182 -1 182 32 128 c 128,-1,16
 65 74 65 74 114 39.5 c 128,-1,17
 163 5 163 5 225 -8.5 c 128,-1,18
 287 -22 287 -22 355 -12 c 0,19,20
 424 -3 424 -3 480 27 c 128,-1,21
 536 57 536 57 573.5 104 c 128,-1,22
 611 151 611 151 628 211.5 c 128,-1,23
 645 272 645 272 635 343 c 256,4,5
205 256 m 0,24,25
 188 295 188 295 205.5 331 c 128,-1,26
 223 367 223 367 271 387 c 256,27,28
 319 407 319 407 357 394.5 c 128,-1,29
 395 382 395 382 412 343 c 0,30,31
 429 303 429 303 411 267.5 c 128,-1,32
 393 232 393 232 345 212 c 256,33,34
 297 192 297 192 259.5 204 c 128,-1,35
 222 216 222 216 205 256 c 0,24,25
EndSplineSet
Validated: 41
EndChar

StartChar: odieresis
Encoding: 246 246 131
Width: 631
GlyphClass: 2
Flags: W
LayerCount: 2
Fore
SplineSet
494 702 m 1,0,-1
 357 703 l 1,1,-1
 345 801 l 1,2,-1
 482 812 l 1,3,-1
 494 702 l 1,0,-1
278 702 m 1,4,-1
 141 703 l 1,5,-1
 129 801 l 1,6,-1
 266 812 l 1,7,-1
 278 702 l 1,4,-1
638 352 m 256,8,9
 648 281 648 281 631 220.5 c 128,-1,10
 614 160 614 160 577 113.5 c 128,-1,11
 540 67 540 67 484 36.5 c 128,-1,12
 428 6 428 6 359 -3 c 256,13,14
 290 -12 290 -12 228 1 c 128,-1,15
 166 14 166 14 117 48.5 c 128,-1,16
 68 83 68 83 35 136.5 c 128,-1,17
 2 190 2 190 -7 261 c 0,18,19
 -17 332 -17 332 -0.5 393 c 128,-1,20
 16 454 16 454 53.5 501 c 128,-1,21
 91 548 91 548 147 578 c 128,-1,22
 203 608 203 608 271 617 c 0,23,24
 340 626 340 626 402 613 c 128,-1,25
 464 600 464 600 513 565.5 c 128,-1,26
 562 531 562 531 595 477 c 128,-1,27
 628 423 628 423 638 352 c 256,8,9
208 265 m 0,28,29
 225 225 225 225 263 213 c 128,-1,30
 301 201 301 201 349 221 c 0,31,32
 396 241 396 241 414 276.5 c 128,-1,33
 432 312 432 312 416 352 c 0,34,35
 399 391 399 391 361 404 c 128,-1,36
 323 417 323 417 275 396 c 0,37,38
 227 376 227 376 209.5 340 c 128,-1,39
 192 304 192 304 208 265 c 0,28,29
EndSplineSet
Validated: 33
EndChar

StartChar: divide
Encoding: 247 247 132
Width: 818
GlyphClass: 2
Flags: W
LayerCount: 2
Fore
SplineSet
430 0 m 0,0,1
 401 -10 401 -10 373 -11 c 128,-1,2
 345 -12 345 -12 322 -5.5 c 128,-1,3
 299 1 299 1 282 14.5 c 128,-1,4
 265 28 265 28 259 48 c 0,5,6
 252 67 252 67 257 88.5 c 128,-1,7
 262 110 262 110 276.5 129 c 128,-1,8
 291 148 291 148 313.5 164.5 c 128,-1,9
 336 181 336 181 365 190 c 0,10,11
 394 200 394 200 422 201.5 c 128,-1,12
 450 203 450 203 473 196 c 128,-1,13
 496 189 496 189 512.5 175.5 c 128,-1,14
 529 162 529 162 536 142 c 0,15,16
 543 123 543 123 537.5 102 c 128,-1,17
 532 81 532 81 518 61.5 c 128,-1,18
 504 42 504 42 481.5 25.5 c 128,-1,19
 459 9 459 9 430 0 c 0,0,1
473 492 m 0,20,21
 444 482 444 482 416 480.5 c 128,-1,22
 388 479 388 479 365 486 c 128,-1,23
 342 493 342 493 325 506 c 128,-1,24
 308 519 308 519 301 540 c 0,25,26
 295 559 295 559 299.5 580 c 128,-1,27
 304 601 304 601 319 620.5 c 128,-1,28
 334 640 334 640 356.5 656.5 c 128,-1,29
 379 673 379 673 408 682 c 0,30,31
 437 692 437 692 465 693 c 128,-1,32
 493 694 493 694 516 687.5 c 128,-1,33
 539 681 539 681 555.5 667 c 128,-1,34
 572 653 572 653 579 634 c 128,-1,35
 586 615 586 615 580.5 593.5 c 128,-1,36
 575 572 575 572 561 553 c 128,-1,37
 547 534 547 534 524.5 517.5 c 128,-1,38
 502 501 502 501 473 492 c 0,20,21
33 383 m 1,39,-1
 793 416 l 1,40,-1
 782 290 l 1,41,-1
 24 275 l 1,42,-1
 33 383 l 1,39,-1
EndSplineSet
Validated: 33
EndChar

StartChar: ugrave
Encoding: 249 249 133
Width: 606
GlyphClass: 2
Flags: W
LayerCount: 2
Fore
SplineSet
371 -4 m 1,0,-1
 560 5 l 1,1,-1
 574 614 l 1,2,-1
 340 596 l 1,3,-1
 346 234 l 2,4,5
 346 208 346 208 333.5 198.5 c 128,-1,6
 321 189 321 189 300 189 c 0,7,8
 276 189 276 189 264.5 199.5 c 128,-1,9
 253 210 253 210 253 236 c 2,10,-1
 259 614 l 1,11,-1
 31 596 l 1,12,-1
 31 166 l 2,13,14
 31 123 31 123 43.5 89 c 128,-1,15
 56 55 56 55 78.5 32.5 c 128,-1,16
 101 10 101 10 133 -1.5 c 128,-1,17
 165 -13 165 -13 203 -13 c 0,18,19
 261 -13 261 -13 304.5 10.5 c 128,-1,20
 348 34 348 34 369 91 c 1,21,-1
 371 91 l 1,22,-1
 371 -4 l 1,0,-1
298 860 m 1,23,-1
 413 691 l 1,24,-1
 332 649 l 1,25,-1
 150 778 l 1,26,-1
 298 860 l 1,23,-1
EndSplineSet
Validated: 9
EndChar

StartChar: uacute
Encoding: 250 250 134
Width: 606
GlyphClass: 2
Flags: W
LayerCount: 2
Fore
SplineSet
450 770 m 1,0,-1
 266 641 l 1,1,-1
 186 683 l 1,2,-1
 301 852 l 1,3,-1
 450 770 l 1,0,-1
371 -4 m 1,4,-1
 560 5 l 1,5,-1
 574 614 l 1,6,-1
 340 596 l 1,7,-1
 346 234 l 2,8,9
 346 208 346 208 333.5 198.5 c 128,-1,10
 321 189 321 189 300 189 c 0,11,12
 276 189 276 189 264.5 199.5 c 128,-1,13
 253 210 253 210 253 236 c 2,14,-1
 259 614 l 1,15,-1
 31 596 l 1,16,-1
 31 166 l 2,17,18
 31 123 31 123 43.5 89 c 128,-1,19
 56 55 56 55 78.5 32.5 c 128,-1,20
 101 10 101 10 133 -1.5 c 128,-1,21
 165 -13 165 -13 203 -13 c 0,22,23
 261 -13 261 -13 304.5 10.5 c 128,-1,24
 348 34 348 34 369 91 c 1,25,-1
 371 91 l 1,26,-1
 371 -4 l 1,4,-1
EndSplineSet
Validated: 9
EndChar

StartChar: ucircumflex
Encoding: 251 251 135
Width: 592
GlyphClass: 2
Flags: W
LayerCount: 2
Fore
SplineSet
364 -2 m 1,0,-1
 552 7 l 1,1,-1
 567 616 l 1,2,-1
 332 598 l 1,3,-1
 338 237 l 2,4,5
 339 211 339 211 326 201 c 128,-1,6
 313 191 313 191 293 191 c 0,7,8
 268 191 268 191 256.5 201.5 c 128,-1,9
 245 212 245 212 246 238 c 2,10,-1
 252 616 l 1,11,-1
 24 598 l 1,12,-1
 24 168 l 2,13,14
 24 81 24 81 71.5 35 c 128,-1,15
 119 -11 119 -11 196 -11 c 0,16,17
 254 -11 254 -11 297.5 12.5 c 128,-1,18
 341 36 341 36 361 93 c 1,19,-1
 364 93 l 1,20,-1
 364 -2 l 1,0,-1
297 743 m 1,21,-1
 233 657 l 1,22,-1
 104 716 l 1,23,-1
 218 827 l 1,24,-1
 376 827 l 1,25,-1
 483 709 l 1,26,-1
 360 657 l 1,27,-1
 297 743 l 1,21,-1
EndSplineSet
Validated: 41
EndChar

StartChar: udieresis
Encoding: 252 252 136
Width: 605
GlyphClass: 2
Flags: W
LayerCount: 2
Fore
SplineSet
494 706 m 1,0,-1
 357 707 l 1,1,-1
 345 805 l 1,2,-1
 482 815 l 1,3,-1
 494 706 l 1,0,-1
278 706 m 1,4,-1
 141 707 l 1,5,-1
 129 805 l 1,6,-1
 266 815 l 1,7,-1
 278 706 l 1,4,-1
371 90 m 1,8,-1
 369 90 l 1,9,10
 349 34 349 34 305 10.5 c 128,-1,11
 261 -13 261 -13 203 -13 c 0,12,13
 126 -13 126 -13 78.5 32.5 c 128,-1,14
 31 78 31 78 31 165 c 2,15,-1
 31 595 l 1,16,-1
 259 613 l 1,17,-1
 253 234 l 2,18,19
 252 209 252 209 263.5 198.5 c 128,-1,20
 275 188 275 188 300 188 c 0,21,22
 320 188 320 188 333 198.5 c 128,-1,23
 346 209 346 209 345 233 c 2,24,-1
 339 595 l 1,25,-1
 574 613 l 1,26,-1
 559 4 l 1,27,-1
 371 -4 l 1,28,-1
 371 90 l 1,8,-1
EndSplineSet
Validated: 33
EndChar

StartChar: ydieresis
Encoding: 255 255 137
Width: 500
GlyphClass: 2
Flags: W
LayerCount: 2
Fore
SplineSet
431 698 m 1,0,-1
 295 699 l 1,1,-1
 283 798 l 1,2,-1
 420 808 l 1,3,-1
 431 698 l 1,0,-1
215 698 m 1,4,-1
 79 699 l 1,5,-1
 67 798 l 1,6,-1
 204 808 l 1,7,-1
 215 698 l 1,4,-1
262 387 m 1,8,-1
 194 612 l 1,9,-1
 -30 585 l 1,10,-1
 163 81 l 1,11,-1
 75 -161 l 1,12,-1
 307 -179 l 1,13,-1
 525 594 l 1,14,-1
 314 612 l 1,15,-1
 264 387 l 1,16,-1
 262 387 l 1,8,-1
EndSplineSet
Validated: 9
EndChar

StartChar: OE
Encoding: 338 338 138
Width: 1071
GlyphClass: 2
Flags: W
LayerCount: 2
Fore
SplineSet
761 335 m 1,0,-1
 760 279 l 1,1,-1
 1067 306 l 1,2,-1
 1061 25 l 1,3,-1
 546 -5 l 1,4,-1
 546 7 l 1,5,6
 481 -23 481 -23 404.5 -32.5 c 128,-1,7
 328 -42 328 -42 255 -26 c 128,-1,8
 182 -10 182 -10 119.5 35 c 128,-1,9
 57 80 57 80 20 162 c 0,10,11
 -15 239 -15 239 -21 314.5 c 128,-1,12
 -27 390 -27 390 -10.5 460 c 128,-1,13
 6 530 6 530 43 592.5 c 128,-1,14
 80 655 80 655 132 706 c 128,-1,15
 184 757 184 757 249.5 793.5 c 128,-1,16
 315 830 315 830 388 849 c 0,17,18
 432 860 432 860 473.5 861 c 128,-1,19
 515 862 515 862 552 855.5 c 128,-1,20
 589 849 589 849 620.5 835 c 128,-1,21
 652 821 652 821 679 803 c 1,22,-1
 1072 835 l 1,23,-1
 1040 574 l 1,24,-1
 768 564 l 1,25,-1
 773 515 l 1,26,-1
 968 528 l 1,27,-1
 947 349 l 1,28,-1
 761 335 l 1,0,-1
488 289 m 0,29,30
 514 329 514 329 526 362.5 c 128,-1,31
 538 396 538 396 540.5 425 c 128,-1,32
 543 454 543 454 537.5 478 c 128,-1,33
 532 502 532 502 523 520 c 0,34,35
 508 553 508 553 480 567.5 c 128,-1,36
 452 582 452 582 419 580 c 128,-1,37
 386 578 386 578 352 560.5 c 128,-1,38
 318 543 318 543 290.5 512.5 c 128,-1,39
 263 482 263 482 245 439.5 c 128,-1,40
 227 397 227 397 227 345 c 0,41,42
 226 296 226 296 241 265 c 128,-1,43
 256 234 256 234 279 219.5 c 128,-1,44
 302 205 302 205 331.5 203.5 c 128,-1,45
 361 202 361 202 390.5 212 c 128,-1,46
 420 222 420 222 445.5 242 c 128,-1,47
 471 262 471 262 488 289 c 0,29,30
EndSplineSet
Validated: 33
EndChar

StartChar: oe
Encoding: 339 339 139
Width: 996
GlyphClass: 2
Flags: W
LayerCount: 2
Fore
SplineSet
708 190 m 1,0,1
 721 185 721 185 736.5 182 c 128,-1,2
 752 179 752 179 775 179 c 0,3,4
 821 179 821 179 857.5 193 c 128,-1,5
 894 207 894 207 924 225 c 1,6,-1
 1016 65 l 1,7,8
 960 26 960 26 896.5 5.5 c 128,-1,9
 833 -15 833 -15 750 -15 c 0,10,11
 689 -15 689 -15 631.5 1 c 128,-1,12
 574 17 574 17 529 54 c 1,13,14
 487 21 487 21 430.5 3 c 128,-1,15
 374 -15 374 -15 309 -15 c 0,16,17
 239 -15 239 -15 180 7 c 128,-1,18
 121 29 121 29 77.5 70 c 128,-1,19
 34 111 34 111 9 168.5 c 128,-1,20
 -16 226 -16 226 -16 298 c 256,21,22
 -16 370 -16 370 9 428 c 128,-1,23
 34 486 34 486 77.5 527 c 128,-1,24
 121 568 121 568 180.5 590 c 128,-1,25
 240 612 240 612 309 612 c 0,26,27
 385 612 385 612 435.5 595 c 128,-1,28
 486 578 486 578 530 548 c 1,29,30
 567 571 567 571 616 591.5 c 128,-1,31
 665 612 665 612 729 612 c 0,32,33
 782 612 782 612 826 599 c 128,-1,34
 870 586 870 586 906 561.5 c 128,-1,35
 942 537 942 537 971.5 501 c 128,-1,36
 1001 465 1001 465 1028 421 c 1,37,-1
 708 190 l 1,0,1
221 298 m 0,38,39
 221 254 221 254 245 228.5 c 128,-1,40
 269 203 269 203 309 203 c 0,41,42
 350 203 350 203 373.5 228.5 c 128,-1,43
 397 254 397 254 397 298 c 0,44,45
 397 341 397 341 373.5 366.5 c 128,-1,46
 350 392 350 392 309 392 c 0,47,48
 269 392 269 392 245 366.5 c 128,-1,49
 221 341 221 341 221 298 c 0,38,39
792 408 m 1,50,51
 781 419 781 419 766 427.5 c 128,-1,52
 751 436 751 436 726 436 c 0,53,54
 680 436 680 436 653 407.5 c 128,-1,55
 626 379 626 379 626 340 c 0,56,57
 626 315 626 315 636 298 c 1,58,-1
 792 408 l 1,50,51
EndSplineSet
Validated: 1
EndChar

StartChar: Ydieresis
Encoding: 376 376 140
Width: 759
GlyphClass: 2
Flags: W
LayerCount: 2
Fore
SplineSet
-42 680 m 1,0,-1
 216 318 l 1,1,-1
 216 17 l 1,2,-1
 492 -19 l 1,3,-1
 495 275 l 1,4,-1
 807 680 l 1,5,-1
 556 851 l 1,6,-1
 359 566 l 1,7,-1
 178 851 l 1,8,-1
 -42 680 l 1,0,-1
202 940 m 1,9,-1
 371 952 l 1,10,-1
 388 870 l 1,11,12
 371 868 371 868 343.5 866 c 128,-1,13
 316 864 316 864 289.5 862.5 c 128,-1,14
 263 861 263 861 244 861 c 0,15,16
 226 861 226 861 225 863 c 2,17,18
 225 863 225 863 222 878 c 256,19,20
 219 893 219 893 202 940 c 1,9,-1
605 908 m 1,21,22
 525 899 525 899 479 892 c 2,23,-1
 433 885 l 1,24,-1
 435 966 l 1,25,-1
 595 1000 l 1,26,-1
 605 908 l 1,21,22
EndSplineSet
Validated: 9
EndChar

StartChar: approxequal
Encoding: 8776 8776 141
Width: 614
GlyphClass: 2
Flags: W
LayerCount: 2
Fore
SplineSet
621 512 m 1,0,-1
 454 343 l 1,1,-1
 591 196 l 1,2,-1
 470 43 l 1,3,-1
 311 198 l 1,4,-1
 143 27 l 1,5,-1
 16 174 l 1,6,-1
 167 337 l 1,7,-1
 -2 502 l 1,8,-1
 132 689 l 1,9,-1
 313 494 l 1,10,-1
 480 673 l 1,11,-1
 621 512 l 1,0,-1
EndSplineSet
Validated: 1
EndChar

StartChar: quotedbl
Encoding: 34 34 143
Width: 429
VWidth: 1000
GlyphClass: 2
Flags: W
LayerCount: 2
Fore
SplineSet
188 410 m 1,0,-1
 57 407 l 1,1,-1
 32 640 l 1,2,-1
 200 662 l 1,3,-1
 188 410 l 1,0,-1
234 635 m 1,4,-1
 381 623 l 1,5,-1
 369 417 l 1,6,-1
 222 383 l 1,7,-1
 234 635 l 1,4,-1
EndSplineSet
Validated: 1
EndChar

StartChar: uni0400
Encoding: 1024 1024 149
Width: 681
VWidth: 1130
GlyphClass: 2
Flags: W
LayerCount: 2
Fore
SplineSet
271.700195312 1057.90039062 m 5,0,-1
 471.200195312 951.5 l 5,1,-1
 400.900390625 866.950195312 l 5,2,-1
 230.849609375 967.650390625 l 5,3,-1
 271.700195312 1057.90039062 l 5,0,-1
635.549804688 -15.2001953125 m 1,4,-1
 35.150390625 -19.9501953125 l 1,5,-1
 66.5 799.5 l 5,6,-1
 623.200195312 803.299804688 l 5,7,8
 617 720 617 720 616.549804688 675.450195312 c 0,9,10
 616 653 616 653 615.125 632.224609375 c 0,11,12
 615 612 615 612 613.700195312 595.174804688 c 0,13,14
 613 579 613 579 612.75 569.049804688 c 0,15,-1
 612.75 559.549804688 l 1,16,-1
 337.25 558.599609375 l 1,17,-1
 337.25 485.450195312 l 1,18,-1
 542.450195312 488.299804688 l 1,19,-1
 524.400390625 288.799804688 l 1,20,-1
 327.75 282.150390625 l 1,21,-1
 323.950195312 218.5 l 1,22,23
 436 222 436 222 475.950195312 221.349609375 c 0,24,25
 505 221 505 221 532.474609375 221.825195312 c 0,26,27
 560 222 560 222 581.400390625 223.25 c 0,28,29
 603 224 603 224 617.5 224.200195312 c 0,30,-1
 631.75 224.200195312 l 1,31,-1
 635.549804688 -15.2001953125 l 1,4,-1
EndSplineSet
Validated: 524321
EndChar

StartChar: uni0401
Encoding: 1025 1025 150
Width: 658
VWidth: 1152
GlyphClass: 2
Flags: W
LayerCount: 2
Fore
SplineSet
576.108398438 851.83984375 m 5,0,-1
 376.72265625 854.71875 l 5,1,-1
 373.901367188 956.424804688 l 5,2,-1
 573.287109375 954.506835938 l 5,3,-1
 576.108398438 851.83984375 l 5,0,-1
308.06640625 849.919921875 m 5,4,-1
 84.2275390625 856.63671875 l 5,5,-1
 110.560546875 949.708007812 l 5,6,-1
 302.422851562 936.275390625 l 5,7,-1
 308.06640625 849.919921875 l 5,4,-1
627 -13.775390625 m 1,8,-1
 33.544921875 -19.53125 l 1,9,-1
 60.71484375 798.986328125 l 1,10,-1
 618.431640625 800.905273438 l 1,11,12
 610 726 610 726 609.026367188 694.279296875 c 0,13,14
 608 672 608 672 607.14453125 650.622070312 c 0,15,16
 607.23282076 629.935144605 607.23282076 629.935144605 605.734375 613.201171875 c 0,17,18
 605.263671875 609.86744203 605.263671875 609.86744203 605.263671875 586.815429688 c 2,19,-1
 605.263671875 578.1796875 l 1,20,-1
 331.579101562 576.260742188 l 1,21,-1
 331.579101562 502.37890625 l 1,22,-1
 535.666992188 505.256835938 l 1,23,-1
 516.856445312 304.721679688 l 1,24,-1
 322.173828125 298.005859375 l 1,25,-1
 318.411132812 232.758789062 l 1,26,27
 356 234 356 234 469.83203125 235.637695312 c 0,28,29
 499 236 499 236 525.791992188 236.59765625 c 0,30,31
 553.060033559 236.441332907 553.060033559 236.441332907 574.227539062 238.037109375 c 0,32,33
 577.600032284 238.516601562 577.600032284 238.516601562 609.966796875 238.516601562 c 2,34,-1
 623.1328125 238.516601562 l 1,35,-1
 627 -13.775390625 l 1,8,-1
EndSplineSet
Validated: 524289
EndChar

StartChar: uni0410
Encoding: 1040 1040 151
Width: 734
VWidth: 1178
GlyphClass: 2
Flags: W
LayerCount: 2
Fore
SplineSet
-12.9501953125 -8.5498046875 m 1,0,-1
 191.299804688 796.299804688 l 5,1,-1
 552.299804688 802 l 5,2,-1
 746.099609375 -9.5 l 1,3,-1
 492.450195312 -33.25 l 1,4,-1
 461.099609375 126.349609375 l 1,5,-1
 274.900390625 126.349609375 l 1,6,-1
 244.5 -33.25 l 1,7,-1
 -12.9501953125 -8.5498046875 l 1,0,-1
414.549804688 335.349609375 m 1,8,-1
 362.299804688 584.25 l 1,9,-1
 318.599609375 331.549804688 l 1,10,-1
 414.549804688 335.349609375 l 1,8,-1
EndSplineSet
Validated: 524289
EndChar

StartChar: uni0411
Encoding: 1041 1041 152
Width: 603
VWidth: 1180
GlyphClass: 2
Flags: W
LayerCount: 2
Fore
SplineSet
448 477.849609375 m 2,0,1
 438.5 484.5 438.5 484.5 402.400390625 495.900390625 c 0,2,3
 394.799804688 498.75 394.799804688 498.75 378.650390625 503.5 c 128,-1,4
 362.5 508.25 362.5 508.25 338.275390625 513 c 128,-1,5
 314.049804688 517.75 314.049804688 517.75 281.75 517.75 c 1,6,-1
 280.799804688 729.599609375 l 1,7,-1
 48.0498046875 716.299804688 l 1,8,-1
 17.650390625 -15.2001953125 l 1,9,-1
 243.75 -19.9501953125 l 2,10,11
 273.200195312 -20.900390625 273.200195312 -20.900390625 368.200195312 4.75 c 1,12,13
 448.950195312 44.650390625 l 0,14,15
 456.549804688 48.4501953125 456.549804688 48.4501953125 508.799804688 91.2001953125 c 0,16,17
 532.549804688 108.299804688 532.549804688 108.299804688 552.5 148.200195312 c 0,18,19
 571.5 180.5 571.5 180.5 582.900390625 228.950195312 c 0,20,21
 585.75 235.599609375 585.75 235.599609375 586.700195312 242.25 c 0,22,23
 592.400390625 278.349609375 592.400390625 278.349609375 562.950195312 350.549804688 c 0,24,25
 560.099609375 357.200195312 560.099609375 357.200195312 535.400390625 398.049804688 c 0,26,27
 512.599609375 434.150390625 512.599609375 434.150390625 502.150390625 442.700195312 c 0,28,29
 486 456.950195312 486 456.950195312 475.549804688 462.650390625 c 2,30,-1
 448 477.849609375 l 2,0,1
311.200195312 348.650390625 m 0,31,32
 371.049804688 328.700195312 371.049804688 328.700195312 379.599609375 304 c 0,33,34
 386.25 290.700195312 386.25 290.700195312 391.950195312 277.400390625 c 1,35,36
 372.950195312 238.450195312 372.950195312 238.450195312 342.075195312 221.825195312 c 128,-1,37
 311.200195312 205.200195312 311.200195312 205.200195312 277.950195312 204.25 c 1,38,-1
 280.799804688 355.299804688 l 1,39,40
 288.400390625 354.349609375 288.400390625 354.349609375 296 352.924804688 c 128,-1,41
 303.599609375 351.5 303.599609375 351.5 311.200195312 348.650390625 c 0,31,32
30.9501953125 808.450195312 m 1,42,-1
 17.650390625 -15.2001953125 l 1,43,-1
 274.150390625 -6.650390625 l 1,44,-1
 281.75 559.549804688 l 1,45,-1
 503.099609375 566.200195312 l 1,46,-1
 539.200195312 806.549804688 l 1,47,-1
 30.9501953125 808.450195312 l 1,42,-1
EndSplineSet
Validated: 37
EndChar

StartChar: uni0412
Encoding: 1042 1042 153
Width: 707
VWidth: 1175
GlyphClass: 2
Flags: W
LayerCount: 2
Fore
SplineSet
44.150390625 781.849609375 m 1,0,-1
 388.049804688 795.150390625 l 1,1,2
 447.900390625 791.349609375 447.900390625 791.349609375 498.25 771.400390625 c 0,3,4
 519.150390625 763.799804688 519.150390625 763.799804688 541.474609375 750.5 c 128,-1,5
 563.799804688 737.200195312 563.799804688 737.200195312 582.325195312 718.674804688 c 128,-1,6
 600.849609375 700.150390625 600.849609375 700.150390625 615.575195312 675.924804688 c 128,-1,7
 630.299804688 651.700195312 630.299804688 651.700195312 636.950195312 620.349609375 c 0,8,9
 647.400390625 564.299804688 647.400390625 564.299804688 638.849609375 522.025390625 c 128,-1,10
 630.299804688 479.75 630.299804688 479.75 615.099609375 449.349609375 c 0,11,12
 598 413.25 598 413.25 571.400390625 385.700195312 c 1,13,14
 598.950195312 365.75 598.950195312 365.75 622.224609375 342.950195312 c 128,-1,15
 645.5 320.150390625 645.5 320.150390625 661.650390625 292.125 c 128,-1,16
 677.799804688 264.099609375 677.799804688 264.099609375 683.025390625 228.950195312 c 128,-1,17
 688.25 193.799804688 688.25 193.799804688 680.650390625 146.299804688 c 0,18,19
 670.200195312 83.599609375 670.200195312 83.599609375 640.275390625 49.400390625 c 128,-1,20
 610.349609375 15.2001953125 610.349609375 15.2001953125 580.900390625 -1.900390625 c 0,21,22
 544.799804688 -21.849609375 544.799804688 -21.849609375 503.950195312 -26.599609375 c 0,23,24
 367.150390625 -22.7998046875 367.150390625 -22.7998046875 259.799804688 -19.9501953125 c 0,25,26
 213.25 -19 213.25 -19 169.549804688 -18.0498046875 c 128,-1,27
 125.849609375 -17.099609375 125.849609375 -17.099609375 91.650390625 -15.6748046875 c 128,-1,28
 57.4501953125 -14.25 57.4501953125 -14.25 36.5498046875 -13.775390625 c 0,29,-1
 15.650390625 -13.2998046875 l 1,30,-1
 44.150390625 781.849609375 l 1,0,-1
286.400390625 515.849609375 m 1,31,-1
 373.799804688 513 l 2,32,33
 406.099609375 512.049804688 406.099609375 512.049804688 418.450195312 527.724609375 c 128,-1,34
 430.799804688 543.400390625 430.799804688 543.400390625 438.400390625 580.450195312 c 0,35,36
 437.450195312 597.549804688 437.450195312 597.549804688 430.325195312 609.424804688 c 128,-1,37
 423.200195312 621.299804688 423.200195312 621.299804688 412.275390625 628.900390625 c 128,-1,38
 401.349609375 636.5 401.349609375 636.5 389.474609375 640.299804688 c 128,-1,39
 377.599609375 644.099609375 377.599609375 644.099609375 367.150390625 645.049804688 c 2,40,-1
 290.200195312 640.299804688 l 1,41,-1
 286.400390625 515.849609375 l 1,31,-1
260.75 143.450195312 m 1,42,-1
 381.400390625 147.25 l 2,43,44
 402.299804688 148.200195312 402.299804688 148.200195312 425.099609375 155.325195312 c 128,-1,45
 447.900390625 162.450195312 447.900390625 162.450195312 453.599609375 193.799804688 c 1,46,47
 447.900390625 229.900390625 447.900390625 229.900390625 434.125 249.375 c 128,-1,48
 420.349609375 268.849609375 420.349609375 268.849609375 389.950195312 270.75 c 2,49,-1
 269.299804688 280.25 l 1,50,-1
 260.75 143.450195312 l 1,42,-1
EndSplineSet
Validated: 33
EndChar

StartChar: uni0413
Encoding: 1043 1043 154
Width: 551
VWidth: 1180
GlyphClass: 2
Flags: W
LayerCount: 2
Fore
SplineSet
33.7998046875 811.200195312 m 1,0,-1
 15.75 -20.0498046875 l 1,1,-1
 276.049804688 -3.900390625 l 1,2,-1
 302.650390625 564.200195312 l 1,3,-1
 505.950195312 569.900390625 l 1,4,-1
 542.049804688 810.25 l 1,5,-1
 33.7998046875 811.200195312 l 1,0,-1
EndSplineSet
Validated: 9
EndChar

StartChar: uni0414
Encoding: 1044 1044 155
Width: 819
VWidth: 1173
GlyphClass: 2
Flags: W
LayerCount: 2
Fore
SplineSet
1.75 235.950195312 m 1,0,-1
 0.7998046875 -20.5498046875 l 1,1,-1
 813.049804688 6.0498046875 l 1,2,-1
 822.549804688 232.150390625 l 1,3,-1
 1.75 235.950195312 l 1,0,-1
57.7998046875 197 m 1,4,-1
 333.299804688 185.599609375 l 1,5,-1
 433.049804688 566.549804688 l 1,6,-1
 475.799804688 188.450195312 l 1,7,-1
 762.700195312 202.700195312 l 1,8,-1
 603.099609375 791.700195312 l 5,9,-1
 247.799804688 807.849609375 l 5,10,-1
 57.7998046875 197 l 1,4,-1
EndSplineSet
Validated: 524293
EndChar

StartChar: uni0415
Encoding: 1045 1045 156
Width: 618
VWidth: 1177
GlyphClass: 2
Flags: W
LayerCount: 2
Fore
SplineSet
607.208007812 -6.2421875 m 1,0,-1
 12.8115234375 -12.1142578125 l 1,1,-1
 42.908203125 797.58984375 l 5,2,-1
 594.981445312 801.50390625 l 5,3,4
 589 719 589 719 588.3984375 705.125976562 c 0,5,6
 587 682 587 682 586.987304688 660.115234375 c 0,7,8
 587 639 587 639 585.576171875 621.954101562 c 0,9,10
 585 605 585 605 584.63671875 595.53515625 c 0,11,-1
 584.63671875 585.75 l 1,12,-1
 310.951171875 584.771484375 l 1,13,-1
 310.951171875 509.426757812 l 1,14,-1
 515.0390625 511.383789062 l 1,15,-1
 496.228515625 306.876953125 l 1,16,-1
 302.486328125 300.02734375 l 1,17,-1
 297.784179688 234.467773438 l 1,18,19
 412 238 412 238 449.203125 237.403320312 c 0,20,21
 478 237 478 237 505.1640625 237.892578125 c 0,22,23
 532 238 532 238 553.599609375 238.87109375 c 0,24,25
 575 239 575 239 589.338867188 239.360351562 c 0,26,-1
 603.446289062 239.360351562 l 1,27,-1
 607.208007812 -6.2421875 l 1,0,-1
EndSplineSet
Validated: 524321
EndChar

StartChar: uni0416
Encoding: 1046 1046 157
Width: 831
VWidth: 1179
GlyphClass: 2
Flags: W
LayerCount: 2
Fore
SplineSet
528.758789062 11.4990234375 m 1,0,-1
 309.440429688 7.96484375 l 1,1,-1
 315.891601562 765.259765625 l 5,2,-1
 524.150390625 771.4453125 l 5,3,-1
 528.758789062 11.4990234375 l 1,0,-1
315.891601562 182.897460938 m 1,4,-1
 216.369140625 -10.5888671875 l 1,5,-1
 -14.9267578125 146.673828125 l 1,6,-1
 163.84375 394.9375 l 1,7,-1
 -14.9267578125 646.87109375 l 5,8,-1
 216.369140625 805.017578125 l 5,9,-1
 312.206054688 591.209960938 l 5,10,-1
 525.993164062 588.559570312 l 5,11,-1
 653.161132812 806.78515625 l 5,12,-1
 851.283203125 687.512695312 l 5,13,-1
 666.061523438 397.587890625 l 1,14,-1
 851.283203125 111.333984375 l 1,15,-1
 653.161132812 -8.822265625 l 1,16,-1
 529.678710938 186.431640625 l 1,17,-1
 315.891601562 182.897460938 l 1,4,-1
EndSplineSet
Validated: 524293
EndChar

StartChar: uni0417
Encoding: 1047 1047 158
Width: 532
VWidth: 1182
GlyphClass: 2
Flags: W
LayerCount: 2
Fore
SplineSet
53.40625 470.671875 m 1,0,1
 121.435546875 479.602539062 121.435546875 479.602539062 147.94140625 501.926757812 c 128,-1,2
 174.4453125 524.251953125 174.4453125 524.251953125 166.936523438 542.55859375 c 128,-1,3
 159.426757812 560.865234375 159.426757812 560.865234375 122.319335938 566.22265625 c 128,-1,4
 85.212890625 571.581054688 85.212890625 571.581054688 26.0185546875 548.36328125 c 1,5,-1
 -11.97265625 743.037109375 l 1,6,7
 74.6103515625 770.719726562 74.6103515625 770.719726562 153.2421875 784.115234375 c 0,8,9
 186.815429688 789.47265625 186.815429688 789.47265625 222.596679688 791.706054688 c 128,-1,10
 258.37890625 793.938476562 258.37890625 793.938476562 291.509765625 790.8125 c 128,-1,11
 324.641601562 787.686523438 324.641601562 787.686523438 354.23828125 778.310546875 c 128,-1,12
 383.834960938 768.93359375 383.834960938 768.93359375 405.922851562 750.181640625 c 0,13,14
 418.291992188 740.357421875 418.291992188 740.357421875 433.311523438 717.140625 c 128,-1,15
 448.331054688 693.921875 448.331054688 693.921875 461.141601562 663.559570312 c 128,-1,16
 473.953125 633.198242188 473.953125 633.198242188 481.462890625 597.478515625 c 128,-1,17
 488.971679688 561.7578125 488.971679688 561.7578125 486.762695312 525.591796875 c 128,-1,18
 484.5546875 489.424804688 484.5546875 489.424804688 468.209960938 456.383789062 c 128,-1,19
 451.865234375 423.34375 451.865234375 423.34375 417.408203125 398.338867188 c 1,20,21
 444.796875 391.194335938 444.796875 391.194335938 469.9765625 356.814453125 c 128,-1,22
 495.15625 322.43359375 495.15625 322.43359375 504.43359375 273.318359375 c 128,-1,23
 513.709960938 224.204101562 513.709960938 224.204101562 498.249023438 166.60546875 c 128,-1,24
 482.787109375 109.006835938 482.787109375 109.006835938 428.893554688 55.4267578125 c 0,25,26
 410.340820312 36.673828125 410.340820312 36.673828125 382.510742188 24.619140625 c 128,-1,27
 354.680664062 12.5634765625 354.680664062 12.5634765625 321.990234375 5.4189453125 c 128,-1,28
 289.30078125 -1.724609375 289.30078125 -1.724609375 253.9609375 -4.8505859375 c 128,-1,29
 218.62109375 -7.9755859375 218.62109375 -7.9755859375 184.165039062 -7.9755859375 c 0,30,31
 103.766601562 -8.8681640625 103.766601562 -8.8681640625 13.6484375 1.8466796875 c 1,32,-1
 31.318359375 221.525390625 l 1,33,34
 62.2421875 212.594726562 62.2421875 212.594726562 92.28125 204.557617188 c 128,-1,35
 122.319335938 196.520507812 122.319335938 196.520507812 145.291015625 195.627929688 c 128,-1,36
 168.26171875 194.734375 168.26171875 194.734375 182.838867188 203.21875 c 128,-1,37
 197.416992188 211.702148438 197.416992188 211.702148438 197.416992188 234.02734375 c 0,38,39
 198.30078125 278.676757812 198.30078125 278.676757812 161.635742188 288.053710938 c 128,-1,40
 124.969726562 297.430664062 124.969726562 297.430664062 57.82421875 287.606445312 c 1,41,-1
 53.40625 470.671875 l 1,0,1
EndSplineSet
Validated: 33
EndChar

StartChar: uni0418
Encoding: 1048 1048 159
Width: 710
VWidth: 1170
GlyphClass: 2
Flags: W
LayerCount: 2
Fore
SplineSet
412.599609375 -15.4501953125 m 1,0,-1
 683.349609375 -12.599609375 l 1,1,-1
 701.400390625 799.25 l 5,2,-1
 474.349609375 804.950195312 l 5,3,-1
 262.5 429.150390625 l 1,4,-1
 273.900390625 802.099609375 l 5,5,-1
 6.9501953125 798.299804688 l 5,6,-1
 17.400390625 -12.599609375 l 1,7,-1
 274.849609375 -18.2998046875 l 1,8,-1
 431.599609375 318.950195312 l 1,9,-1
 412.599609375 -15.4501953125 l 1,0,-1
EndSplineSet
Validated: 524297
EndChar

StartChar: uni0419
Encoding: 1049 1049 160
Width: 721
VWidth: 1144
GlyphClass: 2
Flags: W
LayerCount: 2
Fore
SplineSet
470.950195312 884.442382812 m 1,0,-1
 244.849609375 890.427734375 l 1,1,-1
 270.5 1003.14550781 l 1,2,-1
 467.150390625 988.182617188 l 1,3,-1
 470.950195312 884.442382812 l 1,0,-1
417.75 -13.3076171875 m 1,4,-1
 688.5 -10.314453125 l 1,5,-1
 705.599609375 851.525390625 l 1,6,-1
 478.549804688 856.512695312 l 1,7,-1
 267.650390625 453.522460938 l 1,8,-1
 278.099609375 853.520507812 l 1,9,-1
 11.150390625 849.529296875 l 1,10,-1
 22.5498046875 -10.314453125 l 1,11,-1
 280 -16.2998046875 l 1,12,-1
 436.75 337.8125 l 1,13,-1
 417.75 -13.3076171875 l 1,4,-1
EndSplineSet
Validated: 9
EndChar

StartChar: uni041A
Encoding: 1050 1050 161
Width: 669
VWidth: 1179
GlyphClass: 2
Flags: W
LayerCount: 2
Fore
SplineSet
17.9501953125 799.96484375 m 1,0,-1
 260.200195312 784.004882812 l 1,1,-1
 267.799804688 590.490234375 l 1,2,-1
 494.849609375 803.955078125 l 1,3,4
 567 722 567 722 582.25 702.209960938 c 0,5,6
 598 682 598 682 614.075195312 663.307617188 c 0,7,8
 630 644 630 644 642.099609375 629.891601562 c 0,9,10
 654 615 654 615 661.099609375 606.450195312 c 0,11,-1
 667.75 597.47265625 l 1,12,-1
 391.299804688 376.115234375 l 5,13,-1
 674 144.702148438 l 1,14,15
 650 113 650 113 595.549804688 54.947265625 c 0,16,17
 579 37 579 37 564.200195312 19.5361328125 c 0,18,19
 549 2 549 2 537.125 -11.884765625 c 0,20,21
 525 -26 525 -26 518.599609375 -34.3291015625 c 0,22,23
 512 -43 512 -43 513.849609375 -42.8076171875 c 1,24,-1
 302 116.791992188 l 1,25,-1
 307.700195312 -15.875 l 1,26,-1
 14.150390625 -15.875 l 1,27,-1
 17.9501953125 799.96484375 l 1,0,-1
EndSplineSet
Validated: 524293
EndChar

StartChar: uni041B
Encoding: 1051 1051 162
Width: 690
VWidth: 1173
GlyphClass: 2
Flags: W
LayerCount: 2
Fore
SplineSet
-9.400390625 -15.0087890625 m 1,0,-1
 266.099609375 -26.7509765625 l 1,1,-1
 333.549804688 515.337890625 l 1,2,-1
 408.599609375 -24.7939453125 l 1,3,-1
 695.5 -9.1376953125 l 1,4,-1
 560.599609375 794.415039062 l 5,5,-1
 145.450195312 806.157226562 l 5,6,-1
 -9.400390625 -15.0087890625 l 1,0,-1
EndSplineSet
Validated: 524297
EndChar

StartChar: uni041C
Encoding: 1052 1052 163
Width: 844
VWidth: 1175
GlyphClass: 2
Flags: W
LayerCount: 2
Fore
SplineSet
551.849609375 789.188476562 m 5,0,-1
 790.299804688 810.923828125 l 5,1,-1
 837.900390625 -12.68359375 l 1,2,-1
 551 -0.828125 l 1,3,-1
 555.75 314.34375 l 1,4,-1
 494.950195312 110.81640625 l 1,5,-1
 360.049804688 115.756835938 l 1,6,-1
 286.900390625 314.34375 l 1,7,-1
 281.200195312 -4.7802734375 l 1,8,-1
 4.75 -14.66015625 l 1,9,-1
 36 779.30859375 l 5,10,-1
 288.700195312 803.01953125 l 5,11,-1
 423.700195312 506.016601562 l 1,12,-1
 551.849609375 789.188476562 l 5,0,-1
EndSplineSet
Validated: 524289
EndChar

StartChar: uni041D
Encoding: 1053 1053 164
Width: 707
VWidth: 1177
GlyphClass: 2
Flags: W
LayerCount: 2
Fore
SplineSet
413.25 804.400390625 m 5,0,-1
 665 781.599609375 l 5,1,-1
 698.25 -2.650390625 l 1,2,-1
 411.349609375 -9.2998046875 l 1,3,-1
 417.049804688 312.75 l 1,4,-1
 285.950195312 312.75 l 1,5,-1
 270.75 -5.5 l 1,6,-1
 4.75 -1.7001953125 l 1,7,-1
 49.400390625 812 l 5,8,-1
 288.799804688 791.099609375 l 5,9,-1
 285.950195312 503.700195312 l 1,10,-1
 411.349609375 502.75 l 1,11,-1
 413.25 804.400390625 l 5,0,-1
EndSplineSet
Validated: 524289
EndChar

StartChar: uni041E
Encoding: 1054 1054 165
Width: 808
VWidth: 1172
GlyphClass: 2
Flags: W
LayerCount: 2
Fore
SplineSet
641.948242188 48.580078125 m 0,0,1
 607.282226562 35.04296875 607.282226562 35.04296875 575.999023438 19.2490234375 c 128,-1,2
 544.715820312 3.455078125 544.715820312 3.455078125 504.130859375 -6.021484375 c 128,-1,3
 463.546875 -15.4970703125 463.546875 -15.4970703125 408.166992188 -13.6923828125 c 128,-1,4
 352.787109375 -11.8876953125 352.787109375 -11.8876953125 269.927734375 9.7724609375 c 0,5,6
 227.653320312 21.505859375 227.653320312 21.505859375 193.833007812 42.2626953125 c 128,-1,7
 160.012695312 63.01953125 160.012695312 63.01953125 134.647460938 90.546875 c 128,-1,8
 109.282226562 118.072265625 109.282226562 118.072265625 91.1044921875 148.756835938 c 128,-1,9
 72.9267578125 179.442382812 72.9267578125 179.442382812 61.08984375 211.030273438 c 0,10,11
 31.4970703125 283.23046875 31.4970703125 283.23046875 23.0419921875 368.967773438 c 0,12,13
 14.5869140625 448.387695312 14.5869140625 448.387695312 29.806640625 520.587890625 c 0,14,15
 36.5693359375 551.272460938 36.5693359375 551.272460938 49.2529296875 583.311523438 c 128,-1,16
 61.9345703125 615.349609375 61.9345703125 615.349609375 83.072265625 645.583984375 c 128,-1,17
 104.209960938 675.817382812 104.209960938 675.817382812 135.494140625 701.990234375 c 128,-1,18
 166.77734375 728.162109375 166.77734375 728.162109375 210.743164062 747.115234375 c 0,19,20
 324.040039062 800.362304688 324.040039062 800.362304688 411.549804688 806.228515625 c 128,-1,21
 499.05859375 812.094726562 499.05859375 812.094726562 564.584960938 787.275390625 c 128,-1,22
 630.111328125 762.45703125 630.111328125 762.45703125 675.768554688 715.978515625 c 128,-1,23
 721.424804688 669.5 721.424804688 669.5 749.326171875 619.862304688 c 1,24,25
 769.619140625 569.322265625 769.619140625 569.322265625 780.609375 506.147460938 c 0,26,27
 789.91015625 451.997070312 789.91015625 451.997070312 788.21875 377.541015625 c 128,-1,28
 786.528320312 303.084960938 786.528320312 303.084960938 762.854492188 213.737304688 c 0,29,30
 748.481445312 162.294921875 748.481445312 162.294921875 728.189453125 130.255859375 c 128,-1,31
 707.896484375 98.2177734375 707.896484375 98.2177734375 689.295898438 80.619140625 c 128,-1,32
 670.694335938 63.01953125 670.694335938 63.01953125 656.744140625 55.7998046875 c 128,-1,33
 642.793945312 48.580078125 642.793945312 48.580078125 641.948242188 48.580078125 c 0,0,1
382.379882812 546.759765625 m 0,34,35
 361.2421875 539.540039062 361.2421875 539.540039062 341.373046875 524.197265625 c 128,-1,36
 321.50390625 508.85546875 321.50390625 508.85546875 307.552734375 486.744140625 c 128,-1,37
 293.602539062 464.631835938 293.602539062 464.631835938 286.415039062 435.752929688 c 128,-1,38
 279.228515625 406.872070312 279.228515625 406.872070312 282.610351562 371.674804688 c 0,39,40
 289.374023438 321.134765625 289.374023438 321.134765625 306.70703125 293.157226562 c 128,-1,41
 324.040039062 265.180664062 324.040039062 265.180664062 348.13671875 253.899414062 c 128,-1,42
 372.233398438 242.618164062 372.233398438 242.618164062 401.826171875 244.874023438 c 128,-1,43
 431.418945312 247.129882812 431.418945312 247.129882812 463.546875 254.349609375 c 0,44,45
 493.985351562 264.27734375 493.985351562 264.27734375 515.96875 278.265625 c 128,-1,46
 537.951171875 292.254882812 537.951171875 292.254882812 549.788085938 314.817382812 c 128,-1,47
 561.625976562 337.379882812 561.625976562 337.379882812 564.584960938 371.674804688 c 128,-1,48
 567.543945312 405.969726562 567.543945312 405.969726562 560.780273438 457.412109375 c 0,49,50
 555.70703125 495.317382812 555.70703125 495.317382812 539.219726562 517.428710938 c 128,-1,51
 522.732421875 539.540039062 522.732421875 539.540039062 497.790039062 549.015625 c 128,-1,52
 472.84765625 558.493164062 472.84765625 558.493164062 442.833007812 557.138671875 c 128,-1,53
 412.817382812 555.78515625 412.817382812 555.78515625 382.379882812 546.759765625 c 0,34,35
EndSplineSet
Validated: 33
EndChar

StartChar: uni041F
Encoding: 1055 1055 166
Width: 651
VWidth: 1180
GlyphClass: 2
Flags: W
LayerCount: 2
Fore
SplineSet
385.299804688 557.200195312 m 1,0,-1
 368.200195312 -14.7001953125 l 1,1,-1
 640.849609375 -14.7001953125 l 1,2,-1
 632.299804688 800.400390625 l 1,3,-1
 393.849609375 800.400390625 l 1,4,-1
 393.849609375 800.400390625 l 1,5,-1
 393.849609375 800.400390625 l 1,6,-1
 30.9501953125 801.349609375 l 1,7,-1
 13.849609375 -29.900390625 l 1,8,-1
 274.150390625 -13.75 l 1,9,-1
 300.75 554.349609375 l 1,10,-1
 385.299804688 557.200195312 l 1,11,-1
 385.299804688 557.200195312 l 1,0,-1
EndSplineSet
Validated: 5
EndChar

StartChar: uni0420
Encoding: 1056 1056 167
Width: 600
VWidth: 1172
GlyphClass: 2
Flags: W
LayerCount: 2
Fore
SplineSet
465.6953125 195.858398438 m 2,0,1
 445.422851562 188.486328125 445.422851562 188.486328125 426.532226562 179.732421875 c 128,-1,2
 407.641601562 170.978515625 407.641601562 170.978515625 387.829101562 164.06640625 c 128,-1,3
 368.017578125 157.15625 368.017578125 157.15625 344.057617188 152.547851562 c 128,-1,4
 320.098632812 147.940429688 320.098632812 147.940429688 288.768554688 147.940429688 c 1,5,-1
 287.846679688 -14.244140625 l 1,6,-1
 5.8681640625 -15.1650390625 l 1,7,-1
 45.4921875 801.284179688 l 1,8,-1
 242.693359375 788.3828125 l 2,9,10
 314.569335938 782.854492188 314.569335938 782.854492188 365.712890625 769.953125 c 128,-1,11
 416.856445312 757.051757812 416.856445312 757.051757812 451.873046875 737.700195312 c 128,-1,12
 486.890625 718.348632812 486.890625 718.348632812 510.388671875 692.546875 c 128,-1,13
 533.88671875 666.744140625 533.88671875 666.744140625 553.23828125 637.256835938 c 0,14,15
 571.668945312 598.5546875 571.668945312 598.5546875 579.041015625 549.71484375 c 0,16,17
 585.491210938 508.247070312 585.491210938 508.247070312 584.569335938 451.114257812 c 128,-1,18
 583.647460938 393.981445312 583.647460938 393.981445312 564.295898438 324.869140625 c 0,19,20
 552.317382812 285.243164062 552.317382812 285.243164062 535.26953125 259.90234375 c 128,-1,21
 518.221679688 234.561523438 518.221679688 234.561523438 502.556640625 220.278320312 c 128,-1,22
 486.890625 205.994140625 486.890625 205.994140625 481.822265625 203.69140625 c 0,23,-1
 465.6953125 195.858398438 l 2,0,1
317.333984375 355.278320312 m 0,24,25
 368.938476562 370.944335938 368.938476562 370.944335938 386.446289062 410.107421875 c 128,-1,26
 403.956054688 449.270507812 403.956054688 449.270507812 397.504882812 512.854492188 c 1,27,28
 379.075195312 550.635742188 379.075195312 550.635742188 348.666015625 566.301757812 c 128,-1,29
 318.256835938 581.967773438 318.256835938 581.967773438 286.00390625 583.809570312 c 1,30,-1
 287.846679688 348.828125 l 1,31,32
 295.21875 349.749023438 295.21875 349.749023438 302.590820312 351.130859375 c 128,-1,33
 309.962890625 352.513671875 309.962890625 352.513671875 317.333984375 355.278320312 c 0,24,25
EndSplineSet
Validated: 33
EndChar

StartChar: uni0421
Encoding: 1057 1057 168
Width: 767
VWidth: 1175
GlyphClass: 2
Flags: W
LayerCount: 2
Fore
SplineSet
751.799804688 87.400390625 m 6,0,1
 751.799804688 86.458984375 751.799804688 86.458984375 716.174804688 63.8876953125 c 132,-1,2
 680.549804688 41.3154296875 680.549804688 41.3154296875 618.799804688 18.744140625 c 132,-1,3
 557.049804688 -3.8291015625 557.049804688 -3.8291015625 474.875 -15.1142578125 c 132,-1,4
 392.700195312 -26.400390625 392.700195312 -26.400390625 299.599609375 -3.8291015625 c 4,5,6
 252.099609375 8.3984375 252.099609375 8.3984375 214.099609375 30.029296875 c 132,-1,7
 176.099609375 51.6611328125 176.099609375 51.6611328125 147.599609375 80.3466796875 c 132,-1,8
 119.099609375 109.03125 119.099609375 109.03125 98.6748046875 141.478515625 c 132,-1,9
 78.25 173.926757812 78.25 173.926757812 64.9501953125 206.84375 c 4,10,11
 31.7001953125 282.083984375 31.7001953125 282.083984375 22.2001953125 370.490234375 c 4,12,13
 12.7001953125 453.25390625 12.7001953125 453.25390625 29.7998046875 528.494140625 c 4,14,15
 37.400390625 560.470703125 37.400390625 560.470703125 51.650390625 593.859375 c 132,-1,16
 65.900390625 627.247070312 65.900390625 627.247070312 89.650390625 658.75390625 c 132,-1,17
 113.400390625 690.260742188 113.400390625 690.260742188 148.549804688 718.004882812 c 132,-1,18
 183.700195312 745.75 183.700195312 745.75 233.099609375 765.500976562 c 4,19,20
 306.25 795.595703125 306.25 795.595703125 389.375 799.358398438 c 132,-1,21
 472.5 803.12109375 472.5 803.12109375 542.799804688 793.715820312 c 4,22,23
 625.450195312 783.370117188 625.450195312 783.370117188 704.299804688 760.797851562 c 5,24,-1
 630.200195312 518.1484375 l 5,25,26
 604.549804688 538.83984375 604.549804688 538.83984375 571.299804688 552.006835938 c 4,27,28
 543.75 562.352539062 543.75 562.352539062 505.75 567.0546875 c 132,-1,29
 467.75 571.7578125 467.75 571.7578125 425.950195312 555.768554688 c 4,30,31
 402.200195312 548.245117188 402.200195312 548.245117188 379.400390625 531.786132812 c 132,-1,32
 356.599609375 515.327148438 356.599609375 515.327148438 338.549804688 491.815429688 c 132,-1,33
 320.5 468.302734375 320.5 468.302734375 311.950195312 437.266601562 c 132,-1,34
 303.400390625 406.229492188 303.400390625 406.229492188 307.200195312 369.549804688 c 4,35,36
 323.349609375 264.213867188 323.349609375 264.213867188 395.075195312 246.344726562 c 132,-1,37
 466.799804688 228.474609375 466.799804688 228.474609375 580.799804688 299.953125 c 5,38,-1
 751.799804688 87.400390625 l 6,0,1
EndSplineSet
Validated: 524321
EndChar

StartChar: uni0422
Encoding: 1058 1058 169
Width: 556
VWidth: 1170
GlyphClass: 2
Flags: W
LayerCount: 2
Fore
SplineSet
534.459960938 631.556640625 m 1,0,-1
 425.362304688 625.040039062 l 1,1,-1
 430.065429688 -16.4189453125 l 1,2,-1
 139.450195312 -16.4189453125 l 1,3,-1
 178.951171875 611.075195312 l 1,4,-1
 4.958984375 601.765625 l 1,5,-1
 11.54296875 791.689453125 l 1,6,-1
 529.7578125 817.756835938 l 1,7,-1
 534.459960938 631.556640625 l 1,0,-1
EndSplineSet
Validated: 1
EndChar

StartChar: uni0423
Encoding: 1059 1059 170
Width: 721
VWidth: 1173
GlyphClass: 2
Flags: W
LayerCount: 2
Fore
SplineSet
493.703125 218.256835938 m 1,0,-1
 420.905273438 -9.353515625 l 1,1,-1
 130.631835938 -9.353515625 l 1,2,-1
 202.508789062 216.4140625 l 1,3,-1
 10.8369140625 781.293945312 l 1,4,-1
 279.915039062 796.958984375 l 1,5,-1
 364.693359375 473.512695312 l 1,6,-1
 459.607421875 812.624023438 l 1,7,-1
 705.647460938 768.392578125 l 1,8,-1
 493.703125 218.256835938 l 1,0,-1
EndSplineSet
Validated: 1
EndChar

StartChar: uni0424
Encoding: 1060 1060 171
Width: 803
VWidth: 1164
GlyphClass: 2
Flags: W
LayerCount: 2
Fore
SplineSet
517.939453125 -21.55859375 m 1,0,-1
 318.248046875 -12.7138671875 l 1,1,-1
 329.155273438 655.9296875 l 1,2,-1
 493.607421875 662.12109375 l 1,3,-1
 517.939453125 -21.55859375 l 1,0,-1
633.7265625 127.028320312 m 0,4,5
 599.326171875 113.76171875 599.326171875 113.76171875 568.702148438 97.841796875 c 128,-1,6
 538.076171875 81.921875 538.076171875 81.921875 497.3828125 72.6357421875 c 128,-1,7
 456.689453125 63.3486328125 456.689453125 63.3486328125 401.732421875 65.5595703125 c 128,-1,8
 346.775390625 67.771484375 346.775390625 67.771484375 264.549804688 88.11328125 c 0,9,10
 222.59765625 99.611328125 222.59765625 99.611328125 189.036132812 119.954101562 c 128,-1,11
 155.474609375 140.294921875 155.474609375 140.294921875 130.302734375 167.271484375 c 128,-1,12
 105.1328125 194.247070312 105.1328125 194.247070312 87.0927734375 224.760742188 c 128,-1,13
 69.052734375 255.274414062 69.052734375 255.274414062 57.306640625 286.229492188 c 0,14,15
 27.939453125 356.986328125 27.939453125 356.986328125 19.5498046875 441.0078125 c 0,16,17
 16.193359375 477.270507812 16.193359375 477.270507812 27.939453125 525.915039062 c 0,18,19
 34.65234375 555.987304688 34.65234375 555.987304688 47.23828125 587.385742188 c 128,-1,20
 59.82421875 618.783203125 59.82421875 618.783203125 80.7998046875 648.412109375 c 128,-1,21
 101.776367188 678.041992188 101.776367188 678.041992188 131.981445312 703.690429688 c 0,22,23
 160.5078125 725.801757812 160.5078125 725.801757812 207.495117188 747.913085938 c 0,24,25
 319.92578125 800.095703125 319.92578125 800.095703125 406.766601562 805.844726562 c 128,-1,26
 493.607421875 811.59375 493.607421875 811.59375 558.6328125 787.271484375 c 128,-1,27
 623.658203125 762.94921875 623.658203125 762.94921875 668.547851562 717.3984375 c 128,-1,28
 713.435546875 671.849609375 713.435546875 671.849609375 741.963867188 623.205078125 c 1,29,30
 762.100585938 573.67578125 762.100585938 573.67578125 772.16796875 512.6484375 c 0,31,32
 778.880859375 471.963867188 778.880859375 471.963867188 778.880859375 448.96875 c 0,33,34
 776.364257812 376.443359375 776.364257812 376.443359375 753.709960938 288.883789062 c 0,35,36
 739.4453125 238.469726562 739.4453125 238.469726562 719.30859375 206.62890625 c 128,-1,37
 699.171875 174.7890625 699.171875 174.7890625 680.713867188 157.54296875 c 128,-1,38
 662.254882812 140.294921875 662.254882812 140.294921875 648.411132812 133.662109375 c 128,-1,39
 634.565429688 127.028320312 634.565429688 127.028320312 633.7265625 127.028320312 c 0,4,5
376.98046875 551.564453125 m 0,40,41
 356.004882812 544.489257812 356.004882812 544.489257812 336.70703125 529.454101562 c 128,-1,42
 317.409179688 514.41796875 317.409179688 514.41796875 304.404296875 505.131835938 c 128,-1,43
 291.399414062 495.844726562 291.399414062 495.844726562 283.427734375 481.693359375 c 128,-1,44
 275.45703125 467.541992188 275.45703125 467.541992188 277.135742188 442.77734375 c 0,45,46
 277.973632812 402.977539062 277.973632812 402.977539062 302.306640625 366.71484375 c 0,47,48
 319.086914062 339.296875 319.086914062 339.296875 343 328.241210938 c 128,-1,49
 366.912109375 317.185546875 366.912109375 317.185546875 396.278320312 319.83984375 c 0,50,51
 432.357421875 322.4921875 432.357421875 322.4921875 456.689453125 327.799804688 c 0,52,53
 483.5390625 334.875 483.5390625 334.875 509.548828125 351.6796875 c 0,54,55
 530.524414062 364.946289062 530.524414062 364.946289062 542.272460938 387.057617188 c 0,56,57
 559.891601562 420.666992188 559.891601562 420.666992188 557.374023438 442.77734375 c 0,58,59
 554.018554688 458.697265625 554.018554688 458.697265625 554.018554688 464.00390625 c 0,60,61
 548.983398438 501.151367188 548.983398438 501.151367188 532.623046875 522.8203125 c 128,-1,62
 516.26171875 544.489257812 516.26171875 544.489257812 491.9296875 553.776367188 c 128,-1,63
 467.596679688 563.0625 467.596679688 563.0625 436.552734375 561.293945312 c 0,64,65
 400.473632812 560.409179688 400.473632812 560.409179688 376.98046875 551.564453125 c 0,40,41
EndSplineSet
Validated: 37
EndChar

StartChar: uni0425
Encoding: 1061 1061 172
Width: 658
VWidth: 1179
GlyphClass: 2
Flags: W
LayerCount: 2
Fore
SplineSet
673.533203125 106.704101562 m 1,0,-1
 475.615234375 -10.8681640625 l 1,1,-1
 336.611328125 183.64453125 l 1,2,-1
 216.01953125 -10.8681640625 l 1,3,-1
 -15.958984375 143.877929688 l 1,4,-1
 162.627929688 386.801757812 l 1,5,-1
 -15.958984375 646.15234375 l 1,6,-1
 216.01953125 800.897460938 l 1,7,-1
 336.611328125 588.23046875 l 1,8,-1
 475.615234375 800.897460938 l 1,9,-1
 673.533203125 684.190429688 l 1,10,-1
 488.502929688 386.801757812 l 1,11,-1
 673.533203125 106.704101562 l 1,0,-1
EndSplineSet
Validated: 1
EndChar

StartChar: uni0426
Encoding: 1062 1062 173
Width: 742
VWidth: 1182
GlyphClass: 2
Flags: W
LayerCount: 2
Fore
SplineSet
521.099609375 -18.150390625 m 1,0,-1
 12.849609375 -16.25 l 1,1,-1
 19.5 815 l 1,2,-1
 279.799804688 798.849609375 l 1,3,-1
 279.799804688 224.099609375 l 1,4,-1
 391.900390625 227.900390625 l 1,5,-1
 376.700195312 229.799804688 l 1,6,-1
 373.849609375 800.75 l 1,7,-1
 645.549804688 800.75 l 1,8,-1
 635.099609375 227.900390625 l 1,9,-1
 721.549804688 227.900390625 l 1,10,-1
 731.049804688 -53.2998046875 l 1,11,-1
 521.099609375 -51.400390625 l 1,12,-1
 521.099609375 -18.150390625 l 1,0,-1
588.549804688 149.049804688 m 1024,13,-1
EndSplineSet
Validated: 1
EndChar

StartChar: uni0427
Encoding: 1063 1063 174
Width: 579
VWidth: 1180
GlyphClass: 2
Flags: W
LayerCount: 2
Fore
SplineSet
11.099609375 801.549804688 m 1,0,-1
 244.799804688 787.299804688 l 1,1,-1
 233.400390625 476.650390625 l 1,2,-1
 320.799804688 479.5 l 1,3,-1
 335.049804688 797.75 l 1,4,-1
 530.75 794.900390625 l 1,5,-1
 565.900390625 -12.125 l 1,6,-1
 321.75 -9.275390625 l 1,7,-1
 326.5 227.75 l 1,8,-1
 36.75 236.299804688 l 1,9,-1
 11.099609375 801.549804688 l 1,0,-1
EndSplineSet
Validated: 1
EndChar

StartChar: uni0428
Encoding: 1064 1064 175
Width: 881
VWidth: 1178
GlyphClass: 2
Flags: W
LayerCount: 2
Fore
SplineSet
274 235.25 m 1,0,-1
 258.799804688 799.549804688 l 1,1,-1
 9.900390625 797.650390625 l 1,2,-1
 21.2998046875 -11.75 l 1,3,-1
 323.400390625 -11.75 l 1,4,-1
 419.349609375 -11.75 l 1,5,-1
 496.299804688 -11.75 l 1,6,-1
 848.75 -11.75 l 1,7,-1
 862.049804688 771.049804688 l 1,8,-1
 619.799804688 797.650390625 l 1,9,-1
 597.950195312 225.75 l 1,10,-1
 554.25 231.450195312 l 1,11,-1
 529.549804688 665.599609375 l 1,12,-1
 318.650390625 669.400390625 l 1,13,-1
 318.650390625 235.25 l 1,14,-1
 274 235.25 l 1,0,-1
EndSplineSet
Validated: 9
EndChar

StartChar: uni0429
Encoding: 1065 1065 176
Width: 975
VWidth: 1179
GlyphClass: 2
Flags: W
LayerCount: 2
Fore
SplineSet
981.950195312 -11.849609375 m 1,0,-1
 830.900390625 -12.7998046875 l 1,1,-1
 813.799804688 -11.849609375 l 1,2,-1
 497.450195312 -11.849609375 l 1,3,-1
 420.5 -11.849609375 l 1,4,-1
 325.5 -11.849609375 l 1,5,-1
 22.4501953125 -11.849609375 l 1,6,-1
 15 802.5 l 5,7,-1
 262.950195312 803.450195312 l 5,8,-1
 276.099609375 235.150390625 l 1,9,-1
 319.799804688 235.150390625 l 1,10,-1
 322.799804688 673.299804688 l 5,11,-1
 533.700195312 669.5 l 5,12,-1
 556.349609375 231.349609375 l 1,13,-1
 600.049804688 225.650390625 l 1,14,-1
 623.950195312 802.5 l 5,15,-1
 867.150390625 775.900390625 l 5,16,-1
 867 207.599609375 l 1,17,-1
 975.299804688 191.450195312 l 1,18,-1
 981.950195312 -11.849609375 l 1,0,-1
820.450195312 16.650390625 m 1024,19,-1
867 207.599609375 m 1024,20,-1
EndSplineSet
Validated: 524289
EndChar

StartChar: uni042A
Encoding: 1066 1066 177
Width: 638
VWidth: 1174
GlyphClass: 2
Flags: W
LayerCount: 2
Fore
SplineSet
95.736328125 797.21875 m 1,0,-1
 10.0361328125 787.907226562 l 1,1,-1
 10.0361328125 614.7421875 l 1,2,-1
 96.6572265625 619.396484375 l 1,3,-1
 161.162109375 633.362304688 l 1,4,-1
 95.736328125 797.21875 l 1,0,-1
501.1953125 554.227539062 m 2,5,6
 480.922851562 561.674804688 480.922851562 561.674804688 462.032226562 570.0546875 c 128,-1,7
 443.141601562 578.432617188 443.141601562 578.432617188 423.329101562 585.881835938 c 128,-1,8
 403.517578125 593.329101562 403.517578125 593.329101562 379.557617188 597.518554688 c 128,-1,9
 355.598632812 601.708007812 355.598632812 601.708007812 324.268554688 601.708007812 c 1,10,-1
 323.346679688 810.251953125 l 1,11,-1
 97.5791015625 797.21875 l 1,12,-1
 80.9921875 -13.6826171875 l 1,13,-1
 288.330078125 -13.6826171875 l 2,14,15
 343.619140625 -13.6826171875 343.619140625 -13.6826171875 408.124023438 11.4541015625 c 0,16,17
 409.045898438 11.4541015625 409.045898438 11.4541015625 488.294921875 50.556640625 c 0,18,19
 519.625976562 66.3828125 519.625976562 66.3828125 546.349609375 96.1748046875 c 0,20,21
 577.680664062 131.552734375 577.680664062 131.552734375 588.73828125 152.03515625 c 0,22,23
 610.854492188 192.068359375 610.854492188 192.068359375 614.541015625 240.48046875 c 0,24,25
 620.069335938 299.1328125 620.069335938 299.1328125 620.991210938 332.6484375 c 0,26,27
 620.991210938 379.19921875 620.991210938 379.19921875 597.954101562 437.852539062 c 0,28,29
 595.189453125 444.368164062 595.189453125 444.368164062 570.30859375 486.263671875 c 0,30,31
 548.192382812 519.780273438 548.192382812 519.780273438 538.056640625 529.08984375 c 0,32,33
 522.390625 543.055664062 522.390625 543.055664062 511.33203125 548.641601562 c 2,34,-1
 501.1953125 554.227539062 l 2,5,6
352.833984375 436.920898438 m 0,35,36
 404.438476562 421.09375 404.438476562 421.09375 421.946289062 381.526367188 c 128,-1,37
 439.456054688 341.958984375 439.456054688 341.958984375 433.004882812 277.719726562 c 1,38,39
 414.575195312 239.548828125 414.575195312 239.548828125 384.166015625 223.721679688 c 128,-1,40
 353.756835938 207.89453125 353.756835938 207.89453125 322.424804688 206.963867188 c 1,41,-1
 323.346679688 443.438476562 l 1,42,43
 330.71875 442.506835938 330.71875 442.506835938 338.090820312 441.110351562 c 128,-1,44
 345.462890625 439.713867188 345.462890625 439.713867188 352.833984375 436.920898438 c 0,35,36
EndSplineSet
Validated: 37
EndChar

StartChar: uni042B
Encoding: 1067 1067 178
Width: 816
VWidth: 1174
GlyphClass: 2
Flags: W
LayerCount: 2
Fore
SplineSet
441.977539062 555.791992188 m 2,0,1
 421 563 421 563 407.995117188 570.22265625 c 0,2,3
 394 577 394 577 368.427734375 586.049804688 c 0,4,5
 342 595 342 595 318.619140625 599.083007812 c 0,6,7
 295 603 295 603 263.224609375 603.272460938 c 1,8,-1
 254.293945312 804.817382812 l 5,9,-1
 26.19921875 791.782226562 l 5,10,-1
 17.44140625 -12.1181640625 l 1,11,-1
 226.916015625 -12.1181640625 l 2,12,13
 283 -12 283 -12 348.876953125 13.0185546875 c 1,14,-1
 427.081054688 52.12109375 l 0,15,16
 460 68 460 68 486.665039062 97.740234375 c 0,17,18
 518 133 518 133 530.421875 153.599609375 c 0,19,20
 552 192 552 192 556.490234375 242.044921875 c 0,21,22
 563 312 563 312 563.006835938 334.213867188 c 0,23,24
 563 381 563 381 538.80078125 439.416992188 c 0,25,26
 536 446 536 446 510.87109375 487.829101562 c 0,27,28
 490 521 490 521 479.217773438 530.655273438 c 0,29,30
 462.272119934 545.643814674 462.272119934 545.643814674 453.1484375 550.206054688 c 2,31,-1
 441.977539062 555.791992188 l 2,0,1
292.0859375 438.486328125 m 0,32,33
 344.221679688 422.659179688 344.221679688 422.659179688 361.911132812 383.091796875 c 128,-1,34
 379.599609375 343.5234375 379.599609375 343.5234375 373.083007812 279.28515625 c 1,35,36
 354.462890625 241.114257812 354.462890625 241.114257812 323.740234375 225.287109375 c 128,-1,37
 293.017578125 209.459960938 293.017578125 209.459960938 260.431640625 208.529296875 c 1,38,-1
 262.293945312 445.002929688 l 1,39,40
 269.7421875 444.071289062 269.7421875 444.071289062 277.190429688 442.67578125 c 128,-1,41
 284.637695312 441.279296875 284.637695312 441.279296875 292.0859375 438.486328125 c 0,32,33
795.756835938 -12.1181640625 m 1,42,-1
 554.627929688 -12.1181640625 l 1,43,-1
 585.73046875 795.506835938 l 5,44,-1
 783.102539062 785.266601562 l 5,45,-1
 795.756835938 -12.1181640625 l 1,42,-1
EndSplineSet
Validated: 524329
EndChar

StartChar: uni042C
Encoding: 1068 1068 179
Width: 571
VWidth: 1174
GlyphClass: 2
Flags: W
LayerCount: 2
Fore
SplineSet
435.153320312 554.265625 m 2,0,1
 415 562 415 562 395.989257812 570.092773438 c 128,-1,2
 377 578 377 578 357.286132812 585.918945312 c 0,3,4
 337 593 337 593 313.515625 597.555664062 c 128,-1,5
 290 602 290 602 259.146484375 601.74609375 c 1,6,-1
 257.303710938 807.290039062 l 5,7,-1
 32.45703125 794.256835938 l 5,8,-1
 15.8701171875 -13.64453125 l 1,9,-1
 223.208007812 -13.64453125 l 2,10,11
 302 -14 302 -14 343.924804688 11.4921875 c 1,12,-1
 421.331054688 50.59375 l 0,13,14
 454 66 454 66 480.305664062 96.212890625 c 0,15,16
 512 132 512 132 522.6953125 152.073242188 c 0,17,18
 544 190 544 190 548.497070312 240.518554688 c 0,19,20
 554 299 554 299 554.948242188 332.686523438 c 0,21,22
 555 389 555 389 531.91015625 437.890625 c 0,23,24
 529 444 529 444 503.34375 486.301757812 c 0,25,26
 483 520 483 520 472.934570312 529.127929688 c 0,27,28
 454.974851304 545.022256562 454.974851304 545.022256562 447.131835938 548.6796875 c 2,29,-1
 435.153320312 554.265625 l 2,0,1
286.791992188 436.958984375 m 0,30,31
 338.395507812 421.131835938 338.395507812 421.131835938 355.904296875 381.564453125 c 128,-1,32
 373.412109375 341.997070312 373.412109375 341.997070312 366.961914062 277.7578125 c 1,33,34
 348.53125 239.586914062 348.53125 239.586914062 318.583007812 223.759765625 c 128,-1,35
 288.633789062 207.932617188 288.633789062 207.932617188 256.381835938 207.001953125 c 1,36,-1
 257.303710938 443.475585938 l 1,37,38
 264.67578125 442.544921875 264.67578125 442.544921875 272.046875 441.1484375 c 128,-1,39
 279.418945312 439.751953125 279.418945312 439.751953125 286.791992188 436.958984375 c 0,30,31
EndSplineSet
Validated: 524329
EndChar

StartChar: uni042D
Encoding: 1069 1069 180
Width: 737
VWidth: 1172
GlyphClass: 2
Flags: W
LayerCount: 2
Fore
SplineSet
415.865234375 486.211914062 m 5,0,-1
 224.00390625 483.390625 l 5,1,-1
 230.586914062 317.862304688 l 5,2,-1
 425.270507812 325.385742188 l 5,3,4
 413.043945312 261.432617188 413.043945312 261.432617188 348.149414062 245.443359375 c 4,5,6
 277.611328125 226.633789062 277.611328125 226.633789062 163.811523438 298.111328125 c 5,7,-1
 -5.478515625 85.55859375 l 5,8,9
 29.7900390625 62.986328125 l 4,10,11
 65.05859375 40.4150390625 65.05859375 40.4150390625 126.19140625 18.3134765625 c 132,-1,12
 187.323242188 -3.7890625 187.323242188 -3.7890625 269.147460938 -15.544921875 c 132,-1,13
 350.971679688 -27.3017578125 350.971679688 -27.3017578125 442.19921875 -3.7890625 c 4,14,15
 489.224609375 6.556640625 489.224609375 6.556640625 526.844726562 28.6591796875 c 132,-1,16
 564.463867188 50.7607421875 564.463867188 50.7607421875 592.6796875 79.916015625 c 132,-1,17
 620.89453125 109.071289062 620.89453125 109.071289062 641.5859375 140.578125 c 132,-1,18
 662.276367188 172.084960938 662.276367188 172.084960938 675.444335938 205.943359375 c 4,19,20
 708.361328125 279.301757812 708.361328125 279.301757812 716.826171875 368.649414062 c 4,21,22
 726.23046875 457.055664062 726.23046875 457.055664062 709.30078125 526.654296875 c 4,23,24
 701.77734375 558.630859375 701.77734375 558.630859375 687.669921875 592.489257812 c 132,-1,25
 673.5625 626.345703125 673.5625 626.345703125 650.049804688 657.853515625 c 132,-1,26
 626.537109375 689.360351562 626.537109375 689.360351562 591.73828125 717.10546875 c 132,-1,27
 556.940429688 744.849609375 556.940429688 744.849609375 508.034179688 763.659179688 c 4,28,29
 435.616210938 795.635742188 435.616210938 795.635742188 353.79296875 799.3984375 c 132,-1,30
 271.96875 803.161132812 271.96875 803.161132812 202.372070312 791.874023438 c 4,31,32
 120.548828125 781.528320312 120.548828125 781.528320312 41.5458984375 760.837890625 c 5,33,-1
 114.905273438 516.30859375 l 5,34,35
 140.298828125 536.999023438 140.298828125 536.999023438 173.215820312 550.166015625 c 4,36,37
 200.491210938 560.510742188 200.491210938 560.510742188 237.170898438 566.154296875 c 4,38,39
 271.029296875 569.916015625 271.029296875 569.916015625 318.053710938 555.80859375 c 4,40,41
 341.56640625 548.28515625 341.56640625 548.28515625 366.958984375 530.885742188 c 132,-1,42
 392.353515625 513.486328125 392.353515625 513.486328125 404.579101562 497.498046875 c 6,43,44
 403.638671875 498.438476562 403.638671875 498.438476562 415.865234375 486.211914062 c 5,0,-1
315.231445312 486.211914062 m 1028,45,-1
EndSplineSet
Validated: 524329
EndChar

StartChar: uni042E
Encoding: 1070 1070 181
Width: 1086
VWidth: 1172
GlyphClass: 2
Flags: W
LayerCount: 2
Fore
SplineSet
400.090820312 264.78125 m 1,0,-1
 156.301757812 269.198242188 l 1,1,-1
 135.5546875 447.666015625 l 1,2,-1
 418.245117188 458.267578125 l 1,3,-1
 400.090820312 264.78125 l 1,0,-1
266.09375 1.498046875 m 1,4,-1
 -1.037109375 1.498046875 l 1,5,-1
 42.1884765625 750.706054688 l 1,6,-1
 262.635742188 764.842773438 l 1,7,-1
 266.09375 1.498046875 l 1,4,-1
911.875 57.158203125 m 0,8,9
 876.430664062 43.90625 876.430664062 43.90625 844.875976562 28.4453125 c 128,-1,10
 813.321289062 12.9833984375 813.321289062 12.9833984375 771.393554688 3.70703125 c 128,-1,11
 729.465820312 -5.5693359375 729.465820312 -5.5693359375 672.840820312 -3.802734375 c 128,-1,12
 616.215820312 -2.0361328125 616.215820312 -2.0361328125 531.494140625 19.16796875 c 0,13,14
 488.26953125 30.6533203125 488.26953125 30.6533203125 453.690429688 50.9736328125 c 128,-1,15
 419.109375 71.2939453125 419.109375 71.2939453125 393.174804688 98.2412109375 c 128,-1,16
 367.240234375 125.188476562 367.240234375 125.188476562 348.653320312 155.227539062 c 128,-1,17
 330.06640625 185.266601562 330.06640625 185.266601562 317.963867188 216.188476562 c 0,18,19
 287.706054688 286.869140625 287.706054688 286.869140625 279.060546875 370.80078125 c 0,20,21
 270.416015625 448.548828125 270.416015625 448.548828125 285.977539062 519.229492188 c 0,22,23
 292.893554688 549.268554688 292.893554688 549.268554688 305.860351562 580.631835938 c 128,-1,24
 318.828125 611.99609375 318.828125 611.99609375 340.873046875 641.59375 c 128,-1,25
 362.91796875 671.19140625 362.91796875 671.19140625 394.904296875 696.8125 c 128,-1,26
 426.890625 722.43359375 426.890625 722.43359375 470.98046875 740.987304688 c 0,27,28
 586.823242188 793.114257812 586.823242188 793.114257812 676.298828125 798.856445312 c 128,-1,29
 765.774414062 804.599609375 765.774414062 804.599609375 832.7734375 780.302734375 c 128,-1,30
 899.771484375 756.006835938 899.771484375 756.006835938 946.455078125 710.506835938 c 128,-1,31
 993.137695312 665.005859375 993.137695312 665.005859375 1021.66699219 616.4140625 c 1,32,33
 1042.41503906 566.938476562 1042.41503906 566.938476562 1053.65332031 505.09375 c 0,34,35
 1063.16210938 452.083007812 1063.16210938 452.083007812 1061.43359375 379.194335938 c 128,-1,36
 1059.70507812 306.305664062 1059.70507812 306.305664062 1035.49804688 218.838867188 c 0,37,38
 1020.80175781 168.479492188 1020.80175781 168.479492188 1000.48632812 137.115234375 c 128,-1,39
 980.169921875 105.750976562 980.169921875 105.750976562 960.719726562 88.5234375 c 128,-1,40
 941.268554688 71.2939453125 941.268554688 71.2939453125 927.00390625 64.2265625 c 128,-1,41
 912.739257812 57.158203125 912.739257812 57.158203125 911.875 57.158203125 c 0,8,9
646.473632812 544.850585938 m 0,42,43
 624.861328125 537.782226562 624.861328125 537.782226562 604.977539062 522.762695312 c 128,-1,44
 585.09375 507.744140625 585.09375 507.744140625 570.397460938 486.09765625 c 128,-1,45
 555.701171875 464.452148438 555.701171875 464.452148438 548.352539062 436.180664062 c 128,-1,46
 541.004882812 407.907226562 541.004882812 407.907226562 544.462890625 373.451171875 c 0,47,48
 551.37890625 323.975585938 551.37890625 323.975585938 569.100585938 296.586914062 c 128,-1,49
 586.823242188 269.198242188 586.823242188 269.198242188 611.893554688 258.154296875 c 128,-1,50
 636.963867188 247.111328125 636.963867188 247.111328125 667.221679688 249.319335938 c 128,-1,51
 697.479492188 251.528320312 697.479492188 251.528320312 729.465820312 258.596679688 c 0,52,53
 760.587890625 268.315429688 760.587890625 268.315429688 783.064453125 282.009765625 c 128,-1,54
 805.541992188 295.704101562 805.541992188 295.704101562 817.64453125 317.791015625 c 128,-1,55
 829.747070312 339.87890625 829.747070312 339.87890625 832.7734375 373.451171875 c 128,-1,56
 835.798828125 407.024414062 835.798828125 407.024414062 828.8828125 457.383789062 c 0,57,58
 823.6953125 494.491210938 823.6953125 494.491210938 806.837890625 516.13671875 c 128,-1,59
 789.98046875 537.782226562 789.98046875 537.782226562 764.477539062 547.059570312 c 128,-1,60
 738.974609375 556.3359375 738.974609375 556.3359375 708.28515625 555.010742188 c 128,-1,61
 677.594726562 553.685546875 677.594726562 553.685546875 646.473632812 544.850585938 c 0,42,43
EndSplineSet
Validated: 37
EndChar

StartChar: uni042F
Encoding: 1071 1071 182
Width: 616
VWidth: 1175
GlyphClass: 2
Flags: W
LayerCount: 2
Fore
SplineSet
4.591796875 138.170898438 m 5,0,-1
 167.75390625 -26.8115234375 l 5,1,-1
 344.58984375 122.502929688 l 5,2,-1
 346.4140625 -2.84765625 l 5,3,-1
 598.90625 8.212890625 l 5,4,-1
 579.764648438 790.728515625 l 5,5,-1
 391.079101562 799.9453125 l 6,6,7
 311.775390625 803.631835938 311.775390625 803.631835938 267.111328125 796.258789062 c 4,8,9
 215.154296875 787.041015625 215.154296875 787.041015625 178.237304688 769.529296875 c 132,-1,10
 141.3203125 752.017578125 141.3203125 752.017578125 115.797851562 727.131835938 c 132,-1,11
 90.275390625 702.24609375 90.275390625 702.24609375 71.1328125 672.750976562 c 4,12,13
 57.4599609375 649.709960938 57.4599609375 649.709960938 46.9775390625 595.790039062 c 132,-1,14
 36.49609375 541.87109375 36.49609375 541.87109375 39.2294921875 478.274414062 c 132,-1,15
 41.96484375 414.678710938 41.96484375 414.678710938 64.296875 352.463867188 c 132,-1,16
 86.62890625 290.25 86.62890625 290.25 137.673828125 249.6953125 c 5,17,-1
 4.591796875 138.170898438 l 5,0,-1
321.801757812 404.540039062 m 4,18,19
 279.872070312 418.366210938 279.872070312 418.366210938 265.288085938 450.625 c 132,-1,20
 250.703125 482.883789062 250.703125 482.883789062 256.172851562 536.340820312 c 5,21,22
 269.846679688 568.600585938 269.846679688 568.600585938 295.368164062 581.043945312 c 132,-1,23
 320.890625 593.485351562 320.890625 593.485351562 347.325195312 595.329101562 c 5,24,-1
 346.4140625 399.010742188 l 5,25,26
 340.032226562 399.930664062 340.032226562 399.930664062 334.108398438 401.774414062 c 132,-1,27
 328.18359375 403.618164062 328.18359375 403.618164062 321.801757812 404.540039062 c 4,18,19
EndSplineSet
Validated: 524329
EndChar

StartChar: uni0430
Encoding: 1072 1072 183
Width: 606
VWidth: 991
GlyphClass: 2
Flags: W
LayerCount: 2
Fore
SplineSet
528 148 m 2,0,1
 528 130 528 130 538.5 123 c 128,-1,2
 549 116 549 116 564 116 c 0,3,4
 574 116 574 116 585 120 c 1,5,-1
 585 5 l 1,6,7
 567 -4 567 -4 542 -8 c 128,-1,8
 517 -12 517 -12 491 -12 c 0,9,10
 405 -12 405 -12 366 46 c 1,11,12
 328 18 328 18 284.5 0.5 c 128,-1,13
 241 -17 241 -17 185 -17 c 0,14,15
 164 -17 164 -17 115 -1 c 0,16,17
 83 9 83 9 63 28.5 c 128,-1,18
 43 48 43 48 29.5 78.5 c 128,-1,19
 16 109 16 109 16 147 c 0,20,21
 16 195 16 195 36.5 229 c 128,-1,22
 57 263 57 263 84 281.5 c 128,-1,23
 111 300 111 300 151 308 c 128,-1,24
 191 316 191 316 229 316 c 0,25,26
 288 316 288 316 342 304 c 1,27,-1
 342 322 l 2,28,29
 342 350 342 350 315.5 369 c 128,-1,30
 289 388 289 388 234 388 c 0,31,32
 182 388 182 388 135.5 380 c 128,-1,33
 89 372 89 372 50 357 c 1,34,-1
 50 494 l 1,35,36
 66 500 66 500 90 510 c 128,-1,37
 114 520 114 520 141 526 c 128,-1,38
 168 532 168 532 197 535 c 128,-1,39
 226 538 226 538 254 538 c 0,40,41
 317 538 317 538 367.5 526 c 128,-1,42
 418 514 418 514 454 486 c 128,-1,43
 490 458 490 458 509 410.5 c 0,44,45
 528 364 528 364 528 294 c 2,46,-1
 528 148 l 2,0,1
193 159 m 0,47,48
 193 138 193 138 210.5 122.5 c 128,-1,49
 228 107 228 107 257 107 c 0,50,51
 281 107 281 107 301.5 113.5 c 128,-1,52
 322 120 322 120 342 136 c 1,53,-1
 333 205 l 1,54,55
 322 210 322 210 308.5 212.5 c 128,-1,56
 295 215 295 215 276 215 c 0,57,58
 244 215 244 215 218.5 202.5 c 128,-1,59
 193 190 193 190 193 159 c 0,47,48
EndSplineSet
Validated: 1
EndChar

StartChar: uni0431
Encoding: 1073 1073 184
Width: 611
VWidth: 949
GlyphClass: 2
Flags: W
LayerCount: 2
Fore
SplineSet
583.5 239 m 4,0,1
 583.5 176 583.5 176 564.5 127.5 c 132,-1,2
 545.5 79 545.5 79 507.5 48 c 132,-1,3
 469.5 17 469.5 17 417.5 2 c 4,4,5
 366.5 -13 366.5 -13 308.5 -13 c 4,6,7
 251.5 -13 251.5 -13 199.5 3.5 c 132,-1,8
 147.5 20 147.5 20 109.5 57.5 c 132,-1,9
 71.5 95 71.5 95 48 156.5 c 132,-1,10
 24.5 218 24.5 218 24.5 309 c 4,11,12
 24.5 380 24.5 380 36.5 436 c 132,-1,13
 48.5 492 48.5 492 70 534.5 c 132,-1,14
 91.5 577 91.5 577 120.5 608 c 132,-1,15
 149.5 639 149.5 639 184.5 661 c 4,16,17
 241.5 695 241.5 695 294.5 708 c 4,18,19
 390.5 733 390.5 733 392.5 733 c 4,20,21
 446.5 748 446.5 748 467.5 754 c 6,22,-1
 546.5 772 l 5,23,-1
 544.5 619 l 5,24,25
 507.5 603 507.5 603 479.5 594.5 c 132,-1,26
 451.5 586 451.5 586 424.5 579 c 132,-1,27
 397.5 572 397.5 572 363 566.5 c 132,-1,28
 328.5 561 328.5 561 295.5 545 c 4,29,30
 275.5 535 275.5 535 260.5 519.5 c 132,-1,31
 245.5 504 245.5 504 235 486.5 c 132,-1,32
 224.5 469 224.5 469 220 450.5 c 132,-1,33
 215.5 432 215.5 432 215.5 416 c 5,34,35
 239.5 444 239.5 444 275.5 460.5 c 132,-1,36
 311.5 477 311.5 477 371.5 477 c 4,37,38
 414.5 477 414.5 477 455.5 460 c 4,39,40
 483.5 450 483.5 450 521.5 413 c 4,41,42
 541.5 395 541.5 395 563.5 338 c 4,43,44
 583.5 292 583.5 292 583.5 239 c 4,0,1
215.5 238 m 260,45,46
 215.5 225 215.5 225 218 205.5 c 132,-1,47
 220.5 186 220.5 186 230.5 169 c 132,-1,48
 240.5 152 240.5 152 259 140.5 c 4,49,50
 278.5 129 278.5 129 308.5 129 c 260,51,52
 337.5 129 337.5 129 356 140.5 c 132,-1,53
 374.5 152 374.5 152 384.5 169 c 132,-1,54
 394.5 186 394.5 186 397.5 204.5 c 132,-1,55
 400.5 223 400.5 223 400.5 238 c 260,56,57
 400.5 251 400.5 251 397 265.5 c 132,-1,58
 393.5 280 393.5 280 385 291 c 132,-1,59
 376.5 302 376.5 302 357.5 313 c 4,60,61
 332.5 330 332.5 330 309.5 329 c 4,62,63
 280.5 325 280.5 325 269.5 321 c 4,64,65
 248.5 313 248.5 313 234.5 301 c 132,-1,66
 220.5 289 220.5 289 218 270 c 132,-1,67
 215.5 251 215.5 251 215.5 238 c 260,45,46
EndSplineSet
Validated: 33
EndChar

StartChar: uni0432
Encoding: 1074 1074 185
Width: 464
VWidth: 987
GlyphClass: 2
Flags: W
LayerCount: 2
Fore
SplineSet
16.5 -13.580078125 m 1,0,-1
 23.5 537.875 l 1,1,-1
 259.5 536.841796875 l 2,2,3
 313.5 536.841796875 313.5 536.841796875 346.5 520.318359375 c 0,4,5
 380.5 507.926757812 380.5 507.926757812 402.5 485.208007812 c 0,6,7
 422.5 463.520507812 422.5 463.520507812 428.5 439.76953125 c 0,8,9
 437.5 413.953125 437.5 413.953125 436.5 390.201171875 c 0,10,11
 436.5 340.631835938 436.5 340.631835938 415.5 307.5859375 c 0,12,13
 393.5 277.637695312 393.5 277.637695312 351.5 260.08203125 c 1,14,15
 447.5 229.1015625 447.5 229.1015625 447.5 128.930664062 c 0,16,17
 447.5 102.080078125 447.5 102.080078125 440.5 73.166015625 c 0,18,19
 430.5 45.2822265625 430.5 45.2822265625 410.5 27.7275390625 c 0,20,21
 385.5 2.943359375 385.5 2.943359375 353.5 -7.3837890625 c 0,22,23
 306.5 -19.7763671875 306.5 -19.7763671875 267.5 -20.80859375 c 2,24,-1
 16.5 -13.580078125 l 1,0,-1
163.5 110.341796875 m 1,25,-1
 237.5 108.27734375 l 2,26,27
 259.5 107.244140625 259.5 107.244140625 277.5 118.603515625 c 0,28,29
 294.5 128.930664062 294.5 128.930664062 295.5 154.748046875 c 0,30,31
 295.5 183.663085938 295.5 183.663085938 278 195.022460938 c 128,-1,32
 260.5 206.381835938 260.5 206.381835938 235.5 206.381835938 c 2,33,-1
 152.5 206.381835938 l 1,34,-1
 163.5 110.341796875 l 1,25,-1
151.5 312.749023438 m 1,35,-1
 225.5 312.749023438 l 2,36,37
 250.5 312.749023438 250.5 312.749023438 266.5 325.141601562 c 0,38,39
 283.5 335.467773438 283.5 335.467773438 283.5 362.318359375 c 0,40,41
 283.5 391.232421875 283.5 391.232421875 267.5 401.559570312 c 0,42,43
 251.5 413.953125 251.5 413.953125 224.5 412.919921875 c 2,44,-1
 158.5 409.821289062 l 1,45,-1
 151.5 312.749023438 l 1,35,-1
EndSplineSet
Validated: 33
EndChar

StartChar: uni0433
Encoding: 1075 1075 186
Width: 439
VWidth: 987
GlyphClass: 2
Flags: W
LayerCount: 2
Fore
SplineSet
18.3095703125 -16.7353515625 m 1,0,-1
 30.4296875 530.884765625 l 1,1,-1
 429.379882812 542.049804688 l 1,2,-1
 416.25 387.762695312 l 1,3,-1
 230.41015625 374.567382812 l 1,4,-1
 196.0703125 -7.5986328125 l 1,5,-1
 18.3095703125 -16.7353515625 l 1,0,-1
EndSplineSet
Validated: 1
EndChar

StartChar: uni0434
Encoding: 1076 1076 187
Width: 710
VWidth: 1012
GlyphClass: 2
Flags: W
LayerCount: 2
Fore
SplineSet
23 -156.075195312 m 1,0,-1
 21 120.674804688 l 1,1,-1
 87 129.900390625 l 1,2,3
 133 214 133 214 146 321.5 c 128,-1,4
 159 429 159 429 156 547.825195312 c 1,5,-1
 606 527.325195312 l 1,6,-1
 598 139.125 l 1,7,-1
 687 122.724609375 l 1,8,-1
 680 -151.974609375 l 1,9,-1
 530 -154.025390625 l 1,10,-1
 518 -17.5751953125 l 1,11,-1
 197 -17.5751953125 l 1,12,-1
 181 -154.025390625 l 1,13,-1
 23 -156.075195312 l 1,0,-1
324 395.299804688 m 5,14,15
 321 311 321 311 311.5 250.324707031 c 0,16,17
 302 189 302 189 277 129.900390625 c 1,18,-1
 423 129.900390625 l 1,19,-1
 423 395.299804688 l 5,20,-1
 324 395.299804688 l 5,14,15
EndSplineSet
EndChar

StartChar: uni0435
Encoding: 1077 1077 188
Width: 598
VWidth: 991
GlyphClass: 2
Flags: W
LayerCount: 2
Fore
SplineSet
23.2197265625 259 m 4,0,1
 23.2197265625 335 23.2197265625 335 49.7197265625 389 c 132,-1,2
 76.2197265625 443 76.2197265625 443 117.719726562 475.5 c 132,-1,3
 159.219726562 508 159.219726562 508 206.719726562 522.5 c 132,-1,4
 254.219726562 537 254.219726562 537 298.219726562 537 c 4,5,6
 382.219726562 537 382.219726562 537 437.719726562 507 c 132,-1,7
 493.219726562 477 493.219726562 477 523.719726562 429.5 c 132,-1,8
 554.219726562 382 554.219726562 382 560.719726562 323 c 132,-1,9
 567.219726562 264 567.219726562 264 553.219726562 204 c 5,10,-1
 211.219726562 204 l 5,11,12
 220.219726562 182 220.219726562 182 235.719726562 167 c 132,-1,13
 251.219726562 152 251.219726562 152 273.219726562 142.5 c 132,-1,14
 295.219726562 133 295.219726562 133 321.719726562 127.5 c 132,-1,15
 348.219726562 122 348.219726562 122 377.219726562 122 c 4,16,17
 423.219726562 122 423.219726562 122 459.219726562 130 c 132,-1,18
 495.219726562 138 495.219726562 138 527.219726562 148 c 5,19,-1
 527.219726562 11 l 5,20,21
 490.219726562 -1 490.219726562 -1 443.219726562 -9.5 c 132,-1,22
 396.219726562 -18 396.219726562 -18 333.219726562 -18 c 4,23,24
 268.219726562 -18 268.219726562 -18 212.719726562 0 c 132,-1,25
 157.219726562 18 157.219726562 18 114.719726562 53 c 132,-1,26
 72.2197265625 88 72.2197265625 88 47.7197265625 140.5 c 132,-1,27
 23.2197265625 193 23.2197265625 193 23.2197265625 259 c 4,0,1
384.219726562 315 m 5,28,29
 387.219726562 325 387.219726562 325 384.219726562 339.5 c 132,-1,30
 381.219726562 354 381.219726562 354 372.719726562 368 c 132,-1,31
 364.219726562 382 364.219726562 382 347.219726562 392.5 c 132,-1,32
 330.219726562 403 330.219726562 403 303.219726562 403 c 4,33,34
 265.219726562 403 265.219726562 403 236.719726562 379.5 c 132,-1,35
 208.219726562 356 208.219726562 356 208.219726562 315 c 5,36,-1
 384.219726562 315 l 5,28,29
EndSplineSet
Validated: 33
EndChar

StartChar: uni0436
Encoding: 1078 1078 189
Width: 823
VWidth: 987
GlyphClass: 2
Flags: W
LayerCount: 2
Fore
SplineSet
647.200195312 -15.525390625 m 1,0,-1
 559.764648438 173.849609375 l 1,1,-1
 518.559570312 166.674804688 l 1,2,-1
 501.474609375 -27.8251953125 l 1,3,-1
 340.674804688 -20.650390625 l 1,4,-1
 321.580078125 167.700195312 l 1,5,-1
 286.405273438 166.674804688 l 1,6,-1
 152.740234375 -11.4248046875 l 1,7,-1
 4 -11.4248046875 l 1,8,-1
 176.860351562 257.900390625 l 1,9,-1
 41.1845703125 543.674804688 l 1,10,-1
 218.065429688 538.549804688 l 1,11,-1
 292.434570312 314.275390625 l 1,12,-1
 329.620117188 314.275390625 l 1,13,-1
 340.674804688 538.549804688 l 1,14,-1
 495.4453125 534.450195312 l 1,15,-1
 515.544921875 314.275390625 l 1,16,-1
 547.705078125 320.424804688 l 1,17,-1
 636.14453125 525.224609375 l 1,18,-1
 820.059570312 533.424804688 l 1,19,-1
 692.424804688 248.674804688 l 1,20,-1
 809.004882812 -8.349609375 l 1,21,-1
 647.200195312 -15.525390625 l 1,0,-1
EndSplineSet
Validated: 1
EndChar

StartChar: uni0437
Encoding: 1079 1079 190
Width: 508
VWidth: 991
GlyphClass: 2
Flags: W
LayerCount: 2
Fore
SplineSet
489 145 m 0,0,1
 489 117 489 117 474.5 88.5 c 128,-1,2
 460 60 460 60 428 36.5 c 128,-1,3
 396 13 396 13 345.5 -2.5 c 128,-1,4
 295 -18 295 -18 220 -18 c 0,5,6
 154 -18 154 -18 102.5 -5.5 c 128,-1,7
 51 7 51 7 17 27 c 1,8,-1
 17 168 l 1,9,10
 30 158 30 158 51.5 150.5 c 128,-1,11
 73 143 73 143 96.5 137 c 128,-1,12
 120 131 120 131 145.5 126.5 c 128,-1,13
 171 122 171 122 195 122 c 0,14,15
 243 122 243 122 271 132.5 c 128,-1,16
 299 143 299 143 299 168 c 0,17,18
 299 195 299 195 271.5 200.5 c 128,-1,19
 244 206 244 206 206 206 c 2,20,-1
 118 206 l 1,21,-1
 118 319 l 1,22,-1
 206 319 l 2,23,24
 243 319 243 319 264.5 327 c 128,-1,25
 286 335 286 335 286 355 c 0,26,27
 286 372 286 372 269 384.5 c 128,-1,28
 252 397 252 397 207 397 c 0,29,30
 183 397 183 397 158 393 c 128,-1,31
 133 389 133 389 108.5 381.5 c 128,-1,32
 84 374 84 374 63 366 c 128,-1,33
 42 358 42 358 29 352 c 1,34,-1
 29 493 l 1,35,36
 63 513 63 513 118 525.5 c 128,-1,37
 173 538 173 538 230 538 c 0,38,39
 304 538 304 538 352 522 c 128,-1,40
 400 506 400 506 427.5 483.5 c 128,-1,41
 455 461 455 461 466.5 433.5 c 128,-1,42
 478 406 478 406 478 379 c 0,43,44
 478 333 478 333 452.5 305.5 c 128,-1,45
 427 278 427 278 393 266 c 1,46,47
 489 237 489 237 489 145 c 0,0,1
EndSplineSet
Validated: 1
EndChar

StartChar: uni0438
Encoding: 1080 1080 191
Width: 558
VWidth: 988
GlyphClass: 2
Flags: W
LayerCount: 2
Fore
SplineSet
14.5 -19.2998046875 m 1,0,-1
 22.5 530.875 l 5,1,-1
 183.5 531.900390625 l 5,2,-1
 198.5 270.775390625 l 1,3,-1
 397.5 545.224609375 l 5,4,-1
 537.5 531.900390625 l 5,5,-1
 537.5 -16.224609375 l 1,6,-1
 382.5 -18.275390625 l 1,7,-1
 352.5 235.924804688 l 1,8,-1
 165.5 -19.2998046875 l 1,9,-1
 14.5 -19.2998046875 l 1,0,-1
EndSplineSet
Validated: 524289
EndChar

StartChar: uni0439
Encoding: 1081 1081 192
Width: 584
VWidth: 957
GlyphClass: 2
Flags: W
LayerCount: 2
Fore
SplineSet
394 631.706054688 m 1,0,-1
 199 612.280273438 l 1,1,-1
 207 688.962890625 l 1,2,-1
 411 708.388671875 l 1,3,-1
 394 631.706054688 l 1,0,-1
25 -12.4296875 m 1,4,-1
 31 531.305664062 l 1,5,-1
 203 542.552734375 l 1,6,-1
 190 262.606445312 l 1,7,-1
 402 533.350585938 l 1,8,-1
 559 540.5078125 l 1,9,-1
 545 -14.474609375 l 1,10,-1
 378 -17.541015625 l 1,11,-1
 369 262.606445312 l 1,12,-1
 186 -17.541015625 l 1,13,-1
 25 -12.4296875 l 1,4,-1
EndSplineSet
Validated: 524289
EndChar

StartChar: uni043A
Encoding: 1082 1082 193
Width: 547
VWidth: 988
GlyphClass: 2
Flags: W
LayerCount: 2
Fore
SplineSet
20.83984375 -13.35546875 m 1,0,-1
 47.974609375 532.71484375 l 1,1,-1
 192.6953125 521.549804688 l 1,2,-1
 178.625 341.89453125 l 1,3,-1
 251.990234375 332.759765625 l 1,4,-1
 369.575195312 521.549804688 l 1,5,-1
 519.3203125 513.4296875 l 1,6,-1
 334.400390625 254.60546875 l 1,7,-1
 510.275390625 -20.4599609375 l 1,8,-1
 355.504882812 -17.4150390625 l 1,9,-1
 240.934570312 201.825195312 l 1,10,-1
 174.60546875 208.9296875 l 1,11,-1
 158.525390625 -16.400390625 l 1,12,-1
 20.83984375 -13.35546875 l 1,0,-1
EndSplineSet
Validated: 1
EndChar

StartChar: uni043B
Encoding: 1083 1083 194
Width: 596
VWidth: 990
GlyphClass: 2
Flags: W
LayerCount: 2
Fore
SplineSet
315 375 m 1,0,1
 309 293 309 293 297 222 c 128,-1,2
 285 151 285 151 263 97.5 c 128,-1,3
 241 44 241 44 203.5 13.5 c 128,-1,4
 166 -17 166 -17 110 -17 c 0,5,6
 100 -18 100 -18 18 8 c 1,7,-1
 23 143 l 1,8,9
 32 139 32 139 47 139 c 0,10,11
 75 139 75 139 92.5 168.5 c 128,-1,12
 110 198 110 198 130.5 249 c 128,-1,13
 151 300 151 300 156 377.5 c 128,-1,14
 161 455 161 455 164 534 c 1,15,-1
 578 528 l 1,16,-1
 566 -6 l 1,17,-1
 414 4 l 1,18,-1
 422 390 l 1,19,-1
 315 375 l 1,20,-1
 315 375 l 1,0,1
EndSplineSet
Validated: 37
EndChar

StartChar: uni043C
Encoding: 1084 1084 195
Width: 622
VWidth: 987
GlyphClass: 2
Flags: W
LayerCount: 2
Fore
SplineSet
14.5 -16.1123046875 m 1,0,-1
 58.5 534.35546875 l 1,1,-1
 205.5 525.197265625 l 1,2,-1
 303.5 285.067382812 l 1,3,-1
 437.5 528.25 l 1,4,-1
 579.5 520.110351562 l 1,5,-1
 599.5 -16.1123046875 l 1,6,-1
 465.5 -16.1123046875 l 1,7,-1
 409.5 245.384765625 l 1,8,-1
 343.5 87.6728515625 l 1,9,-1
 272.5 94.794921875 l 1,10,-1
 215.5 247.419921875 l 1,11,-1
 156.5 -16.1123046875 l 1,12,-1
 14.5 -16.1123046875 l 1,0,-1
EndSplineSet
Validated: 1
EndChar

StartChar: uni043D
Encoding: 1085 1085 196
Width: 494
VWidth: 987
GlyphClass: 2
Flags: W
LayerCount: 2
Fore
SplineSet
26.9404296875 -18.2197265625 m 1,0,-1
 44 544 l 5,1,-1
 169.625 533.899414062 l 5,2,-1
 180.705078125 320.129882812 l 1,3,-1
 308.33984375 301.950195312 l 1,4,-1
 322 544 l 5,5,-1
 459.629882812 533.53515625 l 5,6,-1
 452 -17.5751953125 l 1,7,-1
 309.344726562 -18.2197265625 l 1,8,-1
 311.35546875 192.870117188 l 1,9,-1
 178.6953125 216.099609375 l 1,10,-1
 167.639648438 -18.2197265625 l 1,11,-1
 26.9404296875 -18.2197265625 l 1,0,-1
EndSplineSet
Validated: 524289
EndChar

StartChar: uni043E
Encoding: 1086 1086 197
Width: 603
VWidth: 991
GlyphClass: 2
Flags: W
LayerCount: 2
Fore
SplineSet
13.5 260 m 256,0,1
 13.5 329 13.5 329 37 381 c 128,-1,2
 60.5 433 60.5 433 101 467.5 c 128,-1,3
 141.5 502 141.5 502 194.5 520 c 128,-1,4
 247.5 538 247.5 538 307.5 538 c 256,5,6
 366.5 538 366.5 538 419.5 520 c 128,-1,7
 472.5 502 472.5 502 509.5 464 c 0,8,9
 536.5 437 536.5 437 566.5 373 c 0,10,11
 586.5 331 586.5 331 586.5 250 c 0,12,13
 586.5 193 586.5 193 563.5 136 c 0,14,15
 543.5 89 543.5 89 501.5 52 c 0,16,17
 461.5 18 461.5 18 415.5 2 c 0,18,19
 366.5 -16 366.5 -16 307.5 -17 c 256,20,21
 248.5 -17 248.5 -17 195 0.5 c 128,-1,22
 141.5 18 141.5 18 101 52 c 128,-1,23
 60.5 86 60.5 86 37 138.5 c 128,-1,24
 13.5 191 13.5 191 13.5 260 c 256,0,1
410.5 260 m 256,25,26
 410.5 282 410.5 282 405 303 c 128,-1,27
 399.5 324 399.5 324 391 341.5 c 0,28,29
 382.5 360 382.5 360 362.5 370 c 0,30,31
 337.5 381 337.5 381 305.5 382 c 0,32,33
 277.5 382 277.5 382 258 368.5 c 128,-1,34
 238.5 355 238.5 355 226.5 339.5 c 128,-1,35
 214.5 324 214.5 324 209 303.5 c 128,-1,36
 203.5 283 203.5 283 203.5 260 c 256,37,38
 203.5 238 203.5 238 209 217.5 c 128,-1,39
 214.5 197 214.5 197 226.5 181 c 128,-1,40
 238.5 165 238.5 165 258.5 155.5 c 128,-1,41
 278.5 146 278.5 146 307.5 146 c 256,42,43
 335.5 146 335.5 146 355 155.5 c 128,-1,44
 374.5 165 374.5 165 387 181 c 128,-1,45
 399.5 197 399.5 197 405 217.5 c 128,-1,46
 410.5 238 410.5 238 410.5 260 c 256,25,26
EndSplineSet
Validated: 1
EndChar

StartChar: uni043F
Encoding: 1087 1087 198
Width: 518
VWidth: 987
GlyphClass: 2
Flags: W
LayerCount: 2
Fore
SplineSet
12.830078125 -17.7197265625 m 1,0,-1
 37.955078125 529.700195312 l 1,1,-1
 468.094726562 518.58984375 l 1,2,-1
 497.240234375 -17.7197265625 l 1,3,-1
 324.379882812 -17.7197265625 l 1,4,-1
 307.294921875 349.919921875 l 1,5,-1
 203.780273438 356.990234375 l 1,6,-1
 195.740234375 -17.7197265625 l 1,7,-1
 12.830078125 -17.7197265625 l 1,0,-1
EndSplineSet
Validated: 1
EndChar

StartChar: uni0440
Encoding: 1088 1088 199
Width: 599
VWidth: 1030
GlyphClass: 2
Flags: W
LayerCount: 2
Fore
SplineSet
138 449 m 1,0,1
 158 481 158 481 201.5 508.5 c 128,-1,2
 245 536 245 536 316 536 c 0,3,4
 382 536 382 536 430 511.5 c 128,-1,5
 478 487 478 487 509 447.5 c 128,-1,6
 540 408 540 408 554.5 358.5 c 128,-1,7
 569 309 569 309 569 259 c 128,-1,8
 569 209 569 209 554.5 158.5 c 128,-1,9
 540 108 540 108 509 68.5 c 128,-1,10
 478 29 478 29 429.5 5.5 c 128,-1,11
 381 -18 381 -18 316 -18 c 0,12,13
 261 -18 261 -18 225.5 1.5 c 0,14,15
 189 21 189 21 165 44 c 1,16,-1
 154 -236 l 1,17,-1
 17 -233 l 1,18,-1
 29 537 l 1,19,-1
 144 535 l 1,20,-1
 138 449 l 1,0,1
377 259 m 256,21,22
 377 283 377 283 371 304.5 c 128,-1,23
 365 326 365 326 351 344 c 128,-1,24
 337 362 337 362 317 373 c 128,-1,25
 297 384 297 384 265 384 c 0,26,27
 227 384 227 384 200 363.5 c 128,-1,28
 173 343 173 343 161 318 c 1,29,-1
 161 198 l 1,30,31
 172 172 172 172 199.5 153.5 c 128,-1,32
 227 135 227 135 265 135 c 0,33,34
 293 135 293 135 315 145 c 128,-1,35
 337 155 337 155 351 172.5 c 128,-1,36
 365 190 365 190 371 212.5 c 128,-1,37
 377 235 377 235 377 259 c 256,21,22
EndSplineSet
Validated: 1
EndChar

StartChar: uni0441
Encoding: 1089 1089 200
Width: 506
VWidth: 991
GlyphClass: 2
Flags: W
LayerCount: 2
Fore
SplineSet
16 249 m 0,0,1
 16 327 16 327 41.5 381.5 c 128,-1,2
 67 436 67 436 109.5 471 c 128,-1,3
 152 506 152 506 206.5 522.5 c 128,-1,4
 261 539 261 539 317 539 c 0,5,6
 360 539 360 539 401 529.5 c 128,-1,7
 442 520 442 520 478 502 c 1,8,-1
 478 345 l 1,9,10
 450 360 450 360 415 370 c 128,-1,11
 380 380 380 380 345 380 c 0,12,13
 317 380 317 380 292.5 374 c 128,-1,14
 268 368 268 368 248 354 c 128,-1,15
 228 340 228 340 217 317 c 128,-1,16
 206 294 206 294 206 260 c 0,17,18
 206 229 206 229 217 206.5 c 128,-1,19
 228 184 228 184 246.5 169.5 c 128,-1,20
 265 155 265 155 290 147.5 c 128,-1,21
 315 140 315 140 342 140 c 0,22,23
 384 140 384 140 420 150 c 0,24,25
 456 161 456 161 484 176 c 1,26,-1
 484 18 l 1,27,28
 444 2 444 2 399 -7.5 c 128,-1,29
 354 -17 354 -17 303 -17 c 0,30,31
 249 -17 249 -17 197 -1.5 c 128,-1,32
 145 14 145 14 104.5 46.5 c 128,-1,33
 64 79 64 79 40 129.5 c 128,-1,34
 16 180 16 180 16 249 c 0,0,1
EndSplineSet
Validated: 1
EndChar

StartChar: uni0442
Encoding: 1090 1090 201
Width: 529
VWidth: 987
GlyphClass: 2
Flags: W
LayerCount: 2
Fore
SplineSet
180.71484375 -12.9150390625 m 1,0,-1
 166.64453125 394.889648438 l 5,1,-1
 28.9599609375 396.919921875 l 5,2,-1
 15.89453125 533.9453125 l 5,3,-1
 506.334960938 542.065429688 l 5,4,-1
 505.330078125 399.96484375 l 5,5,-1
 325.434570312 401.995117188 l 5,6,-1
 325.434570312 -22.0498046875 l 1,7,-1
 180.71484375 -12.9150390625 l 1,0,-1
EndSplineSet
Validated: 524289
EndChar

StartChar: uni0443
Encoding: 1091 1091 202
Width: 537
VWidth: 1028
GlyphClass: 2
Flags: W
LayerCount: 2
Fore
SplineSet
388.5 505 m 5,0,-1
 515.5 500 l 5,1,-1
 358.5 -51 l 2,2,3
 345.5 -98 345.5 -98 309.5 -152 c 0,4,5
 281.5 -193 281.5 -193 250.5 -215 c 0,6,7
 221.5 -239 221.5 -239 188.5 -247 c 0,8,9
 160.5 -257 160.5 -257 119.5 -257 c 0,10,11
 93.5 -257 93.5 -257 70 -252 c 128,-1,12
 46.5 -247 46.5 -247 24.5 -242 c 1,13,-1
 30.5 -117 l 1,14,15
 76.5 -125 76.5 -125 100.5 -121 c 0,16,17
 127.5 -116 127.5 -116 156.5 -85 c 0,18,19
 187.5 -54 187.5 -54 207.5 -10 c 1,20,-1
 44.5 510 l 5,21,-1
 185.5 505 l 5,22,-1
 287.5 174 l 1,23,-1
 388.5 505 l 5,0,-1
EndSplineSet
Validated: 33
EndChar

StartChar: uni0444
Encoding: 1092 1092 203
Width: 812
VWidth: 1015
GlyphClass: 2
Flags: W
LayerCount: 2
Fore
SplineSet
318 -226 m 1,0,-1
 317 -22 l 1,1,2
 251 -18 251 -18 197.5 1.5 c 128,-1,3
 144 21 144 21 104 57 c 128,-1,4
 64 93 64 93 41 143 c 128,-1,5
 18 193 18 193 18 255 c 256,6,7
 18 318 18 318 41 367.5 c 128,-1,8
 64 417 64 417 104 453.5 c 128,-1,9
 144 490 144 490 198 510 c 0,10,11
 251 530 251 530 317 533 c 1,12,-1
 323 602 l 1,13,-1
 489 596 l 1,14,-1
 492 533 l 1,15,16
 558 529 558 529 611.5 509.5 c 128,-1,17
 665 490 665 490 706 453.5 c 128,-1,18
 747 417 747 417 769.5 368 c 128,-1,19
 792 319 792 319 792 255 c 256,20,21
 792 192 792 192 769.5 142.5 c 128,-1,22
 747 93 747 93 706 57 c 128,-1,23
 665 21 665 21 611 1.5 c 128,-1,24
 557 -18 557 -18 492 -22 c 1,25,-1
 489 -224 l 1,26,-1
 318 -226 l 1,0,-1
203 255 m 0,27,28
 203 233 203 233 209 212 c 128,-1,29
 215 191 215 191 229 173.5 c 128,-1,30
 243 156 243 156 272.5 145 c 128,-1,31
 302 134 302 134 335 133 c 1,32,-1
 340 370 l 1,33,34
 309 367 309 367 276 361.5 c 128,-1,35
 243 356 243 356 229 338 c 128,-1,36
 215 320 215 320 209 298 c 128,-1,37
 203 276 203 276 203 255 c 0,27,28
464 130 m 1,38,39
 495 133 495 133 531 144.5 c 128,-1,40
 567 156 567 156 580.5 173.5 c 128,-1,41
 594 191 594 191 600 212.5 c 128,-1,42
 606 234 606 234 606 255 c 128,-1,43
 606 276 606 276 600 298 c 128,-1,44
 594 320 594 320 580.5 338 c 128,-1,45
 567 356 567 356 535 357 c 128,-1,46
 503 358 503 358 471 361 c 1,47,-1
 464 130 l 1,38,39
EndSplineSet
Validated: 1
EndChar

StartChar: uni0445
Encoding: 1093 1093 204
Width: 529
VWidth: 987
GlyphClass: 2
Flags: W
LayerCount: 2
Fore
SplineSet
543.5 438 m 1,0,-1
 341.5 243 l 1,1,-1
 528.5 65 l 5,2,-1
 365.5 -16 l 5,3,-1
 264.5 133 l 1,4,-1
 153.5 -16 l 5,5,-1
 4.5 80 l 5,6,-1
 185.5 256 l 1,7,-1
 8.5 453 l 1,8,-1
 153.5 538 l 1,9,-1
 266.5 350 l 1,10,-1
 402.5 537 l 1,11,-1
 543.5 438 l 1,0,-1
EndSplineSet
Validated: 524289
EndChar

StartChar: uni0446
Encoding: 1094 1094 205
Width: 583
VWidth: 1011
GlyphClass: 2
Flags: W
LayerCount: 2
Fore
SplineSet
430.84765625 -184.639648438 m 1,0,-1
 426.8671875 -17.16015625 l 1,1,-1
 15.9326171875 -18.2197265625 l 1,2,-1
 16.927734375 538.6796875 l 5,3,-1
 160.20703125 532.3203125 l 5,4,-1
 162.197265625 155.620117188 l 1,5,-1
 315.427734375 138.66015625 l 1,6,-1
 305.477539062 525.959960938 l 5,7,-1
 469.65234375 538.6796875 l 5,8,-1
 460.697265625 121.700195312 l 1,9,-1
 556.217773438 117.459960938 l 1,10,-1
 538.307617188 -188.879882812 l 1,11,-1
 430.84765625 -184.639648438 l 1,0,-1
EndSplineSet
Validated: 524289
EndChar

StartChar: uni0447
Encoding: 1095 1095 206
Width: 547
VWidth: 987
GlyphClass: 2
Flags: W
LayerCount: 2
Fore
SplineSet
346.642578125 -17.099609375 m 1,0,-1
 346.642578125 144.610351562 l 1,1,2
 294 125 294 125 222.8125 125.040039062 c 0,3,4
 182 125 182 125 145.672851562 135.33984375 c 0,5,6
 108 146 108 146 78.6826171875 172.419921875 c 0,7,8
 53 196 53 196 34.0224609375 238.33984375 c 0,9,10
 13.8301043537 285.39592323 13.8301043537 285.39592323 15.7529296875 326.919921875 c 2,11,-1
 25.90234375 546.099609375 l 1,12,-1
 195.408203125 532.709960938 l 1,13,-1
 203.52734375 351.639648438 l 2,14,15
 205 311 205 311 223.828125 297.049804688 c 0,16,17
 243 283 243 283 274.578125 282.629882812 c 0,18,19
 315 283 315 283 346.642578125 297.049804688 c 1,20,-1
 353.748046875 539.919921875 l 1,21,-1
 515.1328125 525.5 l 1,22,-1
 532.387695312 -17.099609375 l 1,23,-1
 346.642578125 -17.099609375 l 1,0,-1
EndSplineSet
Validated: 524321
EndChar

StartChar: uni0448
Encoding: 1096 1096 207
Width: 808
VWidth: 987
GlyphClass: 2
Flags: W
LayerCount: 2
Fore
SplineSet
15.919921875 -6.884765625 m 1,0,-1
 19.900390625 525.690429688 l 5,1,-1
 197.009765625 544.974609375 l 5,2,-1
 206.959960938 117.959960938 l 1,3,-1
 273.625 130.139648438 l 1,4,-1
 304.469726562 544.974609375 l 5,5,-1
 487.549804688 530.764648438 l 5,6,-1
 504.46484375 123.03515625 l 1,7,-1
 577.099609375 122.01953125 l 1,8,-1
 613.915039062 540.915039062 l 5,9,-1
 780.080078125 544.974609375 l 5,10,-1
 780.080078125 -24.1396484375 l 1,11,-1
 15.919921875 -6.884765625 l 1,0,-1
EndSplineSet
Validated: 524289
EndChar

StartChar: uni0449
Encoding: 1097 1097 208
Width: 875
VWidth: 1011
GlyphClass: 2
Flags: W
LayerCount: 2
Fore
SplineSet
683.9296875 -160.162109375 m 1,0,-1
 693.98046875 -22.462890625 l 1,1,-1
 15.60546875 -12.337890625 l 1,2,-1
 41.7353515625 536.287109375 l 5,3,-1
 175.400390625 538.3125 l 5,4,-1
 206.5546875 127.387695312 l 1,5,-1
 278.915039062 120.299804688 l 1,6,-1
 293.990234375 538.3125 l 5,7,-1
 479.915039062 538.3125 l 5,8,-1
 516.094726562 120.299804688 l 1,9,-1
 577.400390625 127.387695312 l 1,10,-1
 605.540039062 538.3125 l 5,11,-1
 747.245117188 536.287109375 l 5,12,-1
 761.315429688 112.200195312 l 1,13,-1
 836.690429688 132.450195312 l 1,14,-1
 853.775390625 -160.162109375 l 1,15,-1
 683.9296875 -160.162109375 l 1,0,-1
EndSplineSet
Validated: 524289
EndChar

